<svg width="38" height="38" viewBox="0 0 38 38" fill="none" xmlns="http://www.w3.org/2000/svg">
<path fill-rule="evenodd" clip-rule="evenodd" d="M18.3803 33.4997C18.3803 33.7207 18.295 33.9327 18.1432 34.089C17.9914 34.2453 17.7855 34.333 17.5708 34.333H11.0946C10.8799 34.333 10.674 34.2453 10.5222 34.089C10.3704 33.9327 10.2851 33.7207 10.2851 33.4997V26.8332C10.2851 26.6122 10.3704 26.4003 10.5222 26.244C10.674 26.0877 10.8799 25.9999 11.0946 25.9999H17.5708C17.7855 25.9999 17.9914 26.0877 18.1432 26.244C18.295 26.4003 18.3803 26.6122 18.3803 26.8332V33.4997ZM12.7136 22.6666C12.7136 21.7475 13.4398 21 14.3327 21C15.2256 21 15.9517 21.8333 15.9517 22.6666V24.3333H12.7136V22.6666ZM17.5708 24.3333V22.6666C17.5708 20.7942 15.7404 18.9209 13.6559 19.4126C12.1194 19.775 11.0946 21.2842 11.0946 22.9066V24.3333H10.2851C9.85567 24.3333 9.44385 24.5089 9.14022 24.8214C8.83659 25.134 8.66602 25.5579 8.66602 25.9999V34.333C8.66602 34.7751 8.83659 35.199 9.14022 35.5115C9.44385 35.8241 9.85567 35.9997 10.2851 35.9997H18.3803C18.8097 35.9997 19.2215 35.8241 19.5251 35.5115C19.8288 35.199 19.9993 34.7751 19.9993 34.333V25.9999C19.9993 25.5579 19.8288 25.134 19.5251 24.8214C19.2215 24.5089 18.8097 24.3333 18.3803 24.3333H17.5708Z" fill="#E5B48A"/>
<path d="M3.5625 13.0625L19 3.5625L34.4375 13.0625" stroke="#E5B48A" stroke-width="2" stroke-miterlimit="10" stroke-linecap="round" stroke-linejoin="round"/>
<path d="M26.125 24.9373H29.6875V10.3311" stroke="#E5B48A" stroke-width="2" stroke-miterlimit="10" stroke-linecap="round" stroke-linejoin="round"/>
<path d="M8.3125 10.3311V21.3748" stroke="#E5B48A" stroke-width="2" stroke-miterlimit="10" stroke-linecap="round" stroke-linejoin="round"/>
<path d="M15.4375 16.625V14.25H22.5625V22.5625" stroke="#E5B48A" stroke-width="2" stroke-miterlimit="10" stroke-linecap="round" stroke-linejoin="round"/>
</svg>
