<svg width="38" height="38" viewBox="0 0 38 38" fill="none" xmlns="http://www.w3.org/2000/svg">
<path d="M33.25 32.0625H4.75C3.11125 32.0625 1.78125 30.7325 1.78125 29.0938V8.90625C1.78125 7.2675 3.11125 5.9375 4.75 5.9375H33.25C34.8887 5.9375 36.2188 7.2675 36.2188 8.90625V29.0938C36.2188 30.7325 34.8887 32.0625 33.25 32.0625ZM4.75 7.125C3.77031 7.125 2.96875 7.92656 2.96875 8.90625V29.0938C2.96875 30.0734 3.77031 30.875 4.75 30.875H33.25C34.2297 30.875 35.0312 30.0734 35.0312 29.0938V8.90625C35.0312 7.92656 34.2297 7.125 33.25 7.125H4.75Z" fill="#E5B48A"/>
<path d="M12.4688 23.75H7.71875C7.39219 23.75 7.125 23.4828 7.125 23.1562V14.8438C7.125 14.5172 7.39219 14.25 7.71875 14.25C8.04531 14.25 8.3125 14.5172 8.3125 14.8438V22.5625H12.4688C12.7953 22.5625 13.0625 22.8297 13.0625 23.1562C13.0625 23.4828 12.7953 23.75 12.4688 23.75ZM30.2812 23.75H25.5312C25.2047 23.75 24.9375 23.4828 24.9375 23.1562V14.8438C24.9375 14.5172 25.2047 14.25 25.5312 14.25H30.2812C30.6078 14.25 30.875 14.5172 30.875 14.8438C30.875 15.1703 30.6078 15.4375 30.2812 15.4375H26.125V22.5625H30.2812C30.6078 22.5625 30.875 22.8297 30.875 23.1562C30.875 23.4828 30.6078 23.75 30.2812 23.75ZM14.8438 23.75C14.5172 23.75 14.25 23.4828 14.25 23.1562V14.8438C14.25 14.5172 14.5172 14.25 14.8438 14.25C15.1703 14.25 15.4375 14.5172 15.4375 14.8438V23.1562C15.4375 23.4828 15.1703 23.75 14.8438 23.75ZM20.1875 23.75C19.9381 23.75 19.7125 23.5897 19.6294 23.3581L16.6606 15.0456C16.5478 14.7369 16.7081 14.3984 17.0228 14.2856C17.3316 14.1728 17.67 14.3391 17.7828 14.6478L20.1875 21.3928L22.5981 14.6478C22.705 14.3391 23.0494 14.1787 23.3581 14.2856C23.6669 14.3984 23.8272 14.7369 23.7203 15.0456L20.7516 23.3581C20.6625 23.5897 20.4369 23.75 20.1875 23.75Z" fill="#E5B48A"/>
<path d="M30.2812 19.5938H25.5312C25.2047 19.5938 24.9375 19.3266 24.9375 19C24.9375 18.6734 25.2047 18.4062 25.5312 18.4062H30.2812C30.6078 18.4062 30.875 18.6734 30.875 19C30.875 19.3266 30.6078 19.5938 30.2812 19.5938ZM31.4688 11.875C30.8156 11.875 30.2812 11.3406 30.2812 10.6875C30.2812 10.0344 30.8156 9.5 31.4688 9.5C32.1219 9.5 32.6562 10.0344 32.6562 10.6875C32.6562 11.3406 32.1219 11.875 31.4688 11.875Z" fill="#E5B48A"/>
</svg>
