<svg width="38" height="38" viewBox="0 0 38 38" fill="none" xmlns="http://www.w3.org/2000/svg">
<path d="M8.85638 26.125H11.5045C13.6337 24.7926 14.7891 23.123 15.0373 21.0662C15.0979 20.5651 15.5171 20.1875 16.0218 20.1875C17.5323 20.1875 18.6426 21.6232 18.2471 23.0814C17.9419 24.2084 17.6403 25.0171 17.0276 26.125H21.6838C22.4426 26.125 23.0078 26.828 22.8428 27.569L21.7348 32.5755C21.4961 33.6632 20.5319 34.4375 19.418 34.4375H15.0896C13.3083 34.4375 11.6529 33.25 10.6875 32.0625H8.3125" stroke="#E5B48A" stroke-width="2" stroke-miterlimit="10" stroke-linecap="round" stroke-linejoin="round"/>
<path d="M3.5625 24.9375L3.5625 33.25H8.3125V24.9375H3.5625Z" stroke="#E5B48A" stroke-width="2" stroke-miterlimit="10" stroke-linecap="round" stroke-linejoin="round"/>
<path d="M3.5625 13.0625L19 3.5625L34.4375 13.0625" stroke="#E5B48A" stroke-width="2" stroke-miterlimit="10" stroke-linecap="round" stroke-linejoin="round"/>
<path d="M26.125 24.9373H29.6875V10.3311" stroke="#E5B48A" stroke-width="2" stroke-miterlimit="10" stroke-linecap="round" stroke-linejoin="round"/>
<path d="M8.3125 10.3311V21.3748" stroke="#E5B48A" stroke-width="2" stroke-miterlimit="10" stroke-linecap="round" stroke-linejoin="round"/>
<path d="M15.4375 16.625V14.25H22.5625V22.5625" stroke="#E5B48A" stroke-width="2" stroke-miterlimit="10" stroke-linecap="round" stroke-linejoin="round"/>
</svg>
