<svg width="57" height="57" viewBox="0 0 57 57" fill="none" xmlns="http://www.w3.org/2000/svg">
<g clip-path="url(#clip0_419_6281)">
<path d="M30.9573 54.5952C24.8476 54.5952 18.8003 52.4577 14.0354 48.4232C13.6703 48.1115 13.6258 47.5682 13.9375 47.203C14.2403 46.8379 14.7925 46.7933 15.1576 47.1051C21.7393 52.6804 30.5476 54.3636 38.7147 51.5938C51.3794 47.3188 58.255 33.5141 54.0423 20.8227C54.0156 20.7336 53.9978 20.6446 53.9978 20.5466C53.9978 20.0657 54.3808 19.6827 54.8617 19.6827C55.2714 19.6827 55.6098 19.9588 55.6989 20.3418C60.1698 33.9149 52.8133 48.6636 39.2668 53.2326C36.5594 54.1499 33.745 54.5952 30.9573 54.5952ZM8.07716 40.1404C7.72982 40.1404 7.42701 39.9444 7.28451 39.6416C6.87482 38.7688 6.50966 37.8426 6.18013 36.8807C4.97779 33.3093 4.55919 29.6132 4.94216 25.8993C4.97779 25.5074 5.03122 25.0977 5.09357 24.7058C6.51857 14.9535 13.2161 6.93786 22.5409 3.78505C27.8223 1.9949 33.4154 1.94146 38.7236 3.61583C38.7592 3.62474 38.7859 3.63365 38.8126 3.64255L39.1511 3.74943C43.5597 5.21896 47.514 7.85521 50.5689 11.3554C50.8806 11.7116 50.845 12.2638 50.4887 12.5755C50.1325 12.8872 49.5803 12.8516 49.2686 12.4954C46.4097 9.22677 42.7225 6.76865 38.5989 5.38818L38.4742 5.34365C38.4118 5.32583 38.3584 5.30802 38.2961 5.29021C38.2783 5.29021 38.2694 5.2813 38.2515 5.2813C33.2819 3.7049 28.045 3.74943 23.0931 5.4238C14.3828 8.36286 8.1306 15.853 6.79466 24.9641C6.74122 25.3293 6.68779 25.6855 6.66107 26.0596C6.30482 29.5419 6.69669 32.9886 7.81888 36.3196C8.12169 37.2013 8.46013 38.0474 8.82529 38.849C8.89654 38.9736 8.94107 39.125 8.94107 39.2765C8.93216 39.7485 8.54919 40.1404 8.07716 40.1404Z" fill="#E5B48A"/>
<path d="M38.2442 49.7325C38.0216 49.7325 37.7989 49.7058 37.5852 49.6524C36.1691 49.305 35.4298 47.9691 35.1003 47.1586C33.3636 47.1052 31.9831 47.7197 31.1281 48.1027C30.6116 48.3342 30.1663 48.5302 29.7744 48.4678C29.3558 48.5302 28.3227 48.6994 28.1445 48.735C27.9575 48.7795 27.7616 48.7617 27.5834 48.6816C27.2183 48.5213 27.0491 48.2006 27.0847 47.7197C27.1827 46.0809 27.1381 45.3863 27.0936 45.1191C26.9689 45.0033 26.8798 44.843 26.8442 44.6559C26.7552 44.1839 27.058 43.7386 27.53 43.6406C27.8239 43.5872 28.1267 43.6674 28.3583 43.8633C28.6878 44.1483 28.9372 44.5758 28.857 46.8291C29.2311 46.7667 29.623 46.7222 29.908 46.7311C30.0148 46.6955 30.2375 46.5975 30.4245 46.5084C31.4577 46.0453 33.3814 45.1814 35.8395 45.4575C36.1958 45.502 36.4897 45.7514 36.5787 46.0988C36.6945 46.5174 37.2022 47.7553 38.0127 47.9513C38.7073 48.1205 39.7227 47.5238 40.8537 46.2769C40.925 46.1967 41.0141 46.1255 41.1209 46.0809C41.5039 45.8939 41.5484 45.6891 41.5039 45.4308C41.3169 44.3709 39.1348 42.2067 34.7084 41.7525C34.2364 41.708 33.8891 41.2805 33.9336 40.8084C33.987 40.3364 34.4056 39.9891 34.8777 40.0336C39.7939 40.5324 42.8309 43.035 43.1961 45.128C43.3742 46.1433 42.9378 47.0428 42.0205 47.5505C40.6756 49.0111 39.4109 49.7325 38.2442 49.7325ZM29.9258 46.7578C30.0148 46.7667 30.095 46.7756 30.1662 46.7934C30.0772 46.7667 29.9881 46.7578 29.9258 46.7578ZM32.4997 33.2025C32.4195 33.2025 32.3394 33.1936 32.2592 33.1669C31.7961 33.0333 31.5378 32.5613 31.6625 32.0981C31.9119 31.2253 32.1613 30.6375 32.1791 30.6108C32.5888 29.3639 32.4284 28.1259 32.1791 27.2175C31.7427 27.6628 31.2528 27.9656 30.7095 28.1081C30.2108 28.2417 29.7566 28.2239 29.3647 28.1527C28.9639 29.4886 27.9486 31.0027 26.7908 31.8577C25.6864 32.6681 24.8136 32.6058 24.2792 32.4009C24.1545 32.3564 24.0477 32.2852 23.9497 32.1872C22.4712 30.6197 21.1086 27.2264 21.0462 27.0839C20.9127 26.7455 21.0017 26.3625 21.2689 26.122C21.9903 25.4808 21.8923 24.5634 21.7409 24.0024C20.5831 23.8866 19.8261 23.0761 19.5322 22.5328C19.4164 22.3102 19.3986 22.043 19.4877 21.8114C19.648 21.4017 19.7103 20.7516 19.7281 20.2083C18.9889 20.1192 18.1606 19.7541 17.7153 18.7922C17.6262 18.6052 17.6173 18.4003 17.6708 18.2044C17.6708 18.2044 17.8845 17.3672 17.5283 16.4142C16.9137 14.722 19.3184 12.4777 20.0666 11.8275C23.2995 9.42282 25.6775 10.5183 27.245 11.2486C27.53 11.3822 27.7972 11.5069 28.0555 11.6049C29.3914 10.5539 29.338 9.79689 29.2845 9.06657C29.2489 8.52329 29.2044 7.84642 29.7298 7.27642C30.4334 6.51938 31.8584 6.2611 35.3675 6.2522C35.412 6.2522 35.4566 6.2522 35.5011 6.2611C35.8306 6.31454 38.7341 6.81329 39.7939 8.55001C40.1145 9.07548 40.2303 9.65438 40.1591 10.2689C40.8003 10.83 41.4416 11.5158 41.593 12.0947C41.7177 12.4955 42.163 14.1075 41.21 15.0427C40.6133 15.6216 39.7048 15.7374 38.5114 15.3722C38.1284 15.5414 37.2823 16.0224 36.8816 17.2158C37.3002 17.287 37.7633 17.4563 38.1552 17.8125C38.547 18.1688 38.9834 18.8456 38.8944 20.0391C38.9834 20.5645 39.3219 21.8203 40.0255 22.1766C40.3906 22.3547 40.8894 22.2745 41.5039 21.9361C42.3678 21.4641 43.4366 21.2058 44.5944 21.1791L44.6211 22.9069H44.6122C43.7483 22.9247 42.9467 23.1206 42.3233 23.4502C40.8983 24.2339 39.8562 24.0291 39.2328 23.7084C37.5495 22.8534 37.1933 20.4399 37.1577 20.1727C37.1488 20.1103 37.1488 20.0391 37.1577 19.9767C37.1933 19.6739 37.1844 19.282 36.9884 19.095C36.748 18.8724 36.2047 18.8813 35.982 18.9258C35.7059 18.9703 35.4388 18.8902 35.2339 18.712C35.038 18.525 34.9311 18.2578 34.9578 17.9906C35.323 14.3925 38.173 13.6533 38.2887 13.6266C38.4491 13.5909 38.6272 13.5909 38.7875 13.6533C39.6247 13.9472 39.9542 13.8581 39.9987 13.8225C40.1234 13.6978 40.0967 13.0744 39.9453 12.6202C39.9364 12.5845 39.9275 12.5489 39.9186 12.5133C39.8384 12.3708 39.2328 11.7474 38.6539 11.2753C38.3778 11.0438 38.2709 10.6697 38.3778 10.3313C38.4936 9.99282 38.4758 9.72563 38.3155 9.46735C37.79 8.59454 35.982 8.1136 35.2963 7.99782C31.7783 8.01563 31.1103 8.33626 30.9856 8.46985C30.9678 8.52329 30.9856 8.79048 30.9945 8.9597C31.0569 9.92157 31.1727 11.5425 28.6967 13.2881C28.4919 13.4306 28.2336 13.4841 27.9842 13.4217C27.4855 13.297 27.0045 13.0744 26.5058 12.8428C24.9561 12.1214 23.4955 11.4445 21.1353 13.208C20.0755 14.1253 19.0602 15.4613 19.1403 15.8531C19.5233 16.8684 19.4788 17.7858 19.4075 18.2934C19.7459 18.6586 20.3694 18.5072 20.3783 18.5072C20.6277 18.4449 20.8948 18.4983 21.0997 18.6497C21.3045 18.8011 21.4381 19.0416 21.447 19.2999C21.4559 19.478 21.5183 20.8674 21.2422 21.9895C21.4292 22.1766 21.7409 22.3725 22.2041 22.3102C22.5692 22.2478 22.9344 22.4438 23.1036 22.7733C23.54 23.6461 23.9764 25.5253 22.8542 26.977C23.2461 27.8766 24.1278 29.7825 25.0273 30.8424C25.2144 30.8334 25.4816 30.7177 25.7666 30.5039C26.9066 29.6667 27.8595 27.8766 27.815 27.0483C27.7972 26.7188 27.9664 26.407 28.2603 26.2467C28.5542 26.0864 28.9016 26.1042 29.1687 26.2913C29.1687 26.2913 29.7031 26.6297 30.2731 26.4694C30.8877 26.3002 31.333 25.5966 31.5913 25.0444C31.7248 24.7505 32.0188 24.5634 32.3394 24.5456C32.6778 24.5278 32.9628 24.697 33.1231 24.982C33.1944 25.1067 34.8509 28.0547 33.7911 31.2609C33.7644 31.3411 33.5417 31.8577 33.328 32.6058C33.2211 32.9531 32.8738 33.2025 32.4997 33.2025ZM13.4848 40.4789C13.2266 40.4789 12.9683 40.3631 12.7991 40.1405C12.5408 39.802 11.7481 38.7511 11.4542 38.5908C10.2162 37.905 9.12078 34.2713 8.5775 32.1694C8.55969 32.0892 8.55078 32.0002 8.55078 31.92C8.66656 29.0967 11.8016 27.645 11.9352 27.5827C12.1934 27.4669 12.4962 27.4847 12.7456 27.6272C12.9861 27.7786 13.1464 28.0369 13.1553 28.3219C13.1731 28.6069 14.037 29.0611 14.9277 29.257C15.8094 29.1324 17.2344 29.3728 17.8756 30.3436C18.1784 30.8067 18.5347 31.8042 17.4659 33.2559C17.1631 33.6745 17.0473 34.0575 17.1275 34.4227C17.2611 35.0728 17.9736 35.6072 18.2319 35.7586C18.3655 35.8388 18.4902 35.9545 18.5614 36.097C18.8998 36.7205 19.4698 37.4775 19.7994 37.62C20.2358 37.807 20.4406 38.3147 20.2447 38.76C20.0577 39.1964 19.55 39.4013 19.1047 39.2053C18.2141 38.8134 17.4481 37.6378 17.1453 37.1124C16.6911 36.8006 15.6936 36.008 15.4353 34.7789C15.3106 34.1822 15.3106 33.2559 16.0677 32.2228C16.4239 31.733 16.5041 31.3945 16.4328 31.2788C16.2725 31.0294 15.56 30.8602 15.1147 30.9581C14.9989 30.9849 14.8831 30.9849 14.7673 30.967C14.3666 30.8958 12.7367 30.5395 11.9173 29.5688C11.2583 30.023 10.3944 30.8067 10.2964 31.8488C10.9377 34.3158 11.8728 36.7383 12.3181 37.0678C12.8169 37.3439 13.3602 37.9852 14.1884 39.0717C14.4734 39.4547 14.4022 39.9891 14.0281 40.283C13.85 40.4166 13.6719 40.4789 13.4848 40.4789Z" fill="#E5B48A"/>
<path d="M13.5563 48.6548C6.69849 48.6548 3.35865 45.7069 1.77333 43.2398C-1.46854 38.2078 -0.23948 31.4836 5.24677 24.3051C5.54068 23.9222 6.07505 23.8509 6.45802 24.1448C6.84099 24.4298 6.91224 24.9731 6.61833 25.3561C3.7238 29.1591 -0.577917 36.4087 3.22505 42.3047C4.5788 44.4155 7.47333 46.927 13.5563 46.927C13.8858 46.927 14.2065 46.9181 14.5449 46.9003C21.0286 46.6242 29.1244 43.6317 36.766 38.6709C43.1518 34.5295 48.4777 29.4797 51.7641 24.4566C52.7082 23.0137 53.4741 21.5887 54.0441 20.2083C56.2172 14.9625 55.1218 11.4534 53.8215 9.44062C52.4677 7.33874 49.5732 4.82718 43.4902 4.82718C41.9494 4.82718 40.3285 4.98749 38.663 5.29921C38.191 5.38827 37.7457 5.07655 37.6566 4.60452C37.5676 4.13249 37.8793 3.68718 38.3513 3.59812C40.1236 3.26858 41.8515 3.09937 43.4991 3.09937C50.3658 3.09937 53.6968 6.03843 55.2821 8.50546C56.529 10.4381 58.23 14.6241 55.6472 20.8673C55.0416 22.3458 54.2222 23.8687 53.2158 25.4006C49.8047 30.6197 44.2918 35.8476 37.7101 40.1137C29.8191 45.2259 21.4027 48.3253 14.6251 48.6192C14.2688 48.6459 13.9126 48.6548 13.5563 48.6548Z" fill="#E5B48A"/>
<path d="M11.6676 40.5769C10.2693 40.5769 8.98682 40.4255 7.83792 40.1048C5.85182 39.5527 4.37338 38.5373 3.43823 37.1034C1.62135 34.2802 2.20026 30.1655 5.05917 25.5253C5.30854 25.1156 5.84292 24.9909 6.2437 25.2403C6.65338 25.4897 6.77807 26.0241 6.5287 26.4248C4.03495 30.4683 3.45604 33.9239 4.88995 36.1594C5.58463 37.2281 6.73354 37.9941 8.30104 38.4305C13.8496 39.9534 23.602 37.0767 32.5795 31.252C41.6639 25.3561 48.2901 17.5364 49.0649 11.8008C49.2787 10.26 49.0382 8.95969 48.3703 7.91766C46.9542 5.71782 43.6232 4.8361 38.9831 5.415C38.511 5.47735 38.0746 5.13891 38.0212 4.66688C37.9678 4.20375 38.2973 3.77625 38.7693 3.71391C44.1042 3.03703 48.0318 4.20375 49.822 6.99141C50.7215 8.38969 51.0421 10.0908 50.7749 12.0413C49.9199 18.3469 43.1512 26.4605 33.5146 32.7127C25.8018 37.718 17.706 40.5769 11.6676 40.5769Z" fill="#E5B48A"/>
</g>
<defs>
<clipPath id="clip0_419_6281">
<rect width="57" height="57" fill="white"/>
</clipPath>
</defs>
</svg>
