<svg width="249" height="73" viewBox="0 0 249 73" fill="none" xmlns="http://www.w3.org/2000/svg">
<g clip-path="url(#clip0_1178_11921)">
<path d="M99.4406 6.82318L91.0605 15.3196H127.966V6.82318H99.4406Z" fill="white"/>
<path d="M9.37008 59.8952V6.82318L0.455078 15.8671V68.3916H35.5901V59.8952H9.37008Z" fill="white"/>
<path d="M81.595 17.1652C79.8928 14.0421 77.394 11.4403 74.36 9.63198C71.06 7.7101 67.3048 6.73898 63.5 6.8235H42V15.3199H62C65.9267 15.3199 69.0617 16.3625 71.405 18.4477C73.7483 20.533 74.925 23.6203 74.935 27.7096C74.935 31.5692 73.7433 34.5838 71.36 36.7535C68.9767 38.9232 65.82 40.0064 61.89 40.003H50.89L42 48.9709V68.3919H50.92V48.5045H63.42C67.2421 48.5969 71.0181 47.6425 74.35 45.7416C77.4195 43.9772 79.9438 41.381 81.64 38.2439C83.3374 34.9911 84.2248 31.3669 84.2248 27.6868C84.2248 24.0068 83.3374 20.3825 81.64 17.1297L81.595 17.1652Z" fill="white"/>
<path d="M99.4397 59.8954L91.0547 68.3918H127.965V59.8954H99.4397Z" fill="white"/>
<path d="M99.4347 33.3622L91.0547 41.8586H127.965V33.3622H99.4347Z" fill="white"/>
<path d="M168.41 22.3918H159.195V6.52441H161.86V20.4806L161.4 19.8266H168.4L168.41 22.3918ZM173.97 22.6503C173.273 22.6822 172.579 22.5449 171.945 22.2498C171.482 22.0122 171.099 21.6397 170.845 21.1802C170.596 20.7051 170.427 20.191 170.345 19.6593C170.268 19.0643 170.23 18.4649 170.23 17.8648V11.021H172.9V18.1182C172.869 18.3934 172.897 18.6722 172.983 18.935C173.07 19.1978 173.212 19.4382 173.4 19.6391C173.742 19.8892 174.154 20.0208 174.575 20.0142C175.023 20.0134 175.466 19.9256 175.88 19.7557C176.323 19.585 176.735 19.3418 177.1 19.0358C177.457 18.7564 177.761 18.4127 177.995 18.0219L178.205 19.4667H177.6V11.021H180.265V22.3918H178.265L177.715 20.293H178.47C178.088 20.7613 177.648 21.1771 177.16 21.53C176.687 21.8791 176.169 22.1605 175.62 22.3664C175.09 22.5544 174.532 22.6503 173.97 22.6503ZM189.725 22.3918L187 18.0574H187.825L185.095 22.3918H181.97L186.22 16.1259L186.245 17.2666L182 11.021H185.125L187.86 15.3351H187L189.71 11.021H192.835L188.585 17.2666L188.61 16.1259L192.86 22.3918H189.725ZM197.975 22.6503C197.287 22.6785 196.602 22.5413 195.975 22.2498C195.511 22.0122 195.126 21.6399 194.87 21.1802C194.621 20.7052 194.452 20.1911 194.37 19.6593C194.293 19.0643 194.255 18.4649 194.255 17.8648V11.021H196.92V18.1182C196.889 18.3934 196.917 18.6722 197.003 18.935C197.09 19.1978 197.232 19.4382 197.42 19.6391C197.76 19.8892 198.171 20.0208 198.59 20.0142C199.039 20.0133 199.484 19.9255 199.9 19.7557C200.343 19.585 200.755 19.3418 201.12 19.0358C201.476 18.755 201.779 18.4116 202.015 18.0219L202.22 19.4667H201.65V11.021H204.315V22.3918H202.315L201.765 20.293H202.5C202.118 20.7613 201.678 21.1771 201.19 21.53C200.717 21.8791 200.199 22.1605 199.65 22.3664C199.12 22.5544 198.562 22.6503 198 22.6503H197.975ZM209.025 11.021L209.69 14.1235V22.3918H207.025V11.021H209.025ZM209.21 15.401L208.655 15.1475V13.1198L208.865 12.8409C209.069 12.5124 209.316 12.2139 209.6 11.9538C209.949 11.6195 210.343 11.3378 210.77 11.1173C211.203 10.8906 211.683 10.7708 212.17 10.7675C212.386 10.7665 212.602 10.7818 212.815 10.8132C212.992 10.8272 213.163 10.8828 213.315 10.9754V13.4239H212.575C211.787 13.3782 211.002 13.5536 210.305 13.9309C209.771 14.2643 209.381 14.7891 209.21 15.401ZM218.5 21.1548L214.04 11.0159H216.795L220.84 20.2221L218.5 21.1548ZM215.74 26.8174L222.705 11.021H225.46L218.5 26.8174H215.74ZM161.33 37.9296H164.435C165.255 37.9749 166.061 37.699 166.685 37.1591C166.973 36.8865 167.199 36.5532 167.345 36.1827C167.492 35.8121 167.557 35.4134 167.535 35.0147C167.565 34.6076 167.506 34.1989 167.364 33.8171C167.221 33.4353 166.998 33.0897 166.71 32.8044C166.076 32.28 165.272 32.0142 164.455 32.0592H161.33L161.86 31.4509V45.3614H159.195V29.4941H164.775C165.789 29.4678 166.79 29.7182 167.675 30.219C168.489 30.6716 169.159 31.3505 169.605 32.1758C170.073 33.0457 170.309 34.0241 170.29 35.0147C170.306 36.0065 170.07 36.9858 169.605 37.8586C169.152 38.6722 168.484 39.3412 167.675 39.7901C166.784 40.272 165.785 40.5129 164.775 40.4897H161.33V37.9296ZM174.085 33.9907L174.755 37.0881V45.3614H172.09V33.9907H174.085ZM174.27 38.3707L173.72 38.1121V36.0843L173.925 35.8055C174.13 35.4774 174.377 35.179 174.66 34.9184C175.011 34.5837 175.407 34.3005 175.835 34.0768C176.27 33.854 176.749 33.736 177.235 33.7321C177.451 33.7311 177.667 33.7464 177.88 33.7777C178.057 33.7899 178.229 33.8456 178.38 33.94V36.3834H177.645C176.855 36.3375 176.068 36.5129 175.37 36.8904C174.834 37.2276 174.442 37.7555 174.27 38.3707ZM184.615 45.625C183.559 45.6484 182.514 45.3915 181.585 44.8798C180.725 44.3975 180.016 43.6789 179.54 42.8064C179.07 41.839 178.826 40.7749 178.826 39.6963C178.826 38.6178 179.07 37.5537 179.54 36.5862C180.011 35.7046 180.72 34.978 181.585 34.4925C182.523 34.003 183.563 33.7475 184.618 33.7475C185.673 33.7475 186.712 34.003 187.65 34.4925C188.505 34.9769 189.2 35.7049 189.65 36.5862C190.133 37.5498 190.385 38.6154 190.385 39.6963C190.385 40.7772 190.133 41.8428 189.65 42.8064C189.194 43.678 188.5 44.3979 187.65 44.8798C186.72 45.391 185.674 45.6478 184.615 45.625ZM184.615 43.0193C185.03 43.0362 185.443 42.9635 185.827 42.8062C186.212 42.6489 186.559 42.4105 186.845 42.1068C187.428 41.4413 187.732 40.5725 187.695 39.6836C187.734 38.8021 187.429 37.9404 186.845 37.2858C186.562 36.9764 186.216 36.7328 185.831 36.5718C185.446 36.4107 185.031 36.3361 184.615 36.353C184.202 36.3363 183.79 36.4085 183.407 36.5649C183.023 36.7213 182.677 36.9584 182.39 37.2605C181.802 37.9223 181.496 38.7937 181.54 39.6836C181.5 40.573 181.806 41.4427 182.39 42.1068C182.677 42.4088 183.023 42.6454 183.407 42.801C183.791 42.9566 184.203 43.0276 184.615 43.0092V43.0193ZM198.275 45.625C197.356 45.6649 196.447 45.4211 195.668 44.926C194.889 44.4309 194.276 43.7078 193.91 42.852C193.501 41.8561 193.29 40.7879 193.29 39.709C193.29 38.6301 193.501 37.5619 193.91 36.5659C194.29 35.7232 194.894 35.005 195.655 34.4925C196.437 33.9874 197.349 33.7281 198.275 33.7473C199.234 33.7154 200.181 33.9673 201 34.4723C201.791 34.9794 202.421 35.7061 202.815 36.5659C203.237 37.5469 203.455 38.6057 203.455 39.676C203.455 40.7464 203.237 41.8052 202.815 42.7861C202.416 43.6374 201.787 44.3564 201 44.8596C200.184 45.3752 199.237 45.641 198.275 45.625ZM192.415 49.7972V33.9907H194.415L195.085 36.4848H194.855V42.5682H195.085V49.7921L192.415 49.7972ZM197.84 43.2069C198.237 43.219 198.631 43.1395 198.994 42.9744C199.356 42.8092 199.676 42.5629 199.93 42.2539C200.488 41.533 200.773 40.6343 200.735 39.7191C200.777 38.7942 200.491 37.8846 199.93 37.154C199.68 36.8389 199.361 36.5867 198.998 36.417C198.636 36.2473 198.239 36.1647 197.84 36.1756C197.442 36.1685 197.047 36.2527 196.685 36.4222C196.323 36.5916 196.003 36.8418 195.75 37.154C195.189 37.8724 194.903 38.7729 194.945 39.6887C194.903 40.6137 195.189 41.5235 195.75 42.2539C196.008 42.5573 196.33 42.7988 196.691 42.961C197.053 43.1232 197.445 43.202 197.84 43.1917V43.2069ZM210 45.5946C208.989 45.6165 207.99 45.3664 207.105 44.8697C206.28 44.3733 205.605 43.6559 205.155 42.7963C204.678 41.837 204.441 40.7731 204.465 39.6989C204.439 38.6163 204.676 37.5437 205.155 36.5761C205.6 35.7076 206.276 34.9825 207.105 34.4824C207.986 33.9724 208.986 33.7148 210 33.7372C211.025 33.7115 212.036 33.9766 212.92 34.5027C213.757 34.9961 214.434 35.7252 214.87 36.6014C215.346 37.5525 215.583 38.6076 215.56 39.6735C215.568 39.8137 215.568 39.9541 215.56 40.0943C215.56 40.2198 215.552 40.3451 215.535 40.4694H206.815V38.2997H213.55L213 39.5417C213.041 38.6073 212.783 37.6846 212.265 36.9107C212.007 36.5673 211.668 36.2948 211.28 36.1177C210.891 35.9407 210.465 35.8647 210.04 35.8968C209.641 35.8778 209.242 35.9447 208.869 36.0933C208.497 36.2418 208.16 36.4685 207.88 36.7586C207.339 37.3724 207.057 38.177 207.095 38.9993V40.2311C207.055 41.0738 207.336 41.8998 207.88 42.5377C208.171 42.8239 208.517 43.046 208.896 43.19C209.276 43.3339 209.681 43.3966 210.085 43.3742C210.775 43.4182 211.46 43.2312 212.035 42.8419C212.517 42.4772 212.931 42.0273 213.255 41.5137L215.165 42.6797C214.708 43.5889 214.006 44.3482 213.14 44.8697C212.176 45.391 211.092 45.6413 210 45.5946ZM219.56 33.9907L220.225 37.0881V45.3614H217.56V33.9907H219.56ZM219.745 38.3707L219.19 38.1121V36.0843L219.4 35.8055C219.601 35.4751 219.849 35.1762 220.135 34.9184C220.484 34.5826 220.878 34.2992 221.305 34.0768C221.741 33.8539 222.222 33.736 222.71 33.7321C222.924 33.7311 223.138 33.7463 223.35 33.7777C223.527 33.7918 223.698 33.8474 223.85 33.94V36.3834H223.115C222.325 36.3375 221.538 36.5129 220.84 36.8904C220.31 37.2304 219.923 37.7579 219.755 38.3707H219.745ZM230.275 45.5693C229.344 45.6196 228.43 45.3015 227.725 44.6821C227.115 44.0789 226.805 43.1309 226.805 41.8432V33.9907L227.305 31.3596H229.5V41.61C229.486 41.794 229.509 41.9791 229.568 42.1536C229.628 42.328 229.722 42.4882 229.845 42.6239C230.09 42.8464 230.412 42.9628 230.74 42.9484C230.964 42.9499 231.188 42.9346 231.41 42.9027C231.588 42.8765 231.763 42.8376 231.935 42.7861V45.3209C231.696 45.4036 231.45 45.4663 231.2 45.5084C230.898 45.5571 230.591 45.5775 230.285 45.5693H230.275ZM225.085 36.4443V33.9755H231.905V36.4443H225.085ZM237.78 44.1042L233.32 33.9653H236.075L240.12 43.1664L237.78 44.1042ZM235 49.7871L242 33.9907H244.76L237.8 49.7871H235ZM161.15 61.6394V59.0793H167.515V61.6394H161.15ZM161.08 55.0238L161.84 54.0454V66.4858L161 65.7659H168.88V68.326H159.195V52.4637H168.865V54.9984L161.08 55.0238ZM178.08 68.326L175.345 63.9967H176.175L173.44 68.326H170.315L174.565 62.0602L174.59 63.2008L170.34 56.9603H173.5L176.23 61.2693H175.38L178.095 56.9603H181.22L176.97 63.2008V62.0602L181.22 68.326H178.08ZM188.74 68.5845C187.81 68.6058 186.893 68.3541 186.1 67.8596C185.348 67.362 184.75 66.6591 184.375 65.8318C183.966 64.835 183.756 63.766 183.756 62.6862C183.756 61.6065 183.966 60.5375 184.375 59.5407C184.756 58.6975 185.363 57.9792 186.125 57.4673C186.905 56.9616 187.815 56.7023 188.74 56.722C189.688 56.6914 190.623 56.9449 191.429 57.4509C192.234 57.9568 192.875 58.6925 193.27 59.566C193.693 60.547 193.91 61.6058 193.91 62.6761C193.91 63.7464 193.693 64.8052 193.27 65.7862C192.87 66.6366 192.24 67.3552 191.455 67.8596C190.643 68.3555 189.708 68.6069 188.76 68.5845H188.74ZM182.885 72.7516V56.9603H184.885L185.555 59.4494H185.325V65.5327H185.555V72.7516H182.885ZM188.305 66.1614C188.702 66.1734 189.096 66.0939 189.459 65.9288C189.821 65.7637 190.141 65.5173 190.395 65.2083C190.919 64.463 191.2 63.5708 191.2 62.6558C191.2 61.7409 190.919 60.8487 190.395 60.1034C190.145 59.7874 189.827 59.5345 189.464 59.3647C189.101 59.1949 188.705 59.1129 188.305 59.125C187.907 59.1167 187.511 59.2005 187.149 59.37C186.787 59.5395 186.468 59.7903 186.215 60.1034C185.654 60.8218 185.368 61.7223 185.41 62.6381C185.369 63.563 185.654 64.4726 186.215 65.2032C186.474 65.513 186.797 65.76 187.163 65.9258C187.528 66.0917 187.925 66.1722 188.325 66.1614H188.305ZM200.75 68.5845C199.694 68.6067 198.649 68.3499 197.72 67.8393C196.861 67.3557 196.152 66.6374 195.675 65.7659C195.205 64.7985 194.961 63.7344 194.961 62.6558C194.961 61.5773 195.205 60.5132 195.675 59.5457C196.146 58.6628 196.855 57.9345 197.72 57.447C198.658 56.9574 199.698 56.702 200.753 56.702C201.808 56.702 202.847 56.9574 203.785 57.447C204.639 57.935 205.334 58.6643 205.785 59.5457C206.265 60.5103 206.515 61.5755 206.515 62.6558C206.515 63.7362 206.265 64.8014 205.785 65.7659C205.327 66.636 204.633 67.3553 203.785 67.8393C202.86 68.3471 201.822 68.6038 200.77 68.5845H200.75ZM200.75 65.9738C201.164 65.9903 201.577 65.918 201.961 65.7616C202.345 65.6052 202.693 65.3683 202.98 65.0664C203.564 64.4017 203.869 63.5323 203.83 62.6432C203.851 62.2064 203.787 61.7698 203.641 61.3583C203.495 60.9468 203.271 60.5686 202.98 60.2453C202.697 59.9359 202.351 59.6923 201.966 59.5313C201.581 59.3703 201.166 59.2956 200.75 59.3125C200.337 59.2964 199.926 59.3689 199.542 59.5253C199.159 59.6817 198.812 59.9184 198.525 60.22C197.937 60.8818 197.631 61.7532 197.675 62.6432C197.637 63.5323 197.942 64.4017 198.525 65.0664C198.815 65.3705 199.164 65.6088 199.551 65.7652C199.938 65.9217 200.354 65.9928 200.77 65.9738H200.75Z" fill="white"/>
<path d="M244.55 1.03926C245.351 1.3855 246.079 1.88459 246.695 2.5094C247.311 3.13645 247.805 3.87608 248.15 4.68926C248.504 5.53562 248.683 6.44667 248.675 7.36593C248.686 8.26329 248.516 9.15343 248.175 9.98176C247.836 10.7933 247.348 11.5316 246.735 12.1566C246.123 12.7892 245.394 13.2939 244.59 13.6419C243.762 13.9965 242.872 14.1791 241.973 14.1791C241.073 14.1791 240.183 13.9965 239.355 13.6419C237.741 12.9337 236.457 11.6232 235.77 9.98176C235.429 9.15343 235.259 8.26329 235.27 7.36593C235.264 6.44631 235.444 5.53525 235.8 4.68926C236.488 3.04893 237.774 1.74132 239.39 1.03926C240.211 0.68467 241.095 0.501892 241.988 0.501892C242.88 0.501892 243.764 0.68467 244.585 1.03926H244.55ZM244.44 11.7814C245.179 11.3408 245.791 10.7115 246.215 9.95641C246.66 9.16842 246.888 8.27377 246.875 7.36593C246.89 6.44985 246.662 5.54656 246.215 4.7501C245.791 3.99497 245.179 3.36574 244.44 2.92509C243.684 2.48672 242.828 2.25612 241.958 2.25612C241.087 2.25612 240.231 2.48672 239.475 2.92509C238.733 3.36717 238.117 3.99577 237.685 4.7501C237.231 5.54382 236.999 6.44836 237.015 7.36593C237.001 8.27526 237.232 9.17118 237.685 9.95641C238.117 10.7107 238.733 11.3393 239.475 11.7814C240.231 12.2198 241.087 12.4504 241.958 12.4504C242.828 12.4504 243.684 12.2198 244.44 11.7814ZM241.86 8.77523C242.622 8.81839 243.376 8.59468 243.995 8.14155C244.246 7.90928 244.446 7.62659 244.583 7.3115C244.72 6.99641 244.791 6.65583 244.791 6.31148C244.791 5.96713 244.72 5.62656 244.583 5.31147C244.446 4.99638 244.246 4.71369 243.995 4.48141C243.372 4.03773 242.62 3.81985 241.86 3.86294H239.535V10.5749H241.14V4.81093L240.59 5.39391H241.955C242.74 5.39391 243.135 5.70315 243.135 6.31655C243.135 6.92996 242.74 7.24426 241.955 7.24426H240.685V8.7651L241.86 8.77523ZM243.23 7.89822H241.455L242.955 10.5749H244.685L243.23 7.89822Z" fill="white"/>
</g>
<defs>
<clipPath id="clip0_1178_11921">
<rect width="249" height="73" fill="white"/>
</clipPath>
</defs>
</svg>
