<svg width="58" height="70" viewBox="0 0 58 70" fill="none" xmlns="http://www.w3.org/2000/svg">
<circle cx="18" cy="18" r="17" stroke="white" stroke-width="2"/>
<mask id="mask0_410_1709" style="mask-type:alpha" maskUnits="userSpaceOnUse" x="0" y="0" width="36" height="36">
<circle cx="18" cy="18" r="18" fill="#1B4A81"/>
</mask>
<g mask="url(#mask0_410_1709)">
<path d="M5.99761 17.8037C5.40557 15.3645 6.90299 12.9072 9.34219 12.3152L36.4607 5.73304C38.8999 5.14101 41.3572 6.63842 41.9492 9.07762C42.5412 11.5168 41.0438 13.9741 38.6046 14.5661L11.4861 21.1483C9.04694 21.7403 6.58964 20.2429 5.99761 17.8037Z" fill="white"/>
<path d="M26.6665 42.5504C24.242 41.9007 22.8032 39.4086 23.4528 36.9842L30.6754 10.0292C31.3251 7.60468 33.8171 6.16588 36.2416 6.81552C38.6661 7.46516 40.1049 9.95723 39.4553 12.3817L32.2327 39.3367C31.5831 41.7612 29.091 43.2 26.6665 42.5504Z" fill="white"/>
<path d="M5.07765 39.2605C3.28744 37.2368 3.4767 34.145 5.50038 32.3548L25.8812 14.3253C27.9049 12.5351 30.9967 12.7244 32.7869 14.748C34.5771 16.7717 34.3878 19.8635 32.3641 21.6537L11.9833 39.6832C9.95961 41.4734 6.86785 41.2842 5.07765 39.2605Z" fill="white"/>
</g>
<rect x="22" y="64.1604" width="31.9395" height="10.8445" rx="5.42224" transform="rotate(-60 22 64.1604)" fill="white"/>
<rect x="22" y="64.1604" width="10.7955" height="10.8445" rx="5.39775" transform="rotate(-60 22 64.1604)" fill="#8B8B8B"/>
<rect width="31.9395" height="10.8445" rx="5.42224" transform="matrix(-0.5 -0.866025 -0.866025 0.5 58 64.1604)" fill="#8B8B8B"/>
</svg>
