<svg width="58" height="58" viewBox="0 0 58 58" fill="none" xmlns="http://www.w3.org/2000/svg">
<g clip-path="url(#clip0_410_1681)">
<path d="M11.4779 58.0001C11.3189 58.0002 11.1617 57.9666 11.0167 57.9015C10.88 57.8412 10.7565 57.7546 10.6535 57.6464C10.5504 57.5383 10.4697 57.4108 10.4161 57.2714L6.8769 48.092C6.82318 47.9527 6.79743 47.8041 6.80113 47.6548C6.80483 47.5054 6.83791 47.3583 6.89847 47.2218C6.95903 47.0852 7.04589 46.962 7.15409 46.859C7.26229 46.756 7.38972 46.6754 7.52909 46.6216C7.66846 46.5679 7.81705 46.5422 7.96637 46.5459C8.11569 46.5496 8.26282 46.5826 8.39936 46.6432C8.5359 46.7038 8.65918 46.7906 8.76214 46.8988C8.86511 47.007 8.94577 47.1345 8.99949 47.2738L12.1261 55.3925L14.5955 54.4405L11.4689 46.3185C11.3604 46.037 11.3681 45.724 11.4904 45.4482C11.6127 45.1725 11.8396 44.9566 12.121 44.8481C12.4025 44.7396 12.7156 44.7474 12.9913 44.8697C13.2671 44.992 13.4829 45.2188 13.5914 45.5003L17.1306 54.6796C17.1853 54.8192 17.2118 54.9681 17.2086 55.118C17.2053 55.2678 17.1724 55.4155 17.1117 55.5525C17.051 55.6895 16.9637 55.8131 16.8549 55.9162C16.7461 56.0192 16.6179 56.0997 16.4778 56.1529L11.887 57.9219C11.7567 57.973 11.6179 57.9995 11.4779 58.0001Z" fill="white"/>
<path d="M6.16589 49.1493C4.75165 49.1479 3.38244 48.652 2.29535 47.7473C1.20826 46.8427 0.471752 45.5865 0.213358 44.196C-0.0450362 42.8056 0.190956 41.3686 0.88047 40.1338C1.56998 38.899 2.6696 37.9443 3.9889 37.4349L10.8791 34.7797C11.0186 34.7249 11.1676 34.6984 11.3174 34.7017C11.4672 34.7049 11.6149 34.7379 11.7519 34.7986C11.889 34.8593 12.0126 34.9466 12.1156 35.0554C12.2187 35.1641 12.2991 35.2923 12.3523 35.4324L15.8915 44.6118C15.9462 44.7512 15.9728 44.9001 15.9696 45.0499C15.9664 45.1997 15.9336 45.3473 15.873 45.4843C15.8124 45.6213 15.7253 45.745 15.6166 45.8481C15.5079 45.9512 15.3799 46.0317 15.2399 46.085L8.34627 48.7402C7.65096 49.01 6.9117 49.1487 6.16589 49.1493ZM10.6332 37.3113L4.80711 39.5575C4.33272 39.728 3.89719 39.9916 3.5261 40.3328C3.15501 40.674 2.85583 41.0859 2.64614 41.5444C2.43646 42.0028 2.32049 42.4985 2.30505 43.0024C2.2896 43.5063 2.375 44.0081 2.55622 44.4785C2.73743 44.949 3.01082 45.3784 3.36033 45.7417C3.70983 46.105 4.1284 46.3948 4.59145 46.5941C5.05451 46.7933 5.55271 46.8981 6.05681 46.9021C6.5609 46.9062 7.06073 46.8094 7.52693 46.6176L13.353 44.3727L10.6332 37.3113Z" fill="white"/>
<path d="M10.2338 47.9366C10.004 47.9363 9.77959 47.8666 9.5901 47.7366C9.40061 47.6065 9.25484 47.4223 9.17192 47.2079L5.63276 38.0286C5.52426 37.7471 5.53202 37.434 5.65433 37.1583C5.77664 36.8825 6.00348 36.6667 6.28495 36.5582C6.56642 36.4497 6.87947 36.4574 7.15522 36.5797C7.43097 36.702 7.64685 36.9289 7.75535 37.2104L11.2945 46.3897C11.3492 46.5292 11.3757 46.6782 11.3725 46.828C11.3692 46.9779 11.3363 47.1256 11.2756 47.2626C11.2149 47.3996 11.1276 47.5232 11.0188 47.6263C10.91 47.7293 10.7819 47.8098 10.6417 47.863C10.5115 47.9126 10.3732 47.9376 10.2338 47.9366ZM28.9586 48.6245C28.8928 48.6244 28.8272 48.6187 28.7625 48.6075L14.6297 46.1449C14.3326 46.0932 14.0682 45.9256 13.8946 45.679C13.7211 45.4324 13.6527 45.1269 13.7044 44.8298C13.7561 44.5327 13.9237 44.2683 14.1703 44.0948C14.4169 43.9212 14.7224 43.8528 15.0195 43.9045L27.1748 46.0225L19.7713 26.8127L12.1784 36.5406C12.0865 36.6583 11.9724 36.7568 11.8424 36.8304C11.7125 36.904 11.5693 36.9512 11.4211 36.9695C11.2728 36.9878 11.1225 36.9766 10.9786 36.9368C10.8346 36.8969 10.7 36.8291 10.5823 36.7372C10.4645 36.6453 10.3661 36.5311 10.2925 36.4012C10.2189 36.2712 10.1716 36.1281 10.1534 35.9798C10.1351 35.8316 10.1462 35.6813 10.1861 35.5373C10.2259 35.3934 10.2937 35.2587 10.3856 35.141L19.2092 23.83C19.3322 23.67 19.4957 23.5458 19.6828 23.4702C19.87 23.3946 20.0739 23.3704 20.2735 23.3999C20.4731 23.4295 20.6612 23.5119 20.8184 23.6385C20.9756 23.7651 21.096 23.9314 21.1674 24.1201L30.0193 47.0787C30.0866 47.2509 30.1107 47.437 30.0896 47.6206C30.0685 47.8043 30.0028 47.98 29.8982 48.1325C29.7936 48.2849 29.6533 48.4094 29.4895 48.4952C29.3257 48.581 29.1434 48.6254 28.9586 48.6245Z" fill="white"/>
<path d="M23.3052 47.6398C23.0753 47.6403 22.8508 47.5708 22.6613 47.4407C22.4719 47.3105 22.3265 47.1259 22.2444 46.9112L15.5254 29.4647C15.4717 29.3254 15.4459 29.1769 15.4496 29.0276C15.4532 28.8784 15.4863 28.7313 15.5468 28.5948C15.6073 28.4583 15.6941 28.3351 15.8022 28.2322C15.9104 28.1292 16.0377 28.0486 16.177 27.9949C16.4583 27.8864 16.7712 27.8941 17.0469 28.0163C17.1834 28.0768 17.3066 28.1636 17.4095 28.2717C17.5125 28.3798 17.5931 28.5072 17.6468 28.6465L24.3716 46.0986C24.4391 46.2709 24.4634 46.457 24.4424 46.6409C24.4214 46.8247 24.3558 47.0006 24.2511 47.1532C24.1465 47.3057 24.0061 47.4304 23.8422 47.5162C23.6783 47.602 23.4959 47.6464 23.3108 47.6455L23.3052 47.6398ZM25.8618 40.5899C25.5933 40.5953 25.3316 40.5053 25.1233 40.3357C24.915 40.1662 24.7737 39.9282 24.7246 39.6642C24.6754 39.4001 24.7217 39.1272 24.855 38.8941C24.9884 38.661 25.2002 38.4828 25.4527 38.3913L26.6007 37.9494C26.9136 37.8288 27.1997 37.6477 27.4426 37.4165C27.6855 37.1853 27.8805 36.9086 28.0165 36.602C28.1524 36.2955 28.2267 35.9652 28.235 35.6299C28.2433 35.2947 28.1855 34.9611 28.0648 34.6482C27.9442 34.3353 27.7632 34.0492 27.532 33.8063C27.3008 33.5634 27.024 33.3684 26.7175 33.2324C26.411 33.0965 26.0806 33.0222 25.7454 33.0139C25.4102 33.0056 25.0766 33.0634 24.7637 33.184L23.6157 33.626C23.4764 33.6797 23.3279 33.7053 23.1787 33.7016C23.0294 33.6979 22.8824 33.6648 22.746 33.6042C22.6095 33.5436 22.4864 33.4568 22.3835 33.3486C22.2806 33.2405 22.2001 33.1131 22.1464 32.9738C22.0928 32.8345 22.0671 32.686 22.0708 32.5368C22.0746 32.3876 22.1077 32.2405 22.1682 32.1041C22.2288 31.9677 22.3156 31.8445 22.4238 31.7416C22.5319 31.6388 22.6593 31.5582 22.7986 31.5046L23.9466 31.0626C25.1412 30.6014 26.47 30.6336 27.6408 31.1522C28.8116 31.6707 29.7285 32.6332 30.1897 33.8277C30.6509 35.0223 30.6187 36.3511 30.1001 37.522C29.5816 38.6928 28.6191 39.6096 27.4246 40.0708L26.2766 40.5139C26.1441 40.5645 26.0035 40.5902 25.8618 40.5899Z" fill="white"/>
<path d="M43.2151 40.9412C40.7408 40.9412 38.3222 40.2075 36.2649 38.8328C34.2076 37.4582 32.6042 35.5044 31.6574 33.2185C30.7105 30.9326 30.4628 28.4173 30.9455 25.9906C31.4282 23.5639 32.6196 21.3348 34.3692 19.5852C36.1187 17.8357 38.3478 16.6442 40.7745 16.1615C43.2012 15.6788 45.7166 15.9266 48.0025 16.8734C50.2884 17.8203 52.2422 19.4237 53.6168 21.481C54.9914 23.5382 55.7251 25.9569 55.7251 28.4312C55.7215 31.7479 54.4023 34.9278 52.057 37.2731C49.7117 39.6184 46.5318 40.9376 43.2151 40.9412ZM43.2151 18.1956C41.1906 18.1954 39.2116 18.7955 37.5282 19.92C35.8448 21.0446 34.5327 22.6431 33.7579 24.5134C32.983 26.3837 32.7801 28.4417 33.1749 30.4273C33.5697 32.4129 34.5445 34.2368 35.9759 35.6684C37.4073 37.1 39.2311 38.0749 41.2167 38.47C43.2022 38.865 45.2603 38.6624 47.1307 37.8877C49.001 37.113 50.5997 35.8011 51.7244 34.1178C52.8492 32.4346 53.4495 30.4556 53.4495 28.4312C53.4462 25.7177 52.3669 23.1164 50.4483 21.1976C48.5298 19.2788 45.9285 18.1992 43.2151 18.1956Z" fill="white"/>
<path d="M43.2162 36.3922C41.6416 36.3924 40.1022 35.9257 38.7929 35.0511C37.4835 34.1764 36.463 32.9331 35.8602 31.4785C35.2575 30.0238 35.0997 28.423 35.4067 26.8786C35.7138 25.3343 36.4719 23.9156 37.5853 22.8021C38.6986 21.6886 40.1171 20.9303 41.6615 20.623C43.2058 20.3158 44.8066 20.4733 46.2614 21.0759C47.7161 21.6784 48.9595 22.6988 49.8344 24.008C50.7092 25.3172 51.1761 26.8565 51.1761 28.4311C51.1737 30.5416 50.3344 32.565 48.8421 34.0574C47.3499 35.5498 45.3266 36.3895 43.2162 36.3922ZM43.2162 22.7444C42.0914 22.7442 40.9918 23.0775 40.0565 23.7022C39.1212 24.327 38.3921 25.215 37.9616 26.2541C37.531 27.2932 37.4182 28.4366 37.6375 29.5398C37.8568 30.643 38.3983 31.6564 39.1935 32.4518C39.9888 33.2472 41.0021 33.7889 42.1052 34.0084C43.2083 34.2279 44.3518 34.1154 45.391 33.685C46.4301 33.2546 47.3183 32.5257 47.9432 31.5906C48.5682 30.6554 48.9017 29.5559 48.9017 28.4311C48.8999 26.9236 48.3003 25.4784 47.2345 24.4124C46.1687 23.3464 44.7236 22.7465 43.2162 22.7444Z" fill="white"/>
<path d="M43.2146 26.1566C42.9141 26.1566 42.6258 26.0372 42.4133 25.8247C42.2008 25.6122 42.0814 25.3239 42.0814 25.0234V14.7844C42.0814 14.4828 42.2012 14.1935 42.4145 13.9803C42.6277 13.767 42.917 13.6472 43.2186 13.6472C43.5202 13.6472 43.8095 13.767 44.0227 13.9803C44.236 14.1935 44.3558 14.4828 44.3558 14.7844V25.0188C44.3564 25.1687 44.3273 25.3172 44.2701 25.4557C44.2129 25.5943 44.1288 25.7201 44.0227 25.8259C43.9166 25.9317 43.7905 26.0154 43.6518 26.0722C43.5131 26.129 43.3645 26.1577 43.2146 26.1566ZM39.8024 29.5688H29.568C29.2664 29.5688 28.9771 29.449 28.7638 29.2358C28.5506 29.0225 28.4308 28.7332 28.4308 28.4316C28.4308 28.13 28.5506 27.8407 28.7638 27.6275C28.9771 27.4142 29.2664 27.2944 29.568 27.2944H39.8024C40.104 27.2944 40.3933 27.4142 40.6065 27.6275C40.8198 27.8407 40.9396 28.13 40.9396 28.4316C40.9396 28.7332 40.8198 29.0225 40.6065 29.2358C40.3933 29.449 40.104 29.5688 39.8024 29.5688ZM43.2146 43.2155C42.9141 43.2155 42.6258 43.0961 42.4133 42.8836C42.2008 42.671 42.0814 42.3828 42.0814 42.0822V31.8444C42.0814 31.5428 42.2012 31.2535 42.4145 31.0403C42.6277 30.827 42.917 30.7072 43.2186 30.7072C43.5202 30.7072 43.8095 30.827 44.0227 31.0403C44.236 31.2535 44.3558 31.5428 44.3558 31.8444V42.0777C44.3564 42.2276 44.3273 42.3761 44.2701 42.5146C44.2129 42.6532 44.1288 42.779 44.0227 42.8848C43.9166 42.9906 43.7905 43.0743 43.6518 43.1311C43.5131 43.1879 43.3645 43.2165 43.2146 43.2155ZM56.8613 29.5688H46.6257C46.3241 29.5688 46.0349 29.449 45.8216 29.2358C45.6083 29.0225 45.4885 28.7332 45.4885 28.4316C45.4885 28.13 45.6083 27.8407 45.8216 27.6275C46.0349 27.4142 46.3241 27.2944 46.6257 27.2944H56.8613C57.1629 27.2944 57.4522 27.4142 57.6654 27.6275C57.8787 27.8407 57.9985 28.13 57.9985 28.4316C57.9985 28.7332 57.8787 29.0225 57.6654 29.2358C57.4522 29.449 57.1629 29.5688 56.8613 29.5688ZM13.6469 15.9222C13.4257 15.9229 13.2091 15.859 13.0239 15.7382C12.8386 15.6173 12.6927 15.4449 12.6043 15.2422L9.66574 8.52316L6.72721 15.24C6.60699 15.5163 6.38191 15.7336 6.10148 15.844C5.82105 15.9544 5.50825 15.9489 5.23188 15.8287C4.95552 15.7085 4.73823 15.4834 4.62783 15.203C4.51742 14.9225 4.52293 14.6097 4.64316 14.3334L8.62428 5.22992C8.71169 5.02616 8.85695 4.85253 9.04207 4.73051C9.22719 4.60849 9.44403 4.54346 9.66574 4.54346C9.88746 4.54346 10.1043 4.60849 10.2894 4.73051C10.4745 4.85253 10.6198 5.02616 10.7072 5.22992L14.6883 14.3288C14.7633 14.5019 14.7942 14.6909 14.7782 14.8789C14.7622 15.0669 14.6998 15.248 14.5966 15.4059C14.4933 15.5638 14.3525 15.6936 14.1868 15.7837C14.021 15.8739 13.8355 15.9214 13.6469 15.9222Z" fill="white"/>
<path d="M12.6515 13.6467H6.68605C6.38444 13.6467 6.09518 13.5269 5.88191 13.3136C5.66864 13.1003 5.54883 12.8111 5.54883 12.5095C5.54883 12.2078 5.66864 11.9186 5.88191 11.7053C6.09518 11.4921 6.38444 11.3722 6.68605 11.3722H12.656C12.9576 11.3722 13.2469 11.4921 13.4602 11.7053C13.6734 11.9186 13.7933 12.2078 13.7933 12.5095C13.7933 12.8111 13.6734 13.1003 13.4602 13.3136C13.2469 13.5269 12.9576 13.6467 12.656 13.6467H12.6515ZM20.4698 15.9211H18.1954C17.8948 15.9211 17.6066 15.8017 17.3941 15.5892C17.1815 15.3767 17.0621 15.0884 17.0621 14.7879V5.68669C17.0621 5.38614 17.1815 5.09789 17.3941 4.88536C17.6066 4.67284 17.8948 4.55344 18.1954 4.55344H20.4698C21.2233 4.5428 21.9714 4.68202 22.6706 4.963C23.3698 5.24398 24.0061 5.66112 24.5427 6.19018C25.0793 6.71924 25.5054 7.34966 25.7962 8.04482C26.087 8.73998 26.2368 9.48601 26.2368 10.2395C26.2368 10.9931 26.087 11.7391 25.7962 12.4343C25.5054 13.1294 25.0793 13.7599 24.5427 14.2889C24.0061 14.818 23.3698 15.2351 22.6706 15.5161C21.9714 15.7971 21.2233 15.9363 20.4698 15.9257V15.9211ZM19.3366 13.6467H20.4698C20.9231 13.6549 21.3735 13.5728 21.7946 13.4051C22.2158 13.2373 22.5993 12.9873 22.9227 12.6697C23.2462 12.3521 23.5031 11.9732 23.6785 11.5552C23.8539 11.1371 23.9442 10.6883 23.9442 10.235C23.9442 9.78168 23.8539 9.33289 23.6785 8.91486C23.5031 8.49683 23.2462 8.11794 22.9227 7.80032C22.5993 7.4827 22.2158 7.23271 21.7946 7.06497C21.3735 6.89723 20.9231 6.81509 20.4698 6.82335H19.3366V13.6467ZM31.8443 15.9211H29.5687C29.2671 15.9211 28.9779 15.8013 28.7646 15.588C28.5513 15.3748 28.4315 15.0855 28.4315 14.7839C28.4315 14.4823 28.5513 14.193 28.7646 13.9798C28.9779 13.7665 29.2671 13.6467 29.5687 13.6467H31.8443C32.1459 13.6467 32.4352 13.5269 32.6485 13.3136C32.8617 13.1003 32.9815 12.8111 32.9815 12.5095C32.9815 12.2078 32.8617 11.9186 32.6485 11.7053C32.4352 11.4921 32.1459 11.3722 31.8443 11.3722C31.3911 11.3805 30.9407 11.2984 30.5195 11.1306C30.0984 10.9629 29.7149 10.7129 29.3914 10.3953C29.0679 10.0776 28.811 9.69876 28.6356 9.28073C28.4602 8.86269 28.3699 8.41391 28.3699 7.96057C28.3699 7.50724 28.4602 7.05845 28.6356 6.64042C28.811 6.22239 29.0679 5.84349 29.3914 5.52587C29.7149 5.20825 30.0984 4.95827 30.5195 4.79053C30.9407 4.62279 31.3911 4.54065 31.8443 4.54891H34.1188C34.4204 4.54891 34.7096 4.66872 34.9229 4.88199C35.1362 5.09526 35.256 5.38452 35.256 5.68613C35.256 5.98774 35.1362 6.27699 34.9229 6.49027C34.7096 6.70354 34.4204 6.82335 34.1188 6.82335H31.8443C31.5427 6.82335 31.2535 6.94316 31.0402 7.15643C30.8269 7.3697 30.7071 7.65896 30.7071 7.96057C30.7071 8.26218 30.8269 8.55144 31.0402 8.76471C31.2535 8.97798 31.5427 9.09779 31.8443 9.09779C32.7384 9.11409 33.5903 9.48069 34.2168 10.1187C34.8433 10.7568 35.1944 11.6152 35.1944 12.5095C35.1944 13.4037 34.8433 14.2621 34.2168 14.9002C33.5903 15.5382 32.7384 15.9048 31.8443 15.9211Z" fill="white"/>
<path d="M36.3922 20.47H1.13326C0.832697 20.47 0.544449 20.3506 0.331923 20.1381C0.119396 19.9255 0 19.6373 0 19.3367L0 1.13326C0 0.832697 0.119396 0.544449 0.331923 0.331923C0.544449 0.119396 0.832697 0 1.13326 0L38.6667 0C38.9672 0 39.2555 0.119396 39.468 0.331923C39.6805 0.544449 39.7999 0.832697 39.7999 1.13326V18.0063C39.7999 18.3079 39.6801 18.5972 39.4668 18.8104C39.2536 19.0237 38.9643 19.1435 38.6627 19.1435C38.3611 19.1435 38.0718 19.0237 37.8586 18.8104C37.6453 18.5972 37.5255 18.3079 37.5255 18.0063V2.27444H2.27444V18.1955H36.3922C36.6938 18.1955 36.9831 18.3154 37.1964 18.5286C37.4096 18.7419 37.5294 19.0312 37.5294 19.3328C37.5294 19.6344 37.4096 19.9236 37.1964 20.1369C36.9831 20.3502 36.6938 20.47 36.3922 20.47Z" fill="white"/>
</g>
<defs>
<clipPath id="clip0_410_1681">
<rect width="58" height="58" fill="white"/>
</clipPath>
</defs>
</svg>
