<svg width="65" height="65" viewBox="0 0 65 65" fill="none" xmlns="http://www.w3.org/2000/svg">
<path d="M42.6562 51.7969V31.4844H40.625V51.7969C40.625 52.605 40.304 53.3799 39.7326 53.9513C39.1612 54.5227 38.3862 54.8438 37.5781 54.8438H35.5316V56.875H37.5781C38.9244 56.8734 40.2151 56.3379 41.1671 55.3859C42.1191 54.4339 42.6546 53.1432 42.6562 51.7969ZM37.5781 2.03125H13.2031C11.8568 2.03286 10.5661 2.5684 9.61413 3.52038C8.66215 4.47236 8.12661 5.76307 8.125 7.10938V40.6849H10.1562V7.10938C10.1562 6.30129 10.4773 5.52631 11.0487 4.95491C11.6201 4.38351 12.395 4.0625 13.2031 4.0625H17.4525C17.3322 4.38776 17.269 4.73135 17.2656 5.07812C17.2656 5.88621 17.5866 6.66119 18.158 7.23259C18.7294 7.80399 19.5044 8.125 20.3125 8.125H30.4688C31.2768 8.125 32.0518 7.80399 32.6232 7.23259C33.1946 6.66119 33.5156 5.88621 33.5156 5.07812C33.5123 4.73135 33.449 4.38776 33.3288 4.0625H37.5781C38.3862 4.0625 39.1612 4.38351 39.7326 4.95491C40.304 5.52631 40.625 6.30129 40.625 7.10938V11.1719H42.6562V7.10938C42.6546 5.76307 42.1191 4.47236 41.1671 3.52038C40.2151 2.5684 38.9244 2.03286 37.5781 2.03125ZM31.4844 5.07812C31.4844 5.34749 31.3774 5.60581 31.1869 5.79628C30.9964 5.98675 30.7381 6.09375 30.4688 6.09375H20.3125C20.0431 6.09375 19.7848 5.98675 19.5943 5.79628C19.4039 5.60581 19.2969 5.34749 19.2969 5.07812C19.2969 4.80876 19.4039 4.55044 19.5943 4.35997C19.7848 4.1695 20.0431 4.0625 20.3125 4.0625H30.4688C30.7381 4.0625 30.9964 4.1695 31.1869 4.35997C31.3774 4.55044 31.4844 4.80876 31.4844 5.07812ZM8.125 51.7969C8.12661 53.1432 8.66215 54.4339 9.61413 55.3859C10.5661 56.3379 11.8568 56.8734 13.2031 56.875H15.2344V54.8438H13.2031C12.395 54.8438 11.6201 54.5227 11.0487 53.9513C10.4773 53.3799 10.1562 52.605 10.1562 51.7969V42.7162H8.125V51.7969ZM31.1868 55.7365L29.3302 57.593C29.0463 57.8752 28.8212 58.2108 28.6679 58.5806C28.5147 58.9504 28.4364 59.3469 28.4375 59.7472V62.9688H30.4688V59.7472C30.4698 59.478 30.5767 59.2201 30.7663 59.0291L32.6229 57.1726C32.9068 56.8905 33.132 56.5548 33.2852 56.185C33.4384 55.8152 33.5168 55.4187 33.5156 55.0184V49.7656C33.5156 48.9575 33.1946 48.1826 32.6232 47.6112C32.0518 47.0398 31.2768 46.7188 30.4688 46.7188H26.4062V41.6406C26.4062 40.8325 26.0852 40.0576 25.5138 39.4862C24.9424 38.9148 24.1675 38.5938 23.3594 38.5938C22.5513 38.5938 21.7763 38.9148 21.2049 39.4862C20.6335 40.0576 20.3125 40.8325 20.3125 41.6406V46.7188C19.5044 46.7188 18.7294 47.0398 18.158 47.6112C17.5866 48.1826 17.2656 48.9575 17.2656 49.7656V55.0184C17.2645 55.4187 17.3428 55.8152 17.4961 56.185C17.6493 56.5548 17.8744 56.8905 18.1584 57.1726L20.0149 59.0291C20.2046 59.2201 20.3114 59.478 20.3125 59.7472V62.9688H22.3438V59.7472C22.3449 59.3469 22.2666 58.9504 22.1133 58.5806C21.9601 58.2108 21.735 57.8752 21.451 57.593L19.5945 55.7365C19.4048 55.5455 19.2979 55.2876 19.2969 55.0184V49.7656C19.2969 49.4963 19.4039 49.2379 19.5943 49.0475C19.7848 48.857 20.0431 48.75 20.3125 48.75H21.3281C21.5975 48.75 21.8558 48.643 22.0463 48.4525C22.2367 48.2621 22.3438 48.0037 22.3438 47.7344V41.6406C22.3438 41.3713 22.4508 41.1129 22.6412 40.9225C22.8317 40.732 23.09 40.625 23.3594 40.625C23.6287 40.625 23.8871 40.732 24.0775 40.9225C24.268 41.1129 24.375 41.3713 24.375 41.6406V47.7344C24.375 48.0037 24.482 48.2621 24.6725 48.4525C24.8629 48.643 25.1213 48.75 25.3906 48.75H30.4688C30.7381 48.75 30.9964 48.857 31.1869 49.0475C31.3774 49.2379 31.4844 49.4963 31.4844 49.7656V55.0184C31.4833 55.2876 31.3764 55.5455 31.1868 55.7365Z" fill="white"/>
<path d="M19.2966 23.7961C19.2965 25.9846 18.7018 28.1319 17.5761 30.0087L16.3949 31.977C16.3233 32.0913 16.2753 32.2188 16.2535 32.352C16.2318 32.4851 16.2368 32.6213 16.2682 32.7525C16.2997 32.8837 16.3569 33.0073 16.4367 33.1161C16.5164 33.2249 16.6171 33.3168 16.7327 33.3862C16.8484 33.4557 16.9767 33.5015 17.1102 33.5208C17.2437 33.5402 17.3798 33.5327 17.5104 33.4989C17.641 33.4651 17.7636 33.4056 17.8709 33.3239C17.9783 33.2422 18.0683 33.1399 18.1357 33.023L19.3179 31.0538C20.6327 28.8612 21.3274 26.3527 21.3278 23.7961V23.3594C21.3278 23.09 21.2208 22.8317 21.0303 22.6412C20.8399 22.4508 20.5815 22.3438 20.3122 22.3438C20.0428 22.3438 19.7845 22.4508 19.594 22.6412C19.4036 22.8317 19.2966 23.09 19.2966 23.3594V23.7961ZM27.4216 12.1875C25.2674 12.1899 23.2022 13.0467 21.679 14.5699C20.1558 16.0931 19.299 18.1584 19.2966 20.3125C19.2966 20.5819 19.4036 20.8402 19.594 21.0307C19.7845 21.2211 20.0428 21.3281 20.3122 21.3281C20.5815 21.3281 20.8399 21.2211 21.0303 21.0307C21.2208 20.8402 21.3278 20.5819 21.3278 20.3125C21.3278 18.6963 21.9698 17.1464 23.1126 16.0036C24.2554 14.8608 25.8054 14.2188 27.4216 14.2188C29.0377 14.2188 30.5877 14.8608 31.7305 16.0036C32.8733 17.1464 33.5153 18.6963 33.5153 20.3125V24.7345C33.5153 25.5651 33.4299 26.3935 33.2604 27.2066C33.2054 27.4701 33.2573 27.7447 33.4047 27.97C33.5521 28.1953 33.783 28.3529 34.0465 28.408C34.1153 28.4221 34.1854 28.4293 34.2557 28.4294C34.4895 28.429 34.716 28.3479 34.8969 28.1999C35.0779 28.0519 35.2022 27.8459 35.249 27.6169C35.4463 26.6688 35.546 25.7029 35.5466 24.7345V20.3125C35.5441 18.1584 34.6873 16.0931 33.1641 14.5699C31.6409 13.0467 29.5757 12.1899 27.4216 12.1875ZM31.9543 33.4334C32.0802 33.4881 32.2161 33.5161 32.3534 33.5156C32.5517 33.5163 32.7457 33.459 32.9118 33.3507C33.0778 33.2424 33.2085 33.0879 33.2878 32.9063L34.1491 30.8973C34.2017 30.7748 34.2296 30.643 34.2313 30.5097C34.233 30.3763 34.2085 30.2439 34.159 30.12C34.1095 29.9961 34.0361 29.8832 33.943 29.7877C33.8499 29.6922 33.7389 29.6159 33.6164 29.5633C33.4938 29.5107 33.3621 29.4827 33.2287 29.481C33.0953 29.4793 32.9629 29.5039 32.839 29.5534C32.7151 29.6028 32.6022 29.6762 32.5067 29.7693C32.4112 29.8624 32.335 29.9734 32.2823 30.096L31.4211 32.1039C31.3163 32.351 31.3135 32.6295 31.4134 32.8786C31.5133 33.1278 31.7078 33.3272 31.9543 33.4334ZM23.2788 29.6126C23.038 29.4923 22.7593 29.4726 22.5039 29.5577C22.2485 29.6428 22.0374 29.8258 21.9169 30.0666L20.9266 32.046C20.8062 32.2871 20.7865 32.5661 20.8719 32.8217C20.9572 33.0773 21.1406 33.2886 21.3816 33.409C21.6227 33.5294 21.9017 33.5491 22.1574 33.4638C22.413 33.3784 22.6242 33.1951 22.7446 32.954L23.7338 30.9755C23.7935 30.8562 23.8291 30.7262 23.8385 30.5931C23.8479 30.46 23.831 30.3264 23.7888 30.1998C23.7465 30.0732 23.6797 29.9562 23.5922 29.8554C23.5047 29.7547 23.3982 29.6722 23.2788 29.6126Z" fill="white"/>
<path d="M31.4849 24.3313V20.3125C31.4849 19.2351 31.0569 18.2017 30.295 17.4399C29.5332 16.678 28.4999 16.25 27.4224 16.25C26.345 16.25 25.3117 16.678 24.5498 17.4399C23.7879 18.2017 23.3599 19.2351 23.3599 20.3125V24.3313C23.3599 25.2893 23.2461 26.244 23.0207 27.1751C22.9574 27.4368 23.0005 27.7129 23.1407 27.9427C23.2809 28.1726 23.5066 28.3374 23.7682 28.4009C23.847 28.4198 23.9278 28.4294 24.0089 28.4294C24.2363 28.429 24.4569 28.3523 24.6355 28.2116C24.8141 28.0709 24.9404 27.8744 24.994 27.6534C25.2579 26.5658 25.3912 25.4505 25.3912 24.3313V20.3125C25.3912 19.7738 25.6052 19.2571 25.9861 18.8762C26.367 18.4953 26.8837 18.2812 27.4224 18.2812C27.9611 18.2812 28.4778 18.4953 28.8587 18.8762C29.2397 19.2571 29.4537 19.7738 29.4537 20.3125V24.3313C29.4537 24.6007 29.5607 24.859 29.7511 25.0495C29.9416 25.2399 30.1999 25.347 30.4693 25.347C30.7386 25.347 30.997 25.2399 31.1874 25.0495C31.3779 24.859 31.4849 24.6007 31.4849 24.3313ZM27.4762 33.4141C27.5956 33.4737 27.7255 33.5093 27.8587 33.5187C27.9918 33.5282 28.1254 33.5113 28.252 33.469C28.3786 33.4268 28.4956 33.36 28.5964 33.2725C28.6971 33.185 28.7796 33.0785 28.8392 32.9591L29.996 30.6455C30.4709 29.6935 30.8375 28.6912 31.0888 27.6575C31.1523 27.3957 31.1091 27.1194 30.9688 26.8894C30.8285 26.6594 30.6026 26.4946 30.3408 26.4311C30.2112 26.3997 30.0766 26.3942 29.9448 26.4147C29.813 26.4353 29.6866 26.4817 29.5727 26.5511C29.3427 26.6914 29.1779 26.9173 29.1144 27.1791C28.9 28.0641 28.5863 28.922 28.1791 29.7365L27.0212 32.0511C26.9616 32.1705 26.926 32.3004 26.9166 32.4335C26.9071 32.5666 26.924 32.7003 26.9663 32.8269C27.0085 32.9534 27.0753 33.0705 27.1628 33.1712C27.2503 33.272 27.3568 33.3545 27.4762 33.4141Z" fill="white"/>
<path d="M28.4375 23.3594V21.3281C28.4375 21.0588 28.3305 20.8004 28.14 20.61C27.9496 20.4195 27.6912 20.3125 27.4219 20.3125C27.1525 20.3125 26.8942 20.4195 26.7037 20.61C26.5133 20.8004 26.4062 21.0588 26.4062 21.3281V23.3594C26.4062 23.6287 26.5133 23.8871 26.7037 24.0775C26.8942 24.268 27.1525 24.375 27.4219 24.375C27.6912 24.375 27.9496 24.268 28.14 24.0775C28.3305 23.8871 28.4375 23.6287 28.4375 23.3594ZM12.1875 36.5625C12.1875 36.8319 12.2945 37.0902 12.485 37.2807C12.6754 37.4711 12.9338 37.5781 13.2031 37.5781H16.3069C16.5762 37.5781 16.8346 37.4711 17.025 37.2807C17.2155 37.0902 17.3225 36.8319 17.3225 36.5625C17.3225 36.2931 17.2155 36.0348 17.025 35.8443C16.8346 35.6539 16.5762 35.5469 16.3069 35.5469H14.2188V33.5156C14.2188 33.2463 14.1117 32.9879 13.9213 32.7975C13.7308 32.607 13.4725 32.5 13.2031 32.5C12.9338 32.5 12.6754 32.607 12.485 32.7975C12.2945 32.9879 12.1875 33.2463 12.1875 33.5156V36.5625ZM34.5312 37.5781H37.5781C37.8475 37.5781 38.1058 37.4711 38.2963 37.2807C38.4867 37.0902 38.5938 36.8319 38.5938 36.5625V33.5156C38.5938 33.2463 38.4867 32.9879 38.2963 32.7975C38.1058 32.607 37.8475 32.5 37.5781 32.5C37.3088 32.5 37.0504 32.607 36.86 32.7975C36.6695 32.9879 36.5625 33.2463 36.5625 33.5156V35.5469H34.5312C34.2619 35.5469 34.0036 35.6539 33.8131 35.8443C33.6226 36.0348 33.5156 36.2931 33.5156 36.5625C33.5156 36.8319 33.6226 37.0902 33.8131 37.2807C34.0036 37.4711 34.2619 37.5781 34.5312 37.5781ZM37.5781 14.2188C37.8475 14.2188 38.1058 14.1117 38.2963 13.9213C38.4867 13.7308 38.5938 13.4725 38.5938 13.2031V10.1562C38.5938 9.88689 38.4867 9.62856 38.2963 9.43809C38.1058 9.24763 37.8475 9.14062 37.5781 9.14062H34.5312C34.2619 9.14062 34.0036 9.24763 33.8131 9.43809C33.6226 9.62856 33.5156 9.88689 33.5156 10.1562C33.5156 10.4256 33.6226 10.6839 33.8131 10.8744C34.0036 11.0649 34.2619 11.1719 34.5312 11.1719H36.5625V13.2031C36.5625 13.4725 36.6695 13.7308 36.86 13.9213C37.0504 14.1117 37.3088 14.2188 37.5781 14.2188ZM16.25 9.14062H13.2031C12.9338 9.14062 12.6754 9.24763 12.485 9.43809C12.2945 9.62856 12.1875 9.88689 12.1875 10.1562V13.2031C12.1875 13.4725 12.2945 13.7308 12.485 13.9213C12.6754 14.1117 12.9338 14.2188 13.2031 14.2188C13.4725 14.2188 13.7308 14.1117 13.9213 13.9213C14.1117 13.7308 14.2188 13.4725 14.2188 13.2031V11.1719H16.25C16.5194 11.1719 16.7777 11.0649 16.9682 10.8744C17.1586 10.6839 17.2656 10.4256 17.2656 10.1562C17.2656 9.88689 17.1586 9.62856 16.9682 9.43809C16.7777 9.24763 16.5194 9.14062 16.25 9.14062ZM48.75 29.4531C50.6942 29.4553 52.5885 28.8381 54.1584 27.6912C55.7282 26.5442 56.892 24.9271 57.4809 23.0742C58.0698 21.2214 58.0533 19.2291 57.4337 17.3863C56.8142 15.5434 55.6238 13.9458 54.0352 12.8251C52.4465 11.7043 50.5422 11.1186 48.5983 11.153C46.6544 11.1874 44.772 11.8399 43.224 13.0162C41.6759 14.1924 40.5427 15.831 39.9887 17.6946C39.4346 19.5582 39.4885 21.5498 40.1426 23.3807L38.5227 28.2395C38.4718 28.3921 38.458 28.5547 38.4823 28.7138C38.5066 28.8729 38.5683 29.0239 38.6625 29.1544C38.7566 29.285 38.8804 29.3913 39.0237 29.4646C39.1669 29.5379 39.3256 29.5761 39.4865 29.576C39.5956 29.576 39.704 29.5582 39.8074 29.5232L44.007 28.1237C45.4352 28.9956 47.0767 29.4557 48.75 29.4531ZM41.0922 26.9547L42.184 23.6783C42.2605 23.4488 42.2525 23.1996 42.1616 22.9755C41.5226 21.3935 41.4738 19.6345 42.0242 18.0195C42.5745 16.4045 43.6873 15.0413 45.1594 14.1788C46.6315 13.3162 48.3647 13.0119 50.0426 13.3212C51.7205 13.6306 53.2311 14.533 54.2988 15.8638C55.3665 17.1946 55.92 18.865 55.8583 20.5701C55.7965 22.2751 55.1236 23.9011 53.9624 25.1512C52.8013 26.4013 51.2293 27.1921 49.5334 27.3792C47.8375 27.5664 46.1309 27.1374 44.7251 26.1706C44.5558 26.0538 44.3549 25.9911 44.1492 25.9909C44.0397 25.9903 43.9309 26.0081 43.8273 26.0437L41.0922 26.9547Z" fill="white"/>
<path d="M47.7337 23.3594C48.003 23.3593 48.2613 23.2523 48.4517 23.0618L53.5298 17.9837L52.0938 16.5476L47.7337 20.9077L46.4205 19.5945L44.9844 21.0306L47.0156 23.0618C47.206 23.2523 47.4643 23.3593 47.7337 23.3594Z" fill="white"/>
</svg>
