<svg width="58" height="58" viewBox="0 0 58 58" fill="none" xmlns="http://www.w3.org/2000/svg">
<path fill-rule="evenodd" clip-rule="evenodd" d="M28.3193 7.83789C25.9448 7.83789 24.0108 9.78096 24.0108 12.1665C24.0108 13.5324 24.658 14.7387 25.648 15.5332H25.4469C24.7763 15.5345 24.1154 15.6937 23.5171 15.998C22.9188 16.3024 22.3999 16.7435 22.002 17.2858C21.7414 17.2206 21.4741 17.186 21.2055 17.1829H20.9738C21.8977 16.4932 22.5076 15.4005 22.5076 14.1596C22.5053 13.158 22.108 12.1981 21.4028 11.4901C20.6976 10.7821 19.7418 10.3837 18.7448 10.3822C17.7481 10.3839 16.7927 10.7825 16.0878 11.4905C15.3829 12.1985 14.986 13.1582 14.984 14.1596C14.984 15.4005 15.5929 16.4932 16.5159 17.1829H16.2823C14.7695 17.1829 13.4741 18.0871 12.8767 19.3809H9.4289C8.84685 19.3832 8.28938 19.6169 7.87835 20.0309C7.46731 20.445 7.23615 21.0056 7.2354 21.5904V28.9827C6.86192 28.6532 6.38246 28.4704 5.8854 28.4681C4.74796 28.4681 3.81062 29.3973 3.81062 30.5362C3.81062 30.8258 3.87286 31.0999 3.98105 31.35L1.79712 33.2142C1.67868 33.1806 1.55635 33.1628 1.43329 33.1613C1.05521 33.162 0.692664 33.3125 0.424332 33.5802C0.156 33.8478 0.00352808 34.2109 0 34.5907C0 35.3776 0.650104 36.0211 1.43234 36.0211C1.50414 36.0211 1.57308 36.0086 1.64202 35.998L3.56265 39.1848C3.48318 39.3474 3.42956 39.5244 3.42956 39.7168C3.43233 40.0461 3.5643 40.361 3.7968 40.5931C4.0293 40.8253 4.34357 40.9559 4.67137 40.9567C5.21998 40.9567 5.68913 40.5863 5.84902 40.0842L7.2354 39.6244V44.4186H4.84179C4.71483 44.4186 4.59306 44.4693 4.50328 44.5595C4.41351 44.6497 4.36307 44.772 4.36307 44.8996C4.36294 45.5908 4.49838 46.2753 4.76164 46.9139C5.02489 47.5525 5.41082 48.1327 5.89735 48.6214C6.38389 49.1102 6.9615 49.4978 7.59719 49.7621C8.23289 50.0265 8.9142 50.1625 9.6022 50.1622H46.9951C47.6831 50.1626 48.3645 50.0268 49.0002 49.7625C49.636 49.4983 50.2136 49.1107 50.7003 48.6221C51.1869 48.1335 51.5729 47.5533 51.8363 46.9148C52.0997 46.2762 52.2352 45.5917 52.2352 44.9005C52.2352 44.773 52.1848 44.6506 52.095 44.5604C52.0052 44.4702 51.8835 44.4196 51.7565 44.4196H49.3629V36.3202C49.8943 36.6569 50.26 37.2187 50.3405 37.8785V38.1373C50.3405 38.2649 50.3909 38.3872 50.4807 38.4774C50.5704 38.5676 50.6922 38.6183 50.8192 38.6183H52.7341C52.861 38.6183 52.9828 38.5676 53.0726 38.4774C53.1623 38.3872 53.2128 38.2649 53.2128 38.1373V35.3833C53.8519 35.2801 54.4338 34.9521 54.8546 34.458C55.2755 33.9638 55.508 33.3355 55.5106 32.6852C55.5081 32.0343 55.2757 31.4056 54.855 30.9108C54.4342 30.4159 53.8522 30.0872 53.2128 29.9831V27.5572C53.2128 27.4296 53.1623 27.3073 53.0726 27.2171C52.9828 27.1269 52.861 27.0762 52.7341 27.0762H50.8192C50.6922 27.0762 50.5704 27.1269 50.4807 27.2171C50.3909 27.3073 50.3405 27.4296 50.3405 27.5572V27.8486C50.3033 28.1651 50.1962 28.4693 50.0271 28.7388C49.858 29.0084 49.631 29.2367 49.3629 29.4069V21.5904C49.3621 21.0056 49.131 20.445 48.72 20.0309C48.3089 19.6169 47.7514 19.3832 47.1694 19.3809H43.7619C43.4626 18.7259 42.9827 18.1708 42.3792 17.7813C41.7756 17.3917 41.0736 17.1841 40.3562 17.1829H39.7138C40.1869 16.8347 40.572 16.3797 40.8381 15.8545C41.1042 15.3294 41.2438 14.7489 41.2457 14.1596C41.2437 13.1581 40.8466 12.1981 40.1415 11.4901C39.4365 10.7821 38.4808 10.3837 37.4839 10.3822C36.4873 10.3842 35.5322 10.7828 34.8275 11.4908C34.1228 12.1988 33.726 13.1584 33.724 14.1596C33.724 15.4082 34.3387 16.5096 35.2722 17.1973C35.0581 17.2076 34.8453 17.2373 34.6365 17.2858C34.2386 16.7435 33.7197 16.3024 33.1214 15.998C32.5232 15.6937 31.8622 15.5345 31.1916 15.5332H30.9915C31.9805 14.7387 32.6287 13.5324 32.6287 12.1665C32.6287 9.78096 30.6928 7.83789 28.3202 7.83789H28.3193ZM28.3193 8.79981C30.1757 8.79981 31.6703 10.3014 31.6703 12.1665C31.6703 14.0317 30.1757 15.5332 28.3193 15.5332C27.8789 15.5342 27.4427 15.4478 27.0357 15.279C26.6286 15.1102 26.2588 14.8622 25.9475 14.5494C25.6361 14.2366 25.3893 13.865 25.2212 13.4561C25.0532 13.0472 24.9672 12.6089 24.9682 12.1665C24.9682 10.3014 26.4628 8.79981 28.3193 8.79981ZM18.7448 11.3441C19.1133 11.3429 19.4784 11.415 19.819 11.556C20.1597 11.6971 20.4693 11.9044 20.73 12.166C20.9907 12.4276 21.1973 12.7385 21.3381 13.0806C21.4788 13.4227 21.5509 13.7894 21.5501 14.1596C21.551 14.5299 21.479 14.8967 21.3384 15.2389C21.1977 15.5812 20.991 15.8921 20.7303 16.1538C20.4696 16.4156 20.16 16.623 19.8193 16.7641C19.4785 16.9052 19.1134 16.9772 18.7448 16.9761C18.3764 16.9771 18.0114 16.905 17.6708 16.7638C17.3302 16.6226 17.0208 16.4152 16.7603 16.1534C16.4998 15.8917 16.2933 15.5808 16.1528 15.2386C16.0122 14.8965 15.9404 14.5298 15.9414 14.1596C15.9405 13.7895 16.0125 13.4229 16.153 13.0809C16.2936 12.7388 16.5001 12.428 16.7606 12.1664C17.0211 11.9048 17.3305 11.6974 17.671 11.5563C18.0116 11.4152 18.3765 11.3431 18.7448 11.3441ZM37.4839 11.3441C37.8523 11.3431 38.2172 11.4152 38.5577 11.5563C38.8982 11.6974 39.2076 11.9048 39.4681 12.1664C39.7286 12.428 39.9351 12.7388 40.0757 13.0809C40.2163 13.4229 40.2882 13.7895 40.2873 14.1596C40.2883 14.5298 40.2165 14.8965 40.076 15.2386C39.9354 15.5808 39.729 15.8917 39.4685 16.1534C39.2079 16.4152 38.8985 16.6226 38.5579 16.7638C38.2173 16.905 37.8523 16.9771 37.4839 16.9761C37.1156 16.977 36.7507 16.9047 36.4102 16.7635C36.0697 16.6223 35.7604 16.4148 35.5 16.1531C35.2396 15.8914 35.0332 15.5805 34.8927 15.2384C34.7522 14.8963 34.6805 14.5297 34.6815 14.1596C34.6806 13.7896 34.7525 13.4231 34.893 13.0811C35.0335 12.7391 35.2399 12.4284 35.5003 12.1667C35.7607 11.9051 36.07 11.6978 36.4104 11.5566C36.7508 11.4154 37.1156 11.3432 37.4839 11.3441ZM25.4469 16.4951H31.1916C31.7437 16.4922 32.2879 16.6272 32.7752 16.888C33.2626 17.1487 33.6778 17.5271 33.9835 17.989C33.9835 17.9896 33.9835 17.9903 33.9835 17.9909C33.9954 18.025 34.0112 18.0576 34.0304 18.0881C34.1625 18.3026 34.2659 18.5325 34.3502 18.772C34.3799 18.8615 34.4115 18.9499 34.4344 19.0423C34.4536 19.1212 34.4708 19.201 34.4852 19.2808C34.5168 19.4703 34.5426 19.6627 34.5426 19.8618V26.1143H33.1926V22.2051H32.2352V26.1143H24.5757V22.2051H23.6182V26.1143H22.0959V19.8618C22.0997 19.5792 22.1383 19.2981 22.2108 19.025C22.2299 18.9451 22.2577 18.8691 22.2826 18.7912C22.3687 18.545 22.4741 18.3084 22.61 18.089C22.6305 18.0559 22.6469 18.0204 22.6589 17.9832C22.9649 17.5229 23.3798 17.1461 23.8663 16.8864C24.3529 16.6267 24.896 16.4922 25.4469 16.4951ZM16.2823 18.1429V18.1448H21.2055C21.2964 18.1448 21.3845 18.1698 21.4735 18.19C21.318 18.5808 21.2203 18.9924 21.1834 19.4117C21.1547 19.556 21.1384 19.7041 21.1384 19.8599V26.1124H15.9587V23.167H15.0012V26.1124H13.4789V20.9594C13.4766 20.5889 13.5475 20.2216 13.6876 19.8789C13.8277 19.5361 14.0341 19.2247 14.2949 18.9627C14.5557 18.7007 14.8656 18.4933 15.2068 18.3526C15.5479 18.2119 15.9135 18.1406 16.2823 18.1429ZM35.4331 18.1448H40.3562C40.725 18.1425 41.0906 18.2138 41.4318 18.3545C41.7729 18.4953 42.0829 18.7026 42.3436 18.9646C42.6044 19.2266 42.8108 19.538 42.9509 19.8808C43.091 20.2235 43.1619 20.5908 43.1596 20.9613V26.1143H40.8522V23.167H39.8947V26.1143H35.5001V19.8618C35.5001 19.706 35.4828 19.556 35.4551 19.4107C35.4185 18.9915 35.3211 18.5799 35.1659 18.1891C35.254 18.1698 35.3421 18.1448 35.4331 18.1448ZM9.4289 20.3428H12.5837C12.5502 20.5448 12.5214 20.7487 12.5214 20.9613V22.282H10.5865C10.4595 22.282 10.3377 22.3327 10.2479 22.4229C10.1582 22.5131 10.1077 22.6354 10.1077 22.763V42.0013C10.1077 42.1289 10.1582 42.2512 10.2479 42.3414C10.3377 42.4316 10.4595 42.4823 10.5865 42.4823H46.0119C46.1388 42.4823 46.2606 42.4316 46.3504 42.3414C46.4401 42.2512 46.4906 42.1289 46.4906 42.0013V35.9874H48.2178C48.282 35.9874 48.3423 36.0009 48.4055 36.0067V44.4186H8.19284V21.5904C8.19067 21.4265 8.22108 21.2639 8.2823 21.112C8.34352 20.9601 8.43431 20.8219 8.54934 20.7057C8.66438 20.5896 8.80134 20.4976 8.95222 20.4353C9.10309 20.3729 9.26578 20.3415 9.4289 20.3428ZM44.0558 20.3428H47.1694C47.8616 20.3428 48.4045 20.8911 48.4045 21.5904V29.7253C48.3423 29.7311 48.282 29.7446 48.2178 29.7446H46.4906V22.763C46.4906 22.6354 46.4401 22.5131 46.3504 22.4229C46.2606 22.3327 46.1388 22.282 46.0119 22.282H44.1171V20.9613C44.1171 20.7497 44.0883 20.5448 44.0558 20.3428ZM11.0652 23.2439H12.5214V26.5953C12.5214 26.7228 12.5719 26.8452 12.6617 26.9353C12.7514 27.0255 12.8732 27.0762 13.0002 27.0762H43.6384C43.7653 27.0762 43.8871 27.0255 43.9769 26.9353C44.0666 26.8452 44.1171 26.7228 44.1171 26.5953V23.2439H45.5331V29.7436H44.1362C44.12 29.7421 44.1037 29.7415 44.0874 29.7417H41.4573C40.6119 29.7417 39.9187 30.415 39.8641 31.2509H39.2054C38.9797 31.2534 38.7639 31.3446 38.6042 31.505C38.4446 31.6654 38.3538 31.8822 38.3513 32.109V33.6182C38.3513 34.0847 38.741 34.4762 39.2054 34.4762H39.8641C39.8845 34.7833 39.9921 35.0781 40.1739 35.3258C40.3558 35.5735 40.6045 35.7637 40.8905 35.8739L39.7837 40.6046C39.7688 40.6672 39.7667 40.7292 39.7775 40.7871C39.7884 40.845 39.8119 40.8975 39.8468 40.9418C39.8817 40.986 39.9272 41.0211 39.9808 41.045C40.0344 41.0688 40.095 41.081 40.159 41.0808H42.792C42.8558 41.0807 42.9219 41.0683 42.9864 41.0444C43.051 41.0204 43.1127 40.9853 43.1681 40.9411C43.2236 40.8968 43.2715 40.8443 43.3093 40.7866C43.3471 40.7289 43.374 40.667 43.3885 40.6046L44.4675 35.9874H45.5322V41.5204H11.0642V23.2439H11.0652ZM56.3522 26.9877L55.053 27.7409L55.5317 28.5758L56.831 27.8198L56.3522 26.9877ZM51.3237 28.0381H52.2553V37.6573H51.3237V28.0381ZM5.88445 29.43C6.17659 29.43 6.45677 29.5466 6.66335 29.7542C6.86993 29.9617 6.98599 30.2432 6.98599 30.5367C6.98599 30.8302 6.86993 31.1117 6.66335 31.3193C6.45677 31.5268 6.17659 31.6434 5.88445 31.6434C5.73599 31.6496 5.58781 31.6256 5.44883 31.5728C5.30984 31.52 5.18292 31.4396 5.07569 31.3362C4.96845 31.2329 4.88313 31.1088 4.82484 30.9715C4.76655 30.8342 4.7365 30.6865 4.7365 30.5372C4.7365 30.3879 4.76655 30.2402 4.82484 30.1029C4.88313 29.9655 4.96845 29.8415 5.07569 29.7382C5.18292 29.6348 5.30984 29.5543 5.44883 29.5016C5.58781 29.4488 5.73599 29.4248 5.88445 29.431V29.43ZM57.5194 29.4868L56.0688 29.8773L56.3149 30.8075L57.7664 30.417L57.5194 29.4868ZM50.3405 29.8398V35.8903C49.7701 35.3381 49.0099 35.028 48.2178 35.0245H44.5661V30.7055H48.2178C49.0412 30.7055 49.7832 30.3689 50.3405 29.8398ZM41.4583 30.7036H43.6087V35.0226H41.4573C41.3719 35.0243 41.2871 35.0087 41.2078 34.9767C41.1286 34.9446 41.0566 34.8969 40.9962 34.8363C40.9358 34.7757 40.8882 34.7034 40.8562 34.6239C40.8242 34.5443 40.8085 34.4591 40.8101 34.3733V31.3567C40.8101 30.9874 41.0906 30.7036 41.4583 30.7036ZM53.2597 31.1028C53.9787 31.3298 54.5542 31.8848 54.5542 32.6861C54.5542 33.4874 53.9797 34.0405 53.2597 34.2685V31.1028ZM12.4994 31.4048C12.4366 31.4058 12.3745 31.4193 12.3168 31.4444C12.2591 31.4695 12.2069 31.5058 12.1631 31.5511C12.1194 31.5965 12.085 31.6501 12.0619 31.7088C12.0387 31.7676 12.0273 31.8303 12.0284 31.8935V39.5138C12.0174 39.5832 12.0218 39.6541 12.0411 39.7217C12.0604 39.7892 12.0942 39.8516 12.1401 39.9046C12.186 39.9576 12.2429 39.9999 12.3068 40.0284C12.3707 40.0569 12.44 40.0711 12.51 40.0698H23.9887C24.1157 40.0698 24.2375 40.0191 24.3272 39.9289C24.417 39.8387 24.4675 39.7164 24.4675 39.5888C24.4675 39.4613 24.417 39.3389 24.3272 39.2487C24.2375 39.1585 24.1157 39.1079 23.9887 39.1079H13.657L15.8581 36.8964L16.4766 37.5178C16.5664 37.608 16.6882 37.6586 16.8151 37.6586C16.942 37.6586 17.0638 37.608 17.1536 37.5178L18.7295 35.9345L19.349 36.5559C19.4387 36.6461 19.5605 36.6967 19.6874 36.6967C19.8144 36.6967 19.9361 36.6461 20.0259 36.5559L23.5225 33.043V33.8173C23.5225 33.9449 23.5729 34.0672 23.6627 34.1574C23.7525 34.2476 23.8742 34.2983 24.0012 34.2983C24.1282 34.2983 24.2499 34.2476 24.3397 34.1574C24.4295 34.0672 24.4799 33.9449 24.4799 33.8173V31.8935C24.4799 31.7659 24.4295 31.6436 24.3397 31.5534C24.2499 31.4632 24.1282 31.4125 24.0012 31.4125H22.0863C21.9593 31.4125 21.8376 31.4632 21.7478 31.5534C21.658 31.6436 21.6076 31.7659 21.6076 31.8935C21.6076 32.0211 21.658 32.1434 21.7478 32.2336C21.8376 32.3238 21.9593 32.3745 22.0863 32.3745H22.835L19.6869 35.5363L19.0684 34.9139C18.9787 34.8237 18.8569 34.7731 18.73 34.7731C18.603 34.7731 18.4813 34.8237 18.3915 34.9139L16.8156 36.4982L16.1961 35.8758C16.1063 35.7857 15.9846 35.735 15.8577 35.735C15.7307 35.735 15.609 35.7857 15.5192 35.8758L12.9858 38.422V31.8935C12.9868 31.829 12.975 31.765 12.9509 31.7053C12.9268 31.6455 12.891 31.5912 12.8457 31.5456C12.8003 31.5001 12.7462 31.4641 12.6868 31.4399C12.6273 31.4157 12.5636 31.4038 12.4994 31.4048ZM26.8553 31.4048C26.7925 31.4058 26.7304 31.4193 26.6727 31.4444C26.615 31.4695 26.5628 31.5058 26.519 31.5511C26.4753 31.5965 26.4409 31.6501 26.4178 31.7088C26.3946 31.7676 26.3832 31.8303 26.3843 31.8935V39.5888C26.3843 39.7164 26.4347 39.8387 26.5245 39.9289C26.6143 40.0191 26.736 40.0698 26.863 40.0698H36.4298C36.5567 40.0698 36.6785 40.0191 36.7683 39.9289C36.858 39.8387 36.9085 39.7164 36.9085 39.5888C36.9085 39.4613 36.858 39.3389 36.7683 39.2487C36.6785 39.1585 36.5567 39.1079 36.4298 39.1079H35.008V33.8039C35.009 33.7395 34.9971 33.6756 34.9731 33.6159C34.9491 33.5562 34.9134 33.5019 34.8681 33.4564C34.8229 33.4108 34.769 33.3748 34.7096 33.3506C34.6502 33.3263 34.5866 33.3143 34.5225 33.3152C34.4596 33.3161 34.3974 33.3294 34.3396 33.3545C34.2818 33.3795 34.2295 33.4158 34.1856 33.4612C34.1418 33.5066 34.1073 33.5602 34.0841 33.619C34.0609 33.6778 34.0495 33.7406 34.0505 33.8039V39.1079H33.0931V32.8419C33.0941 32.7776 33.0823 32.7136 33.0582 32.6539C33.0342 32.5943 32.9985 32.54 32.9533 32.4944C32.908 32.4489 32.8541 32.4129 32.7947 32.3887C32.7353 32.3644 32.6717 32.3524 32.6076 32.3533C32.5447 32.3542 32.4825 32.3675 32.4247 32.3926C32.3669 32.4176 32.3146 32.4539 32.2707 32.4993C32.2269 32.5446 32.1924 32.5983 32.1692 32.6571C32.146 32.7159 32.1346 32.7787 32.1356 32.8419V39.1079H31.1782V34.7658C31.1792 34.7014 31.1674 34.6375 31.1434 34.5778C31.1193 34.5181 31.0836 34.4639 31.0384 34.4183C30.9931 34.3727 30.9392 34.3367 30.8798 34.3125C30.8204 34.2882 30.7568 34.2762 30.6928 34.2771C30.6298 34.278 30.5676 34.2913 30.5098 34.3164C30.452 34.3414 30.3997 34.3777 30.3559 34.4231C30.312 34.4685 30.2775 34.5221 30.2543 34.5809C30.2311 34.6397 30.2197 34.7025 30.2207 34.7658V39.1079H29.2633V36.6896C29.2643 36.6252 29.2525 36.5613 29.2285 36.5016C29.2045 36.4419 29.1687 36.3877 29.1235 36.3421C29.0782 36.2965 29.0243 36.2606 28.9649 36.2363C28.9056 36.2121 28.842 36.2 28.7779 36.201C28.7149 36.2018 28.6528 36.2152 28.595 36.2402C28.5371 36.2653 28.4848 36.3015 28.441 36.3469C28.3971 36.3923 28.3626 36.4459 28.3394 36.5047C28.3163 36.5635 28.3048 36.6264 28.3059 36.6896V39.1079H27.3417V31.8935C27.3427 31.829 27.3309 31.765 27.3068 31.7053C27.2827 31.6455 27.2469 31.5912 27.2016 31.5456C27.1562 31.5001 27.1022 31.4641 27.0427 31.4399C26.9832 31.4157 26.9195 31.4038 26.8553 31.4048ZM7.2354 32.0878V34.6475C7.11171 34.5022 6.95832 34.3854 6.78566 34.3051C6.61301 34.2247 6.42515 34.1827 6.23487 34.1819C5.74945 34.1819 5.32434 34.4512 5.09168 34.8466L2.85031 34.4676C2.83046 34.2224 2.7473 33.9867 2.60903 33.7837L4.56509 32.1147C4.92509 32.4158 5.38275 32.6053 5.88445 32.6053C6.40147 32.6053 6.87061 32.4052 7.23444 32.0888L7.2354 32.0878ZM56.4987 32.2032V33.1652H58V32.2032H56.4987ZM39.3097 32.2129H39.8536V33.5143H39.3097V32.2129ZM1.43329 34.1232C1.70138 34.1232 1.90531 34.3291 1.90531 34.5907C1.90597 34.653 1.89414 34.7148 1.87052 34.7723C1.8469 34.8299 1.81198 34.8821 1.76784 34.9258C1.72369 34.9696 1.67123 35.0039 1.61359 35.0268C1.55595 35.0497 1.4943 35.0607 1.43234 35.0592C1.37036 35.0607 1.3087 35.0497 1.25102 35.0269C1.19334 35.0041 1.1408 34.9699 1.09652 34.9263C1.05224 34.8827 1.01711 34.8306 0.993224 34.7731C0.969335 34.7157 0.957168 34.654 0.957443 34.5917C0.957443 34.3291 1.16329 34.1232 1.43329 34.1232ZM56.3149 34.5628L56.0688 35.493L57.5194 35.8835L57.7664 34.9534L56.3149 34.5628ZM6.23487 35.1438C6.44838 35.1438 6.60444 35.3054 6.60444 35.5093C6.60511 35.558 6.59596 35.6063 6.57755 35.6514C6.55914 35.6964 6.53185 35.7372 6.49732 35.7714C6.46279 35.8055 6.42174 35.8323 6.37663 35.8501C6.33153 35.8679 6.28331 35.8763 6.23487 35.8749C6.18627 35.8764 6.13785 35.8681 6.09253 35.8504C6.04721 35.8327 6.00592 35.806 5.97114 35.7718C5.93635 35.7377 5.90879 35.6968 5.89011 35.6517C5.87143 35.6066 5.86201 35.5582 5.86243 35.5093C5.86243 35.3054 6.02136 35.1438 6.23487 35.1438ZM2.6052 35.4006L4.94136 35.797C5.01413 36.1192 5.2037 36.3972 5.46413 36.5848L4.61871 38.4797C4.50796 38.485 4.39844 38.5054 4.29318 38.5403L2.48744 35.542C2.52861 35.4968 2.56978 35.4516 2.6052 35.4006ZM41.8355 35.9855H43.5005L42.5296 40.1313H40.8656L41.8355 35.9855ZM7.2354 36.3683V38.6115L5.72934 39.1098C5.67295 39.0028 5.60135 38.9046 5.51679 38.8183L6.41008 36.8175C6.73753 36.7733 7.02763 36.6088 7.2354 36.3683ZM55.5317 36.7954L55.053 37.6294L56.3522 38.3826L56.831 37.5505L55.5317 36.7954ZM4.67137 39.4368C4.83605 39.4368 4.95573 39.559 4.95573 39.7158C4.95573 39.8736 4.83605 39.9948 4.67137 39.9948C4.63421 39.9962 4.59714 39.99 4.56244 39.9766C4.52773 39.9632 4.49611 39.9428 4.4695 39.9167C4.44289 39.8906 4.42186 39.8593 4.40767 39.8248C4.39349 39.7902 4.38646 39.7532 4.387 39.7158C4.387 39.559 4.50669 39.4368 4.67137 39.4368ZM5.4153 45.3815H24.4684V46.5945C24.4684 47.5516 25.2315 48.3528 26.1784 48.3528H32.3348C33.2817 48.3528 34.0438 47.5516 34.0438 46.5945V45.3805H51.182C50.936 47.5304 49.2059 49.2003 46.9951 49.2003H9.6022C7.39146 49.2003 5.66136 47.5304 5.4153 45.3815ZM25.4259 45.7999H33.0854V46.5945C33.0854 47.0523 32.7503 47.3909 32.3338 47.3909H26.1775C25.7619 47.3909 25.4268 47.0523 25.4268 46.5945L25.4259 45.7999Z" fill="white"/>
</svg>
