<svg width="58" height="58" viewBox="0 0 58 58" fill="none" xmlns="http://www.w3.org/2000/svg">
<g clip-path="url(#clip0_410_1703)">
<path d="M42.2033 17.3728C41.5508 16.8472 40.6717 16.8381 40.5086 16.8381C39.2852 16.8563 37.8624 17.3275 29.5158 20.7984C26.7517 21.9494 21.1421 24.36 12.8499 27.9759C11.1099 28.6738 10.2852 29.3806 10.1764 30.2778C9.97705 31.9 11.6446 32.4256 13.2667 32.9331L13.883 33.1325C15.1064 33.5313 17.3449 34.2019 18.5864 34.2291C19.7011 34.2291 20.9246 33.8122 22.2114 32.9331C26.6249 29.9516 29.4342 28.0756 31.2014 26.9066C29.7877 28.2569 28.1383 29.7975 27.2683 30.6041C26.5614 31.2566 26.063 31.7278 25.9542 31.8366C25.7367 32.0631 25.5192 32.2716 25.3108 32.48C24.3864 33.3681 23.5255 34.2019 23.6252 35.3709C23.7249 36.4856 24.7399 37.2741 25.4921 37.7725C26.6521 38.5338 27.5764 39.1681 28.5099 39.8025C29.5339 40.5003 30.5489 41.1981 31.8721 42.0591C32.1983 42.2766 32.5064 42.4941 32.8055 42.7116C33.9564 43.5272 35.1346 44.37 36.6117 44.37C36.7296 44.37 36.8474 44.3609 36.9742 44.3519C37.9349 44.2613 39.1946 43.5544 39.7383 40.6906C40.6536 35.8059 42.5386 24.7497 42.9827 20.0644C43.0371 19.5388 42.9646 18.9406 42.9283 18.6959C42.8921 18.4875 42.7833 17.8441 42.2033 17.3728ZM41.1883 19.8831C40.7533 24.4506 38.8411 35.6428 37.9621 40.3463C37.6721 41.9141 37.1827 42.5031 36.8202 42.5394C35.8414 42.63 34.9714 42.0138 33.8658 41.2253C33.5486 40.9988 33.2133 40.7631 32.8689 40.5366C31.5549 39.6756 30.5489 38.9869 29.5339 38.2981C28.6005 37.6638 27.6671 37.0294 26.498 36.2591C25.5192 35.6156 25.4467 35.2713 25.4377 35.1988C25.4105 34.8997 26.0539 34.2744 26.5705 33.7759C26.7971 33.5584 27.0327 33.3319 27.2683 33.0872C27.368 32.9875 27.8392 32.5434 28.5099 31.9272C34.908 25.9822 35.2614 25.4566 35.3792 24.9763C35.4517 24.6591 35.4517 24.0156 34.9624 23.5897C34.6724 23.3269 34.3371 23.2634 34.0652 23.2634C33.8477 23.2634 33.6755 23.3088 33.5667 23.3269C33.2858 23.3903 33.023 23.4538 21.2055 31.4288C20.2267 32.0994 19.3658 32.4528 18.6408 32.4166C17.9158 32.3984 16.348 32.0269 14.463 31.4106L13.8286 31.2113C13.1671 31.0028 12.288 30.7309 12.0252 30.5044C12.143 30.3775 12.4964 30.0784 13.5567 29.6616L13.5839 29.6525C21.8761 26.0366 27.4767 23.6259 30.2317 22.4841C37.5814 19.43 39.6024 18.6778 40.563 18.6597C40.7352 18.6325 40.9889 18.7141 41.0796 18.7866C41.1067 18.8138 41.1339 18.85 41.1611 19.0131C41.1702 19.1672 41.2155 19.5931 41.1883 19.8831Z" fill="white"/>
<path d="M29 0.226562C13.1316 0.226562 0.226562 13.1316 0.226562 29C0.226562 44.8684 13.1316 57.7734 29 57.7734C44.8684 57.7734 57.7734 44.8684 57.7734 29C57.7734 13.1316 44.8684 0.226562 29 0.226562ZM29 55.9609C14.1375 55.9609 2.03906 43.8625 2.03906 29C2.03906 14.1375 14.1375 2.03906 29 2.03906C43.8625 2.03906 55.9609 14.1375 55.9609 29C55.9609 43.8625 43.8625 55.9609 29 55.9609Z" fill="white"/>
</g>
<defs>
<clipPath id="clip0_410_1703">
<rect width="58" height="58" fill="white"/>
</clipPath>
</defs>
</svg>
