<svg width="320" height="299" viewBox="0 0 320 299" fill="none" xmlns="http://www.w3.org/2000/svg">
<path d="M1 70.4996V298H56.3382L111.417 227.72V298H166.755L222.353 227.72V298H277.431L319 245.68V1H278.471L222.353 70.4996V1H166.755L111.417 70.4996V1H56.3382L1 70.4996Z" stroke="#E5B48A" stroke-width="2"/>
<g clip-path="url(#clip0_403_1389)">
<path d="M135.441 119.823L127.061 128.32H163.966V119.823H135.441Z" fill="white"/>
<path d="M45.3701 172.895V119.823L36.4551 128.867V181.392H71.5901V172.895H45.3701Z" fill="white"/>
<path d="M117.595 130.165C115.893 127.042 113.394 124.44 110.36 122.632C107.06 120.71 103.305 119.739 99.5 119.823H78V128.32H98C101.927 128.32 105.062 129.362 107.405 131.448C109.748 133.533 110.925 136.62 110.935 140.71C110.935 144.569 109.743 147.584 107.36 149.753C104.977 151.923 101.82 153.006 97.89 153.003H86.89L78 161.971V181.392H86.92V161.504H99.42C103.242 161.597 107.018 160.642 110.35 158.742C113.42 156.977 115.944 154.381 117.64 151.244C119.337 147.991 120.225 144.367 120.225 140.687C120.225 137.007 119.337 133.382 117.64 130.13L117.595 130.165Z" fill="white"/>
<path d="M135.44 172.896L127.055 181.392H163.965V172.896H135.44Z" fill="white"/>
<path d="M135.435 146.362L127.055 154.859H163.965V146.362H135.435Z" fill="white"/>
<path d="M204.41 135.392H195.195V119.524H197.86V133.481L197.4 132.827H204.4L204.41 135.392ZM209.97 135.65C209.273 135.682 208.579 135.545 207.945 135.25C207.482 135.012 207.099 134.64 206.845 134.18C206.596 133.705 206.427 133.191 206.345 132.659C206.268 132.064 206.23 131.465 206.23 130.865V124.021H208.9V131.118C208.869 131.393 208.897 131.672 208.983 131.935C209.07 132.198 209.212 132.438 209.4 132.639C209.742 132.889 210.154 133.021 210.575 133.014C211.023 133.013 211.466 132.926 211.88 132.756C212.323 132.585 212.735 132.342 213.1 132.036C213.457 131.756 213.761 131.413 213.995 131.022L214.205 132.467H213.6V124.021H216.265V135.392H214.265L213.715 133.293H214.47C214.088 133.761 213.648 134.177 213.16 134.53C212.687 134.879 212.169 135.161 211.62 135.366C211.09 135.554 210.532 135.65 209.97 135.65ZM225.725 135.392L223 131.057H223.825L221.095 135.392H217.97L222.22 129.126L222.245 130.267L218 124.021H221.125L223.86 128.335H223L225.71 124.021H228.835L224.585 130.267L224.61 129.126L228.86 135.392H225.725ZM233.975 135.65C233.287 135.679 232.602 135.541 231.975 135.25C231.511 135.012 231.126 134.64 230.87 134.18C230.621 133.705 230.452 133.191 230.37 132.659C230.293 132.064 230.255 131.465 230.255 130.865V124.021H232.92V131.118C232.889 131.393 232.917 131.672 233.003 131.935C233.09 132.198 233.232 132.438 233.42 132.639C233.76 132.889 234.171 133.021 234.59 133.014C235.039 133.013 235.484 132.926 235.9 132.756C236.343 132.585 236.755 132.342 237.12 132.036C237.476 131.755 237.779 131.412 238.015 131.022L238.22 132.467H237.65V124.021H240.315V135.392H238.315L237.765 133.293H238.5C238.118 133.761 237.678 134.177 237.19 134.53C236.717 134.879 236.199 135.161 235.65 135.366C235.12 135.554 234.562 135.65 234 135.65H233.975ZM245.025 124.021L245.69 127.124V135.392H243.025V124.021H245.025ZM245.21 128.401L244.655 128.148V126.12L244.865 125.841C245.069 125.512 245.316 125.214 245.6 124.954C245.949 124.62 246.343 124.338 246.77 124.117C247.203 123.891 247.683 123.771 248.17 123.768C248.386 123.767 248.602 123.782 248.815 123.813C248.992 123.827 249.163 123.883 249.315 123.975V126.424H248.575C247.787 126.378 247.002 126.554 246.305 126.931C245.771 127.264 245.381 127.789 245.21 128.401ZM254.5 134.155L250.04 124.016H252.795L256.84 133.222L254.5 134.155ZM251.74 139.817L258.705 124.021H261.46L254.5 139.817H251.74ZM197.33 150.93H200.435C201.255 150.975 202.061 150.699 202.685 150.159C202.973 149.887 203.199 149.553 203.345 149.183C203.492 148.812 203.557 148.413 203.535 148.015C203.565 147.608 203.506 147.199 203.364 146.817C203.221 146.435 202.998 146.09 202.71 145.804C202.076 145.28 201.272 145.014 200.455 145.059H197.33L197.86 144.451V158.361H195.195V142.494H200.775C201.789 142.468 202.79 142.718 203.675 143.219C204.489 143.672 205.159 144.351 205.605 145.176C206.073 146.046 206.309 147.024 206.29 148.015C206.306 149.007 206.07 149.986 205.605 150.859C205.152 151.672 204.484 152.341 203.675 152.79C202.784 153.272 201.785 153.513 200.775 153.49H197.33V150.93ZM210.085 146.991L210.755 150.088V158.361H208.09V146.991H210.085ZM210.27 151.371L209.72 151.112V149.084L209.925 148.806C210.13 148.477 210.377 148.179 210.66 147.918C211.011 147.584 211.407 147.3 211.835 147.077C212.27 146.854 212.749 146.736 213.235 146.732C213.451 146.731 213.667 146.746 213.88 146.778C214.057 146.79 214.229 146.846 214.38 146.94V149.383H213.645C212.855 149.338 212.068 149.513 211.37 149.89C210.834 150.228 210.442 150.755 210.27 151.371ZM220.615 158.625C219.559 158.648 218.514 158.391 217.585 157.88C216.725 157.398 216.016 156.679 215.54 155.806C215.07 154.839 214.826 153.775 214.826 152.696C214.826 151.618 215.07 150.554 215.54 149.586C216.011 148.705 216.72 147.978 217.585 147.493C218.523 147.003 219.563 146.748 220.618 146.748C221.673 146.748 222.712 147.003 223.65 147.493C224.505 147.977 225.2 148.705 225.65 149.586C226.133 150.55 226.385 151.615 226.385 152.696C226.385 153.777 226.133 154.843 225.65 155.806C225.194 156.678 224.5 157.398 223.65 157.88C222.72 158.391 221.674 158.648 220.615 158.625ZM220.615 156.019C221.03 156.036 221.443 155.964 221.827 155.806C222.212 155.649 222.559 155.41 222.845 155.107C223.428 154.441 223.732 153.573 223.695 152.684C223.734 151.802 223.429 150.94 222.845 150.286C222.562 149.976 222.216 149.733 221.831 149.572C221.446 149.411 221.031 149.336 220.615 149.353C220.202 149.336 219.79 149.408 219.407 149.565C219.023 149.721 218.677 149.958 218.39 150.26C217.802 150.922 217.496 151.794 217.54 152.684C217.5 153.573 217.806 154.443 218.39 155.107C218.677 155.409 219.023 155.645 219.407 155.801C219.791 155.957 220.203 156.028 220.615 156.009V156.019ZM234.275 158.625C233.356 158.665 232.447 158.421 231.668 157.926C230.889 157.431 230.276 156.708 229.91 155.852C229.501 154.856 229.29 153.788 229.29 152.709C229.29 151.63 229.501 150.562 229.91 149.566C230.29 148.723 230.894 148.005 231.655 147.493C232.437 146.987 233.349 146.728 234.275 146.747C235.234 146.715 236.181 146.967 237 147.472C237.791 147.979 238.421 148.706 238.815 149.566C239.237 150.547 239.455 151.606 239.455 152.676C239.455 153.746 239.237 154.805 238.815 155.786C238.416 156.637 237.787 157.356 237 157.86C236.184 158.375 235.237 158.641 234.275 158.625ZM228.415 162.797V146.991H230.415L231.085 149.485H230.855V155.568H231.085V162.792L228.415 162.797ZM233.84 156.207C234.237 156.219 234.631 156.139 234.994 155.974C235.356 155.809 235.676 155.563 235.93 155.254C236.488 154.533 236.773 153.634 236.735 152.719C236.777 151.794 236.491 150.885 235.93 150.154C235.68 149.839 235.361 149.587 234.998 149.417C234.636 149.247 234.239 149.165 233.84 149.176C233.442 149.168 233.047 149.253 232.685 149.422C232.323 149.592 232.003 149.842 231.75 150.154C231.189 150.872 230.903 151.773 230.945 152.689C230.903 153.614 231.189 154.523 231.75 155.254C232.008 155.557 232.33 155.799 232.691 155.961C233.053 156.123 233.445 156.202 233.84 156.192V156.207ZM246 158.595C244.989 158.617 243.99 158.366 243.105 157.87C242.28 157.373 241.605 156.656 241.155 155.796C240.678 154.837 240.441 153.773 240.465 152.699C240.439 151.616 240.676 150.544 241.155 149.576C241.6 148.708 242.276 147.982 243.105 147.482C243.986 146.972 244.986 146.715 246 146.737C247.025 146.712 248.036 146.977 248.92 147.503C249.757 147.996 250.434 148.725 250.87 149.601C251.346 150.552 251.583 151.608 251.56 152.674C251.568 152.814 251.568 152.954 251.56 153.094C251.56 153.22 251.552 153.345 251.535 153.469H242.815V151.3H249.55L249 152.542C249.041 151.607 248.783 150.685 248.265 149.911C248.007 149.567 247.668 149.295 247.28 149.118C246.891 148.941 246.465 148.865 246.04 148.897C245.641 148.878 245.242 148.945 244.869 149.093C244.497 149.242 244.16 149.469 243.88 149.759C243.339 150.372 243.057 151.177 243.095 151.999V153.231C243.055 154.074 243.336 154.9 243.88 155.538C244.171 155.824 244.517 156.046 244.896 156.19C245.276 156.334 245.681 156.397 246.085 156.374C246.775 156.418 247.46 156.231 248.035 155.842C248.517 155.477 248.931 155.027 249.255 154.514L251.165 155.68C250.708 156.589 250.006 157.348 249.14 157.87C248.176 158.391 247.092 158.641 246 158.595ZM255.56 146.991L256.225 150.088V158.361H253.56V146.991H255.56ZM255.745 151.371L255.19 151.112V149.084L255.4 148.806C255.601 148.475 255.849 148.176 256.135 147.918C256.484 147.583 256.878 147.299 257.305 147.077C257.741 146.854 258.222 146.736 258.71 146.732C258.924 146.731 259.138 146.746 259.35 146.778C259.527 146.792 259.698 146.847 259.85 146.94V149.383H259.115C258.325 149.338 257.538 149.513 256.84 149.89C256.31 150.23 255.923 150.758 255.755 151.371H255.745ZM266.275 158.569C265.344 158.62 264.43 158.302 263.725 157.682C263.115 157.079 262.805 156.131 262.805 154.843V146.991L263.305 144.36H265.5V154.61C265.486 154.794 265.509 154.979 265.568 155.154C265.628 155.328 265.722 155.488 265.845 155.624C266.09 155.846 266.412 155.963 266.74 155.948C266.964 155.95 267.188 155.935 267.41 155.903C267.588 155.877 267.763 155.838 267.935 155.786V158.321C267.696 158.404 267.45 158.466 267.2 158.508C266.898 158.557 266.591 158.577 266.285 158.569H266.275ZM261.085 149.444V146.975H267.905V149.444H261.085ZM273.78 157.104L269.32 146.965H272.075L276.12 156.166L273.78 157.104ZM271 162.787L278 146.991H280.76L273.8 162.787H271ZM197.15 174.639V172.079H203.515V174.639H197.15ZM197.08 168.024L197.84 167.045V179.486L197 178.766H204.88V181.326H195.195V165.464H204.865V167.998L197.08 168.024ZM214.08 181.326L211.345 176.997H212.175L209.44 181.326H206.315L210.565 175.06L210.59 176.201L206.34 169.96H209.5L212.23 174.269H211.38L214.095 169.96H217.22L212.97 176.201V175.06L217.22 181.326H214.08ZM224.74 181.585C223.81 181.606 222.893 181.354 222.1 180.86C221.348 180.362 220.75 179.659 220.375 178.832C219.966 177.835 219.756 176.766 219.756 175.686C219.756 174.607 219.966 173.537 220.375 172.541C220.756 171.697 221.363 170.979 222.125 170.467C222.905 169.962 223.815 169.702 224.74 169.722C225.688 169.691 226.623 169.945 227.429 170.451C228.234 170.957 228.875 171.693 229.27 172.566C229.693 173.547 229.91 174.606 229.91 175.676C229.91 176.746 229.693 177.805 229.27 178.786C228.87 179.637 228.24 180.355 227.455 180.86C226.643 181.355 225.708 181.607 224.76 181.585H224.74ZM218.885 185.752V169.96H220.885L221.555 172.449H221.325V178.533H221.555V185.752H218.885ZM224.305 179.161C224.702 179.173 225.096 179.094 225.459 178.929C225.821 178.764 226.141 178.517 226.395 178.208C226.919 177.463 227.2 176.571 227.2 175.656C227.2 174.741 226.919 173.849 226.395 173.103C226.145 172.787 225.827 172.535 225.464 172.365C225.101 172.195 224.705 172.113 224.305 172.125C223.907 172.117 223.511 172.201 223.149 172.37C222.787 172.54 222.468 172.79 222.215 173.103C221.654 173.822 221.368 174.722 221.41 175.638C221.369 176.563 221.654 177.473 222.215 178.203C222.474 178.513 222.797 178.76 223.163 178.926C223.528 179.092 223.925 179.172 224.325 179.161H224.305ZM236.75 181.585C235.694 181.607 234.649 181.35 233.72 180.839C232.861 180.356 232.152 179.637 231.675 178.766C231.205 177.798 230.961 176.734 230.961 175.656C230.961 174.577 231.205 173.513 231.675 172.546C232.146 171.663 232.855 170.935 233.72 170.447C234.658 169.957 235.698 169.702 236.753 169.702C237.808 169.702 238.847 169.957 239.785 170.447C240.639 170.935 241.334 171.664 241.785 172.546C242.265 173.51 242.515 174.576 242.515 175.656C242.515 176.736 242.265 177.801 241.785 178.766C241.327 179.636 240.633 180.355 239.785 180.839C238.86 181.347 237.822 181.604 236.77 181.585H236.75ZM236.75 178.974C237.164 178.99 237.577 178.918 237.961 178.762C238.345 178.605 238.693 178.368 238.98 178.066C239.564 177.402 239.869 176.532 239.83 175.643C239.851 175.206 239.787 174.77 239.641 174.358C239.495 173.947 239.271 173.569 238.98 173.245C238.697 172.936 238.351 172.692 237.966 172.531C237.581 172.37 237.166 172.296 236.75 172.313C236.337 172.296 235.926 172.369 235.542 172.525C235.159 172.682 234.812 172.918 234.525 173.22C233.937 173.882 233.631 174.753 233.675 175.643C233.637 176.532 233.942 177.402 234.525 178.066C234.815 178.371 235.164 178.609 235.551 178.765C235.938 178.922 236.354 178.993 236.77 178.974H236.75Z" fill="white"/>
<path d="M280.55 114.039C281.351 114.386 282.079 114.885 282.695 115.509C283.311 116.137 283.805 116.876 284.15 117.689C284.504 118.536 284.683 119.447 284.675 120.366C284.686 121.263 284.516 122.153 284.175 122.982C283.836 123.793 283.348 124.532 282.735 125.157C282.123 125.789 281.394 126.294 280.59 126.642C279.762 126.997 278.872 127.179 277.973 127.179C277.073 127.179 276.183 126.997 275.355 126.642C273.741 125.934 272.457 124.623 271.77 122.982C271.429 122.153 271.259 121.263 271.27 120.366C271.264 119.446 271.444 118.535 271.8 117.689C272.488 116.049 273.774 114.741 275.39 114.039C276.211 113.685 277.095 113.502 277.988 113.502C278.88 113.502 279.764 113.685 280.585 114.039H280.55ZM280.44 124.781C281.179 124.341 281.791 123.712 282.215 122.956C282.66 122.168 282.888 121.274 282.875 120.366C282.89 119.45 282.662 118.547 282.215 117.75C281.791 116.995 281.179 116.366 280.44 115.925C279.684 115.487 278.828 115.256 277.958 115.256C277.087 115.256 276.231 115.487 275.475 115.925C274.733 116.367 274.117 116.996 273.685 117.75C273.231 118.544 272.999 119.448 273.015 120.366C273.001 121.275 273.232 122.171 273.685 122.956C274.117 123.711 274.733 124.339 275.475 124.781C276.231 125.22 277.087 125.45 277.958 125.45C278.828 125.45 279.684 125.22 280.44 124.781ZM277.86 121.775C278.622 121.818 279.376 121.595 279.995 121.142C280.246 120.909 280.446 120.627 280.583 120.312C280.72 119.996 280.791 119.656 280.791 119.312C280.791 118.967 280.72 118.627 280.583 118.312C280.446 117.996 280.246 117.714 279.995 117.481C279.372 117.038 278.62 116.82 277.86 116.863H275.535V123.575H277.14V117.811L276.59 118.394H277.955C278.74 118.394 279.135 118.703 279.135 119.317C279.135 119.93 278.74 120.244 277.955 120.244H276.685V121.765L277.86 121.775ZM279.23 120.898H277.455L278.955 123.575H280.685L279.23 120.898Z" fill="white"/>
</g>
<defs>
<clipPath id="clip0_403_1389">
<rect width="249" height="73" fill="white" transform="translate(36 113)"/>
</clipPath>
</defs>
</svg>
