<svg width="300" height="90" viewBox="0 0 300 90" fill="none" xmlns="http://www.w3.org/2000/svg">
<path fill-rule="evenodd" clip-rule="evenodd" d="M36.4745 0.0116572H49.7907L81.7415 89.9417H68.3209L36.4745 0.0116572ZM11.8547 56.5415H43.0949L47.4969 68.9369H20.8645L13.3916 89.9446H0L11.8547 56.5415ZM131.66 0H118.347L150.193 89.9417H163.602L131.66 0ZM63.7623 0.0116572H77.0785L109.021 89.9417H95.6115L63.7623 0.0116572ZM213.529 0.0116572H200.216L232.065 89.9417H245.474L213.529 0.0116572ZM145.631 0.0116572H158.95L190.892 89.9417H177.483L145.631 0.0116572ZM104.36 0.0116572H91.0558L122.902 89.9417H136.311L104.36 0.0116572ZM227.495 0.0116572H240.811L272.753 89.9417H259.355L227.495 0.0116572ZM186.232 0.0116572H172.925L204.777 89.9417H218.183L186.232 0.0116572ZM254.745 0.0699476H268.061L300 90H286.594L254.745 0.0699476Z" fill="#E5B48A"/>
</svg>
