<svg width="100" height="100" viewBox="0 0 100 100" fill="none" xmlns="http://www.w3.org/2000/svg">
<g clip-path="url(#clip0_614_2372)">
<path d="M77.6287 26.4648L71.0566 33.099H99.9998V26.4648H77.6287Z" fill="white"/>
<path d="M6.99168 67.9043V26.4648L0 33.5264V74.5384H27.555V67.9043H6.99168Z" fill="white"/>
<path d="M63.6368 34.5398C62.3018 32.1013 60.3421 30.0697 57.9626 28.6578C55.3746 27.1572 52.4295 26.3989 49.4456 26.4649H32.584V33.099H48.2692C51.3487 33.099 53.8074 33.9131 55.6452 35.5413C57.4829 37.1695 58.4058 39.5801 58.4136 42.7731C58.4136 45.7867 57.479 48.1405 55.6099 49.8347C53.7407 51.5289 51.2651 52.3746 48.1829 52.372H39.5561L32.584 59.3742V74.5384H39.5796V59.01H49.3828C52.3804 59.0822 55.3417 58.337 57.9548 56.8528C60.3621 55.4751 62.3418 53.4479 63.6721 50.9984C65.0033 48.4586 65.6992 45.6287 65.6992 42.7553C65.6992 39.8818 65.0033 37.052 63.6721 34.5121L63.6368 34.5398Z" fill="white"/>
<path d="M77.6288 67.9033L71.0527 74.5374H99.9998V67.9033H77.6288Z" fill="white"/>
<path d="M77.6248 47.1865L71.0527 53.8206H99.9998V47.1865H77.6248Z" fill="white"/>
</g>
<defs>
<clipPath id="clip0_614_2372">
<rect width="100" height="100" fill="white"/>
</clipPath>
</defs>
</svg>
