<svg width="24" height="24" viewBox="0 0 24 24" fill="none" xmlns="http://www.w3.org/2000/svg">
<rect width="24" height="24" rx="4" fill="#DEDEDE"/>
<path d="M16.017 16.3766C16.016 16.3791 15.6257 17.3253 14.5784 16.8816C14.0098 16.6399 10.4679 13.8368 9.67582 13.2478C11.2184 11.9005 12.7615 10.5533 14.3036 9.20458L8.51189 12.777C7.56472 12.4671 6.61596 12.1592 5.66931 11.8473C4.8255 11.584 4.72846 10.6717 5.67248 10.3244L16.6705 6.13314C16.776 6.0896 18 5.63728 18 6.69457L16.017 16.3766ZM15.4322 16.164L17.3751 6.64846C17.3424 6.50759 16.9078 6.69098 16.9062 6.69149L5.8829 10.8909C5.53852 11.0021 5.53008 11.1588 5.87341 11.2777L8.42751 12.1131L15.3024 7.87376C15.5366 7.73545 15.8889 7.63761 16.093 7.87581C16.2992 8.11708 16.1262 8.41367 15.9253 8.59552C15.727 8.77532 11.8376 12.1725 10.6483 13.2109L14.8594 16.3417C15.2286 16.4806 15.3916 16.2398 15.4322 16.164Z" fill="black"/>
</svg>
