<svg width="24" height="24" viewBox="0 0 24 24" fill="none" xmlns="http://www.w3.org/2000/svg">
<rect width="24" height="24" rx="4" fill="#DEDEDE"/>
<path d="M14.375 11.5L11.5625 9.625V13.375L14.375 11.5Z" stroke="black" stroke-width="0.6" stroke-linecap="round" stroke-linejoin="round"/>
<path d="M6.40625 11.4996C6.40625 13.2431 6.58638 14.2661 6.72331 14.7918C6.75991 14.9354 6.8302 15.0682 6.92835 15.1792C7.02651 15.2902 7.1497 15.3762 7.28773 15.4301C9.24927 16.1839 12.5 16.1632 12.5 16.1632C12.5 16.1632 15.7507 16.1839 17.7123 15.4302C17.8503 15.3762 17.9735 15.2902 18.0716 15.1792C18.1698 15.0682 18.2401 14.9354 18.2767 14.7918C18.4136 14.2661 18.5938 13.2431 18.5938 11.4996C18.5938 9.75613 18.4136 8.73318 18.2767 8.20743C18.2401 8.06384 18.1698 7.93104 18.0716 7.82003C17.9735 7.70902 17.8503 7.623 17.7123 7.56909C15.7507 6.8153 12.5 6.83599 12.5 6.83599C12.5 6.83599 9.2493 6.8153 7.28775 7.56908C7.14972 7.62299 7.02653 7.70901 6.92837 7.82002C6.83021 7.93103 6.75992 8.06383 6.72332 8.20742C6.58638 8.73317 6.40625 9.75613 6.40625 11.4996Z" stroke="black" stroke-width="0.6" stroke-linecap="round" stroke-linejoin="round"/>
</svg>
