<svg width="24" height="24" viewBox="0 0 24 24" fill="none" xmlns="http://www.w3.org/2000/svg">
<rect width="24" height="24" rx="4" fill="#DEDEDE"/>
<g clip-path="url(#clip0_564_10209)">
<path d="M12.5 4C11.0166 4 9.5666 4.43987 8.33323 5.26398C7.09986 6.08809 6.13856 7.25943 5.57091 8.62987C5.00325 10.0003 4.85472 11.5083 5.14411 12.9632C5.4335 14.418 6.14781 15.7544 7.1967 16.8033C8.2456 17.8522 9.58197 18.5665 11.0368 18.8559C12.4917 19.1453 13.9997 18.9968 15.3701 18.4291C16.7406 17.8614 17.9119 16.9001 18.736 15.6668C19.5601 14.4334 20 12.9834 20 11.5C19.9978 9.51156 19.2069 7.6052 17.8008 6.19917C16.3948 4.79313 14.4884 4.00223 12.5 4ZM13.75 18.2591V13.6875H15.3125C15.3804 13.6875 15.4464 13.6653 15.5006 13.6245C15.5548 13.5836 15.5942 13.5262 15.6128 13.4609L16.2378 11.2734C16.2511 11.2269 16.2534 11.178 16.2446 11.1304C16.2358 11.0829 16.216 11.038 16.1869 10.9994C16.1578 10.9608 16.1201 10.9294 16.0768 10.9079C16.0336 10.8863 15.9859 10.875 15.9375 10.875H13.75V9H15.625C15.7079 9 15.7874 8.96708 15.846 8.90847C15.9046 8.84987 15.9375 8.77038 15.9375 8.6875V6.5C15.9375 6.41712 15.9046 6.33763 15.846 6.27903C15.7874 6.22042 15.7079 6.1875 15.625 6.1875H11.875C11.7095 6.18266 11.5448 6.21168 11.391 6.27279C11.2371 6.3339 11.0974 6.42579 10.9803 6.54285C10.8633 6.6599 10.7714 6.79963 10.7103 6.95348C10.6492 7.10733 10.6202 7.27203 10.625 7.4375V10.875H9.0625C8.97962 10.875 8.90014 10.9079 8.84153 10.9665C8.78293 11.0251 8.75 11.1046 8.75 11.1875V13.375C8.75 13.4579 8.78293 13.5374 8.84153 13.596C8.90014 13.6546 8.97962 13.6875 9.0625 13.6875H10.625V17.125C10.625 17.2079 10.6579 17.2874 10.7165 17.346C10.7751 17.4046 10.8546 17.4375 10.9375 17.4375C11.0204 17.4375 11.0999 17.4046 11.1585 17.346C11.2171 17.2874 11.25 17.2079 11.25 17.125V13.375C11.25 13.2921 11.2171 13.2126 11.1585 13.154C11.0999 13.0954 11.0204 13.0625 10.9375 13.0625H9.375V11.5H10.9375C11.0204 11.5 11.0999 11.4671 11.1585 11.4085C11.2171 11.3499 11.25 11.2704 11.25 11.1875V7.4375C11.2446 7.35403 11.2571 7.27038 11.2866 7.19211C11.3161 7.11385 11.362 7.04278 11.4211 6.98364C11.4803 6.92449 11.5514 6.87864 11.6296 6.84913C11.7079 6.81962 11.7915 6.80713 11.875 6.8125H15.3125V8.375H13.4375C13.3546 8.375 13.2751 8.40792 13.2165 8.46653C13.1579 8.52513 13.125 8.60462 13.125 8.6875V11.1875C13.125 11.2704 13.1579 11.3499 13.2165 11.4085C13.2751 11.4671 13.3546 11.5 13.4375 11.5H15.5231L15.0766 13.0625H13.4375C13.3546 13.0625 13.2751 13.0954 13.2165 13.154C13.1579 13.2126 13.125 13.2921 13.125 13.375V18.3453C12.9191 18.3641 12.7109 18.375 12.5 18.375C10.7289 18.3771 9.02512 17.6963 7.74305 16.4744C6.46098 15.2524 5.6993 13.5833 5.61639 11.8141C5.53349 10.0449 6.13575 8.31183 7.29792 6.97533C8.4601 5.63882 10.0927 4.80174 11.8563 4.63817C13.6198 4.4746 15.3786 4.99713 16.7667 6.09709C18.1549 7.19705 19.0656 8.78978 19.3095 10.544C19.5534 12.2983 19.1117 14.079 18.0763 15.516C17.0408 16.9529 15.4913 17.9354 13.75 18.2591Z" fill="black"/>
</g>
<defs>
<clipPath id="clip0_564_10209">
<rect width="15" height="15" fill="white" transform="translate(5 4)"/>
</clipPath>
</defs>
</svg>
