<svg width="24" height="24" viewBox="0 0 24 24" fill="none" xmlns="http://www.w3.org/2000/svg">
<rect width="24" height="24" rx="4" fill="#DEDEDE"/>
<path d="M12.5001 4.00002C10.6636 3.99994 8.89094 4.67348 7.51799 5.893C6.14504 7.11252 5.26724 8.79327 5.05095 10.6167C4.86599 12.2003 5.18746 13.8018 5.96924 15.1914L5.33634 17.3702C5.28429 17.5495 5.28135 17.7395 5.3278 17.9203C5.37426 18.1011 5.46842 18.2661 5.60044 18.3981C5.73247 18.5302 5.89752 18.6243 6.07836 18.6707C6.2592 18.7172 6.4492 18.7142 6.62851 18.6622L8.8082 18.03C9.93809 18.666 11.2128 19.0001 12.5095 19C13.9921 18.9979 15.4408 18.5566 16.6727 17.7318C17.9046 16.9069 18.8644 15.7356 19.4309 14.3657C19.9974 12.9957 20.1451 11.4887 19.8555 10.0349C19.5658 8.58102 18.8518 7.24561 17.8036 6.19729C17.1088 5.49864 16.2823 4.9447 15.3719 4.56755C14.4616 4.19039 13.4855 3.99749 12.5001 4.00002ZM17.2653 16.2648C16.1987 17.3392 14.7983 18.0188 13.2942 18.1917C11.8199 18.3643 10.3297 18.0481 9.05257 17.2917C9.0077 17.2649 8.9578 17.2477 8.90598 17.2411C8.85416 17.2344 8.80153 17.2385 8.75135 17.253L6.41608 17.9313C6.36777 17.9452 6.3166 17.946 6.2679 17.9335C6.21919 17.921 6.17474 17.8956 6.13918 17.8601C6.10362 17.8245 6.07826 17.7801 6.06573 17.7314C6.05321 17.6827 6.05399 17.6315 6.06798 17.5832L6.7463 15.248C6.76085 15.1978 6.76493 15.1452 6.75827 15.0933C6.75162 15.0415 6.73438 14.9916 6.70762 14.9468C5.9511 13.6698 5.63486 12.1799 5.8075 10.7058C6.00197 9.06764 6.79068 7.55775 8.02418 6.46222C9.25767 5.36669 10.8502 4.76165 12.5001 4.76174C13.833 4.76174 15.136 5.15694 16.2443 5.89737C17.3525 6.63779 18.2163 7.69019 18.7264 8.92148C19.2364 10.1528 19.3699 11.5076 19.1098 12.8147C18.8497 14.1219 18.2078 15.3225 17.2653 16.2648Z" fill="black"/>
<path d="M16.0437 12.9479L14.8806 12.0283C14.6881 11.8768 14.4491 11.8024 14.2076 11.8188C13.9662 11.8353 13.7387 11.9416 13.5671 12.1179L13.1126 12.5877C12.7655 12.4987 12.4426 12.3289 12.1687 12.0913L12.129 12.0567C12.0186 11.9608 11.9164 11.8551 11.8237 11.7409L11.7914 11.7012C11.5613 11.4179 11.397 11.084 11.3109 10.725L11.7651 10.2556C11.9356 10.0784 12.0385 9.84355 12.0546 9.59423C12.0707 9.3449 11.999 9.09797 11.8527 8.899L10.9629 7.6982C10.8209 7.50562 10.6202 7.36803 10.3933 7.30759C10.1664 7.24714 9.92638 7.26735 9.71192 7.36495L9.57986 7.42616C9.1992 7.59948 8.87424 7.88136 8.64307 8.23875C8.4119 8.59614 8.2841 9.01423 8.27466 9.44401C8.24586 10.8973 8.72872 12.312 9.63345 13.4249L9.69267 13.4962C9.91763 13.7728 10.1653 14.0288 10.4329 14.2613L10.5019 14.3225C11.548 15.2296 12.8696 15.7272 14.2351 15.728C14.2746 15.728 14.315 15.728 14.3562 15.728C14.7722 15.7179 15.1768 15.5854 15.5226 15.346C15.8683 15.1067 16.1408 14.7704 16.3081 14.3766L16.3673 14.2401C16.4614 14.0184 16.4806 13.7705 16.4219 13.5361C16.3632 13.3017 16.23 13.0946 16.0437 12.9479ZM15.6608 13.9213L15.6016 14.0578C15.4932 14.3122 15.3168 14.5295 15.0931 14.6841C14.8694 14.8387 14.6078 14.9241 14.3388 14.9305C14.3035 14.9305 14.2683 14.9305 14.2334 14.9305C13.0494 14.9299 11.9034 14.4988 10.9961 13.7126L10.9271 13.6514C10.6934 13.4484 10.4771 13.2249 10.2807 12.9834L10.2215 12.9117C9.43629 11.9458 9.01748 10.7179 9.04303 9.45655C9.04917 9.1785 9.13187 8.90802 9.28144 8.67681C9.43101 8.4456 9.64124 8.26324 9.88751 8.1511L10.0196 8.0899C10.0765 8.06438 10.1402 8.05946 10.2002 8.07596C10.2602 8.09245 10.3131 8.12938 10.3503 8.18078L11.2401 9.38158C11.2737 9.42717 11.2903 9.48381 11.2866 9.54103C11.283 9.59825 11.2594 9.65216 11.2202 9.69279L10.6198 10.3137C10.5766 10.3583 10.5443 10.4128 10.5256 10.4729C10.5068 10.5329 10.5022 10.5966 10.512 10.6589C10.6024 11.2318 10.8409 11.7689 11.2022 12.2134L11.2345 12.2529C11.3556 12.402 11.4891 12.5399 11.6333 12.6651L11.673 12.6997C12.103 13.0726 12.6223 13.3187 13.1763 13.4121C13.2366 13.4222 13.2983 13.4175 13.3564 13.3981C13.4146 13.3787 13.4674 13.3453 13.5106 13.3007L14.1114 12.6798C14.1507 12.6394 14.2029 12.615 14.2582 12.6113C14.3136 12.6075 14.3684 12.6246 14.4125 12.6593L15.5756 13.581C15.6245 13.6198 15.6595 13.6744 15.675 13.7361C15.6904 13.7978 15.6855 13.8631 15.6608 13.9216V13.9213Z" fill="black"/>
</svg>
