<svg width="99" height="21" viewBox="0 0 99 21" fill="none" xmlns="http://www.w3.org/2000/svg">
<path d="M19.6084 12.873H13.9393L11.7852 18.923H14.219L15.5758 15.1244H20.4157L19.6084 12.873Z" fill="white"/>
<path d="M20.8223 2.6582H18.4023L24.1905 18.9236H26.6263L20.8223 2.6582Z" fill="white"/>
<path d="M6.06995 18.9932C5.01205 19.0004 3.96449 18.7848 2.9954 18.3605C2.11278 17.995 1.34765 17.3939 0.783696 16.6228C0.265988 15.8877 -0.00805084 15.0087 0.000180131 14.1096V14.0263H2.26544V14.1096C2.25025 14.531 2.33529 14.9499 2.51358 15.332C2.69186 15.7141 2.95828 16.0484 3.29095 16.3075C4.09899 16.8828 5.07722 17.1693 6.06797 17.1207C7.14307 17.1207 7.97816 16.8986 8.54547 16.4483C8.93281 16.1241 9.20626 15.6845 9.32582 15.1938C9.44539 14.703 9.40479 14.1869 9.20997 13.7209C9.07621 13.4197 8.87214 13.1551 8.6149 12.9492C8.0833 12.5367 7.09944 12.1201 5.69109 11.7135C3.90586 11.1958 2.57686 10.5531 1.75565 9.79732C1.35563 9.4422 1.03691 9.00496 0.82125 8.51545C0.605589 8.02593 0.498058 7.49565 0.505994 6.9608C0.504574 6.35708 0.642351 5.76116 0.908619 5.21934C1.17489 4.67751 1.56248 4.20436 2.04129 3.83665C3.04895 3.01346 4.37399 2.59691 5.97673 2.59691C6.99388 2.57743 8.00163 2.79474 8.92037 3.23165C9.74375 3.62221 10.4422 4.23415 10.9377 4.99903C11.4061 5.73583 11.6532 6.59155 11.6498 7.46463V7.56579H9.38056V7.48248C9.40068 7.07612 9.33303 6.6702 9.1822 6.29233C9.0313 5.91052 8.79836 5.56652 8.49985 5.28466C7.90477 4.75306 7.06572 4.49123 5.98268 4.49123C5.14507 4.44332 4.3159 4.68033 3.63014 5.16367C3.35672 5.37905 3.13879 5.65672 2.99455 5.97349C2.85031 6.29027 2.78395 6.63695 2.801 6.9846C2.80066 7.28938 2.87273 7.58987 3.01126 7.86135C3.14772 8.13411 3.34607 8.37118 3.59047 8.55362C4.12604 8.99001 5.05238 9.39664 6.34964 9.7636C7.42471 10.0316 8.46123 10.4355 9.43412 10.9657C10.1159 11.3494 10.6934 11.8942 11.1162 12.5525C11.4932 13.2016 11.6834 13.9424 11.6657 14.6928C11.6806 15.3014 11.5493 15.9048 11.2829 16.4522C11.0164 16.9996 10.6226 17.4751 10.1343 17.8388C9.11873 18.6104 7.75005 18.9932 6.06995 18.9932Z" fill="white"/>
<path d="M25.2383 2.59375H22.8203L28.6064 18.8592H31.0423L25.2383 2.59375Z" fill="white"/>
<path d="M39.6428 5.33372C39.6373 4.88765 39.7195 4.44484 39.8848 4.0305C40.0452 3.64276 40.282 3.29129 40.5811 2.99705C40.8818 2.70467 41.2369 2.47419 41.6264 2.31867C42.0444 2.15388 42.4903 2.0717 42.9396 2.07667C43.3824 2.07163 43.8218 2.15386 44.2329 2.31867C44.6197 2.47259 44.9712 2.70337 45.2663 2.99705C45.5649 3.29009 45.7993 3.64202 45.9546 4.0305C46.2905 4.86342 46.2905 5.7941 45.9546 6.62702C45.798 7.01772 45.5639 7.37265 45.2663 7.67038C44.9712 7.96406 44.6197 8.19484 44.2329 8.34877C43.8218 8.51357 43.3824 8.5958 42.9396 8.59077C42.4903 8.59574 42.0444 8.51356 41.6264 8.34877C41.2348 8.19485 40.8786 7.96283 40.5795 7.66683C40.2805 7.37082 40.0448 7.01704 39.8868 6.62702C39.7213 6.21613 39.6384 5.77666 39.6428 5.33372ZM40.591 5.33372C40.5848 5.76027 40.6908 6.18096 40.8985 6.55362C41.0981 6.90209 41.3871 7.19103 41.7355 7.3907C42.1017 7.59845 42.5167 7.7046 42.9376 7.69815C43.3548 7.70539 43.7662 7.59912 44.1277 7.3907C44.471 7.19028 44.754 6.90114 44.947 6.55362C45.1546 6.18096 45.2606 5.76027 45.2544 5.33372C45.2621 4.90699 45.156 4.48591 44.947 4.11381C44.754 3.7663 44.471 3.47715 44.1277 3.27674C43.7662 3.06831 43.3548 2.96204 42.9376 2.96928C42.5167 2.96284 42.1017 3.06899 41.7355 3.27674C41.3871 3.4764 41.0981 3.76535 40.8985 4.11381C40.6901 4.4861 40.5847 4.90717 40.593 5.33372H40.591ZM47.7835 3.95711L48.0056 5.18495V8.49754H47.0753V3.95711H47.7835ZM47.8668 5.5658L47.6426 5.46463V4.78426L47.726 4.6831C47.8045 4.55115 47.9021 4.4315 48.0156 4.32804C48.1563 4.19633 48.3161 4.08665 48.4896 4.00273C48.6589 3.91288 48.8474 3.86525 49.0391 3.86388C49.126 3.86342 49.2129 3.86938 49.2989 3.88173C49.3694 3.88717 49.4375 3.90963 49.4973 3.94719V4.78426H49.2097C48.8896 4.76082 48.5695 4.82966 48.2873 4.98262C48.0837 5.12189 47.9355 5.32832 47.8688 5.5658H47.8668ZM51.9569 10.3403C51.7047 10.3421 51.4538 10.3046 51.2131 10.2292C50.9802 10.1601 50.7646 10.0425 50.5803 9.88407C50.377 9.70136 50.2072 9.48453 50.0785 9.24337L50.013 9.12237L50.747 8.72565C50.8772 8.95539 51.0511 9.15753 51.2587 9.32073C51.5024 9.47502 51.7904 9.54413 52.0776 9.51721C52.3647 9.49028 52.6348 9.36886 52.8456 9.17196C53.0678 8.93591 53.1808 8.57688 53.1808 8.08297V7.11498H53.2741V4.86757H53.1808L53.403 3.95711H54.123V7.92428C54.1392 8.38835 54.0397 8.84916 53.8334 9.26519C53.6671 9.60163 53.4011 9.87867 53.0717 10.0586C52.7317 10.2479 52.3481 10.3449 51.9589 10.3403H51.9569ZM51.8479 8.2119C51.4583 8.21955 51.0735 8.12591 50.7311 7.94015C50.4168 7.76437 50.1588 7.50299 49.9872 7.18639C49.8066 6.83244 49.7166 6.43916 49.7254 6.04186C49.7158 5.64447 49.8058 5.25099 49.9872 4.89733C50.1573 4.57707 50.4154 4.31211 50.7311 4.13365C51.0723 3.94407 51.4576 3.84826 51.8479 3.85595C52.2175 3.84728 52.582 3.94357 52.8991 4.13365C53.2041 4.31429 53.4502 4.57958 53.6073 4.89733C53.782 5.25305 53.8684 5.64565 53.8592 6.04186C53.8673 6.43796 53.7809 6.83029 53.6073 7.18639C53.4487 7.50054 53.2028 7.76226 52.8991 7.94015C52.5808 8.12675 52.2167 8.22087 51.8479 8.2119ZM51.9589 7.41847C52.1305 7.42654 52.3017 7.39738 52.461 7.33301C52.6202 7.26864 52.7636 7.17058 52.8813 7.04555C53.125 6.76959 53.2516 6.4096 53.2344 6.04186C53.2514 5.67773 53.1246 5.3215 52.8813 5.05006C52.765 4.9226 52.6221 4.82225 52.4627 4.75609C52.3033 4.68994 52.1313 4.65961 51.9589 4.66723C51.7863 4.65868 51.6139 4.68737 51.4534 4.75138C51.2929 4.81538 51.148 4.91319 51.0286 5.03816C50.7993 5.32088 50.6741 5.67385 50.6741 6.03789C50.6741 6.40193 50.7993 6.75491 51.0286 7.03762C51.148 7.16324 51.2926 7.26214 51.453 7.32779C51.6133 7.39343 51.7858 7.42434 51.9589 7.41847ZM56.6362 8.62845C56.3218 8.63709 56.0096 8.57329 55.7238 8.442C55.477 8.32877 55.2698 8.14433 55.1287 7.91238C54.9927 7.65398 54.9244 7.36529 54.9303 7.07332C54.922 6.79561 54.9906 6.521 55.1287 6.27989C55.2695 6.04034 55.476 5.8462 55.7238 5.72052C56.0034 5.5802 56.3136 5.51201 56.6263 5.52216C56.9968 5.50321 57.3631 5.60787 57.6677 5.8197C57.9375 6.0143 58.1344 6.29361 58.2271 6.61313H57.7054V5.45472C57.7034 5.26039 57.6332 5.07294 57.507 4.9251C57.4176 4.83539 57.3091 4.76703 57.1896 4.72513C57.07 4.68322 56.9426 4.66886 56.8167 4.6831C56.3967 4.6898 55.9824 4.78157 55.5988 4.95287L55.333 4.24473C55.5859 4.12184 55.8521 4.02866 56.1264 3.96703C56.3865 3.90586 56.6527 3.87458 56.9199 3.8738C57.256 3.85731 57.5908 3.92768 57.8918 4.07811C58.1356 4.20768 58.3341 4.4083 58.4611 4.65335C58.5856 4.8991 58.6489 5.1713 58.6456 5.44678V8.4896H57.9771L57.7431 7.66245L58.237 7.52161C58.1457 7.86097 57.9342 8.15562 57.6419 8.35075C57.3404 8.53827 56.9912 8.6347 56.6362 8.62845ZM56.8029 7.79932C57.0378 7.81043 57.27 7.74576 57.4654 7.61484C57.5472 7.55105 57.6126 7.46861 57.656 7.37441C57.6995 7.28021 57.7198 7.17697 57.7153 7.07332C57.7209 6.96982 57.701 6.86653 57.6574 6.77248C57.6139 6.67843 57.5479 6.59648 57.4654 6.53379C57.2662 6.41194 57.0373 6.34746 56.8038 6.34746C56.5704 6.34746 56.3415 6.41194 56.1423 6.53379C56.0595 6.59638 55.9933 6.67826 55.9494 6.77229C55.9055 6.86633 55.8852 6.96967 55.8904 7.07332C55.8863 7.17712 55.907 7.28041 55.9508 7.37459C55.9946 7.46878 56.0603 7.55114 56.1423 7.61484C56.3371 7.74548 56.5686 7.81014 56.8029 7.79932ZM62.3986 3.86388C62.6634 3.85045 62.927 3.90797 63.1622 4.0305C63.3422 4.12861 63.4856 4.28241 63.5709 4.46887C63.6616 4.66207 63.7186 4.86937 63.7395 5.0818C63.7642 5.31704 63.7768 5.5534 63.7771 5.78994V8.49754H62.8508V5.59357C62.8508 5.27223 62.7774 5.05403 62.6286 4.94295C62.4823 4.82994 62.3017 4.77044 62.1169 4.77435C61.9128 4.77793 61.7111 4.81894 61.5218 4.89534C61.322 4.97362 61.1363 5.08419 60.9724 5.22264C60.819 5.34844 60.6922 5.50353 60.5994 5.67886V5.15718H60.7482V8.49754H59.8179V3.95711H60.526L60.7244 4.75054L60.4923 4.77831C60.6588 4.58711 60.8495 4.41841 61.0596 4.27647C61.2602 4.1412 61.4803 4.03751 61.7122 3.96901C61.9341 3.89847 62.1657 3.863 62.3986 3.86388ZM65.8778 8.49754H64.9475V3.95711H65.8778V8.49754ZM64.8066 2.56066C64.7997 2.39934 64.8567 2.24181 64.9653 2.12229C65.0234 2.06349 65.093 2.01742 65.1699 1.98703C65.2467 1.95664 65.329 1.94258 65.4116 1.94575C65.493 1.94258 65.5741 1.95667 65.6497 1.9871C65.7253 2.01753 65.7935 2.0636 65.85 2.12229C65.906 2.18026 65.9497 2.24901 65.9783 2.32437C66.0069 2.39973 66.02 2.48012 66.0166 2.56066C66.0211 2.72245 65.9611 2.8794 65.85 2.99705C65.7922 3.05343 65.7235 3.09745 65.6481 3.12643C65.5728 3.15542 65.4923 3.16876 65.4116 3.16566C65.3296 3.16986 65.2476 3.15706 65.1708 3.12804C65.094 3.09902 65.024 3.05443 64.9653 2.99705C64.859 2.87695 64.8023 2.72098 64.8066 2.56066ZM70.3607 7.64261V8.49754H66.8497V7.77155L69.474 4.41135L69.7815 4.80807H66.9053V3.95711H70.321V4.6831L67.6868 8.04131L67.1195 7.6446L70.3607 7.64261ZM72.5902 8.63441C72.2758 8.64325 71.9635 8.57945 71.6778 8.44795C71.431 8.33473 71.2238 8.15028 71.0827 7.91833C70.9457 7.66027 70.8774 7.37134 70.8843 7.07927C70.876 6.80156 70.9446 6.52695 71.0827 6.28584C71.2211 6.04795 71.424 5.85404 71.6679 5.72647C71.9482 5.58638 72.2591 5.51822 72.5724 5.52811C72.9429 5.50916 73.3092 5.61382 73.6138 5.82565C73.8836 6.02025 74.0805 6.29956 74.1731 6.61908H73.6514V5.45472C73.6503 5.26023 73.58 5.07249 73.4531 4.9251C73.3241 4.76244 73.0941 4.6831 72.7648 4.6831C72.3441 4.69008 71.9292 4.78183 71.5449 4.95287L71.285 4.24473C71.5379 4.12184 71.8041 4.02866 72.0784 3.96703C72.3385 3.90586 72.6047 3.87458 72.8719 3.8738C73.2076 3.86106 73.5409 3.93483 73.8399 4.08802C74.0831 4.21761 74.281 4.41828 74.4072 4.66327C74.5332 4.90854 74.5972 5.18096 74.5936 5.4567V8.49952H73.9232L73.6911 7.67237L74.185 7.53153C74.0927 7.87042 73.8815 8.16475 73.5899 8.36067C73.2888 8.54459 72.941 8.63759 72.5882 8.62845L72.5902 8.63441ZM72.7568 7.80527C72.9912 7.81666 73.2229 7.75195 73.4174 7.62079C73.4998 7.55743 73.5657 7.47513 73.6096 7.38086C73.6534 7.28659 73.6739 7.18314 73.6693 7.07927C73.675 6.97555 73.6549 6.87203 73.611 6.77791C73.5671 6.68379 73.5005 6.60197 73.4174 6.53974C73.2186 6.41785 72.99 6.35334 72.7568 6.35334C72.5237 6.35334 72.2951 6.41785 72.0963 6.53974C72.0131 6.60197 71.9466 6.68379 71.9027 6.77791C71.8587 6.87203 71.8387 6.97555 71.8444 7.07927C71.8402 7.18231 71.8606 7.28487 71.9041 7.37838C71.9476 7.47189 72.0128 7.55365 72.0943 7.61683C72.2891 7.74728 72.5208 7.8113 72.7549 7.79932L72.7568 7.80527ZM77.2953 8.5987C77.1219 8.60735 76.9485 8.58128 76.7854 8.52201C76.6222 8.46274 76.4725 8.37147 76.3451 8.25356C76.1151 8.01751 76.002 7.65848 76.002 7.16457V3.95711L76.1785 2.93159H76.9343V7.16655C76.928 7.23795 76.9362 7.30987 76.9584 7.37803C76.9805 7.44619 77.0162 7.50919 77.0632 7.56327C77.1566 7.6506 77.2806 7.69764 77.4084 7.69419C77.5019 7.69495 77.5954 7.68899 77.688 7.67633C77.7604 7.66501 77.8319 7.6491 77.9023 7.62873V8.49555C77.8135 8.52153 77.7235 8.54272 77.6325 8.55903C77.5206 8.57868 77.4069 8.58666 77.2933 8.58283L77.2953 8.5987ZM75.3117 4.82989V3.95711H77.9082V4.81203L75.3117 4.82989ZM79.9097 8.49754H78.9793V3.95711H79.9097V8.49754ZM78.8385 2.56066C78.8316 2.39934 78.8886 2.24181 78.9972 2.12229C79.0553 2.06349 79.1249 2.01742 79.2018 1.98703C79.2786 1.95664 79.3609 1.94258 79.4435 1.94575C79.5249 1.94258 79.606 1.95667 79.6816 1.9871C79.7571 2.01753 79.8254 2.0636 79.8819 2.12229C79.9379 2.18026 79.9816 2.24901 80.0102 2.32437C80.0388 2.39973 80.0519 2.48012 80.0485 2.56066C80.053 2.72245 79.993 2.8794 79.8819 2.99705C79.8241 3.05343 79.7554 3.09745 79.68 3.12643C79.6047 3.15542 79.5242 3.16876 79.4435 3.16566C79.3615 3.16986 79.2795 3.15706 79.2027 3.12804C79.1259 3.09902 79.0559 3.05443 78.9972 2.99705C78.8916 2.87666 78.8356 2.72071 78.8405 2.56066H78.8385ZM83.1707 8.59077C82.7469 8.59947 82.3279 8.5005 81.9527 8.30315C81.6091 8.10935 81.3277 7.82177 81.1415 7.47401C80.9425 7.09235 80.8436 6.66651 80.8538 6.23625C80.8433 5.80279 80.9422 5.37367 81.1415 4.98857C81.3278 4.64135 81.6092 4.35442 81.9527 4.16142C82.326 3.9581 82.7457 3.85555 83.1707 3.86388C83.5964 3.85381 84.0173 3.95646 84.3906 4.16142C84.7331 4.35507 85.0137 4.64188 85.1999 4.98857C85.4053 5.37173 85.5078 5.80162 85.4974 6.23625C85.5074 6.66767 85.4048 7.09425 85.1999 7.47401C85.0138 7.82124 84.7332 8.1087 84.3906 8.30315C84.0159 8.50174 83.5966 8.60078 83.1727 8.59077H83.1707ZM83.1707 7.69815C83.3547 7.70674 83.5385 7.67577 83.7096 7.60734C83.8807 7.5389 84.0351 7.43459 84.1625 7.30144C84.4098 7.00156 84.545 6.62496 84.545 6.23625C84.545 5.84754 84.4098 5.47094 84.1625 5.17106C84.0368 5.03476 83.883 4.92744 83.7118 4.85653C83.5405 4.78563 83.3559 4.75285 83.1707 4.76046C82.9856 4.75416 82.8014 4.78754 82.6303 4.85837C82.4592 4.92919 82.3053 5.03581 82.1789 5.17106C81.9213 5.46209 81.7875 5.84212 81.806 6.2303C81.7886 6.62191 81.9221 7.00528 82.1789 7.30144C82.3073 7.43372 82.4622 7.53743 82.6334 7.60579C82.8047 7.67415 82.9884 7.70562 83.1727 7.69815H83.1707ZM88.9746 3.86388C89.2388 3.85062 89.5018 3.90814 89.7363 4.0305C89.9164 4.12917 90.0602 4.28275 90.1469 4.46887C90.2379 4.66186 90.2943 4.86932 90.3136 5.0818C90.3393 5.31696 90.3519 5.55338 90.3513 5.78994V8.49754H89.4309V5.59357C89.4309 5.27223 89.3555 5.05403 89.2067 4.94295C89.0604 4.82994 88.8798 4.77044 88.695 4.77435C88.4909 4.77793 88.2892 4.81894 88.0999 4.89534C87.9002 4.974 87.7147 5.08454 87.5504 5.22264C87.3971 5.34794 87.2709 5.50317 87.1795 5.67886V5.15718H87.3283V8.49754H86.396V3.95711H87.1041L87.3025 4.75054L87.0684 4.77831C87.2352 4.58659 87.4266 4.41783 87.6377 4.27647C87.8375 4.14122 88.057 4.03752 88.2883 3.96901C88.5109 3.89861 88.7431 3.86315 88.9766 3.86388H88.9746ZM42.8463 18.9034C42.2571 18.9164 41.6751 18.7719 41.1603 18.4849C40.6897 18.2057 40.3037 17.8039 40.0435 17.3225C39.7737 16.8056 39.6373 16.2294 39.6468 15.6464C39.6412 15.2003 39.7235 14.7575 39.8888 14.3432C40.0421 13.9584 40.2691 13.6073 40.5573 13.3097C40.8479 13.019 41.193 12.7885 41.5729 12.6313C41.978 12.4675 42.4114 12.3853 42.8483 12.3893C43.4683 12.3631 44.0825 12.5182 44.6157 12.8356C45.0819 13.1355 45.4685 13.5439 45.7424 14.0258L44.8299 14.2956C44.6012 13.9521 44.2829 13.6778 43.9095 13.5021C43.5748 13.3569 43.2132 13.2839 42.8483 13.2879C42.4425 13.2821 42.043 13.3885 41.6939 13.5954C41.3618 13.8015 41.0885 14.0898 40.9004 14.4324C40.6973 14.8064 40.5948 15.2268 40.6029 15.6523C40.5963 16.0777 40.6987 16.4977 40.9004 16.8722C41.0885 17.2149 41.3618 17.5032 41.6939 17.7093C42.043 17.9161 42.4425 18.0225 42.8483 18.0168C43.2373 18.0219 43.6213 17.9292 43.9651 17.747C44.2956 17.5702 44.5745 17.3104 44.7744 16.9932C44.9749 16.6688 45.0782 16.2936 45.0719 15.9122L45.2108 16.4537H42.7908V15.5789H45.9011C45.92 15.6484 45.9326 15.7195 45.9387 15.7912C45.9504 15.8687 45.9563 15.9469 45.9566 16.0253C45.9592 16.4097 45.8801 16.7904 45.7245 17.142C45.5676 17.4901 45.3423 17.8031 45.062 18.0624C44.7763 18.3346 44.4391 18.5471 44.0702 18.6872C43.6797 18.8366 43.2643 18.9099 42.8463 18.9034ZM47.4403 14.2698L47.6625 15.4976V18.8102H46.7322V14.2698H47.4403ZM47.5236 15.8785L47.2995 15.7773V15.0969L47.3828 14.9958C47.4613 14.8638 47.5589 14.7442 47.6724 14.6407C47.8128 14.5086 47.9727 14.3988 48.1465 14.3154C48.3158 14.2255 48.5043 14.1779 48.6959 14.1765C48.7829 14.1761 48.8697 14.1821 48.9558 14.1944C49.0262 14.1998 49.0943 14.2223 49.1541 14.2599V15.0969H48.8645C48.5451 15.0736 48.2257 15.1425 47.9442 15.2953C47.7398 15.4342 47.5909 15.6407 47.5236 15.8785ZM51.6614 18.9034C51.237 18.9123 50.8172 18.8133 50.4415 18.6158C50.0984 18.422 49.8177 18.1344 49.6322 17.7867C49.4316 17.4034 49.3319 16.9754 49.3426 16.543C49.3326 16.1093 49.4323 15.6802 49.6322 15.2953C49.8183 14.9486 50.0989 14.6618 50.4415 14.4681C50.8153 14.2646 51.2358 14.162 51.6614 14.1706C52.0865 14.1608 52.5066 14.2634 52.8793 14.4681C53.2229 14.6611 53.5043 14.9481 53.6906 15.2953C53.896 15.6784 53.9985 16.1083 53.9881 16.543C53.9981 16.9744 53.8956 17.401 53.6906 17.7807C53.505 18.1289 53.2234 18.4167 52.8793 18.6099C52.5053 18.8106 52.0858 18.9117 51.6614 18.9034ZM51.6614 18.0108C51.8454 18.0191 52.0291 17.9881 52.2002 17.9196C52.3712 17.8512 52.5257 17.7471 52.6532 17.6141C52.8994 17.3137 53.034 16.9373 53.034 16.5489C53.034 16.1605 52.8994 15.7841 52.6532 15.4837C52.5275 15.3475 52.3737 15.2403 52.2024 15.1694C52.0312 15.0985 51.8466 15.0656 51.6614 15.0731C51.4763 15.0666 51.292 15.0998 51.1209 15.1707C50.9498 15.2415 50.7959 15.3483 50.6696 15.4837C50.4118 15.7754 50.278 16.1561 50.2967 16.5449C50.2792 16.936 50.4127 17.3188 50.6696 17.6141C50.7977 17.7463 50.9522 17.85 51.1231 17.9184C51.294 17.9868 51.4775 18.0183 51.6614 18.0108ZM56.2554 18.9034C55.9763 18.9165 55.6982 18.8628 55.4441 18.7467C55.2585 18.6469 55.1067 18.4944 55.0077 18.3084C54.912 18.1123 54.849 17.9019 54.8212 17.6855C54.7965 17.4503 54.7839 17.2139 54.7836 16.9774V14.2698H55.7099V17.1737C55.7099 17.4951 55.7813 17.7133 55.9241 17.8244C56.0747 17.9366 56.2581 17.9959 56.4458 17.993C56.65 17.9905 56.8519 17.9494 57.0409 17.872C57.2407 17.7937 57.4263 17.6831 57.5903 17.5447C57.7439 17.4191 57.8707 17.2639 57.9632 17.0885V17.6101H57.8145V14.2698H58.7448V18.8102H58.0505L57.8522 18.0168L58.0842 17.989C57.9262 18.1783 57.7449 18.3469 57.5447 18.4909C57.3523 18.6242 57.1428 18.7309 56.9219 18.8082C56.7057 18.873 56.4811 18.9051 56.2554 18.9034ZM62.2458 18.9034C61.8692 18.9125 61.4979 18.8127 61.1767 18.6158C60.8657 18.4107 60.6172 18.1238 60.4586 17.7867C60.2845 17.3977 60.1991 16.9749 60.2087 16.5489C60.1988 16.1197 60.2841 15.6936 60.4586 15.3012C60.6178 14.965 60.8661 14.6789 61.1767 14.4741C61.4958 14.2714 61.8679 14.1679 62.2458 14.1765C62.6279 14.1653 63.0049 14.2657 63.3308 14.4655C63.6567 14.6653 63.9173 14.9557 64.0806 15.3012C64.2613 15.6919 64.3502 16.1186 64.3405 16.5489C64.3499 16.976 64.261 17.3995 64.0806 17.7867C63.9191 18.1274 63.6638 18.415 63.3447 18.6158C63.0159 18.812 62.6385 18.9117 62.2557 18.9034H62.2458ZM59.9468 20.5796V14.2698H60.655L60.8791 15.1802H60.7859V17.7688H60.8791V20.5796H59.9468ZM62.107 18.104C62.2846 18.1096 62.4612 18.0738 62.6226 17.9995C62.7841 17.9251 62.926 17.8142 63.0373 17.6756C63.2676 17.3436 63.391 16.9491 63.391 16.5449C63.391 16.1408 63.2676 15.7463 63.0373 15.4143C62.925 15.278 62.7841 15.168 62.6246 15.0922C62.4651 15.0164 62.2909 14.9766 62.1142 14.9757C61.9376 14.9747 61.763 15.0126 61.6027 15.0867C61.4424 15.1608 61.3003 15.2693 61.1866 15.4044C60.9554 15.738 60.8315 16.1341 60.8315 16.54C60.8315 16.9458 60.9554 17.342 61.1866 17.6756C61.2961 17.8137 61.4363 17.9243 61.5961 17.9987C61.7559 18.0731 61.9308 18.1092 62.107 18.104Z" fill="white"/>
<path d="M97.3645 0.208217C98.0066 0.48277 98.5181 0.994301 98.7927 1.6364C98.9295 1.96446 98.9999 2.31638 98.9999 2.67183C98.9999 3.02728 98.9295 3.37921 98.7927 3.70726C98.6579 4.02515 98.464 4.31458 98.2214 4.5602C97.9776 4.80757 97.6879 5.00499 97.3684 5.1414C97.0399 5.27888 96.6872 5.34968 96.331 5.34968C95.9748 5.34968 95.6222 5.27888 95.2936 5.1414C94.9745 5.0045 94.6848 4.80714 94.4407 4.5602C94.198 4.31458 94.0042 4.02515 93.8694 3.70726C93.7326 3.37921 93.6621 3.02728 93.6621 2.67183C93.6621 2.31638 93.7326 1.96446 93.8694 1.6364C94.0049 1.31852 94.2002 1.02963 94.4446 0.78544C94.6887 0.542144 94.9759 0.346403 95.2916 0.208217C95.6178 0.0707943 95.9682 0 96.3221 0C96.676 0 97.0264 0.0707943 97.3526 0.208217H97.3645ZM97.3228 4.41144C97.6159 4.23902 97.8587 3.99281 98.027 3.69735C98.2035 3.38902 98.2939 3.03895 98.2888 2.68373C98.2911 2.32657 98.198 1.97527 98.0191 1.66615C97.8508 1.37068 97.608 1.12448 97.3149 0.952062C97.0148 0.780167 96.6749 0.689733 96.329 0.689733C95.9832 0.689733 95.6433 0.780167 95.3432 0.952062C95.0417 1.12984 94.7926 1.38423 94.6212 1.68941C94.4498 1.99459 94.3622 2.3397 94.3673 2.68968C94.3621 3.04569 94.4547 3.39629 94.6351 3.7033C94.8058 3.99821 95.0497 4.24414 95.3432 4.41739C95.6433 4.58928 95.9832 4.67972 96.329 4.67972C96.6749 4.67972 97.0148 4.58928 97.3149 4.41739L97.3228 4.41144ZM96.2993 3.23715C96.6015 3.25276 96.9002 3.16534 97.1463 2.9892C97.2458 2.89814 97.3253 2.78736 97.3796 2.66391C97.434 2.54045 97.4621 2.40703 97.4621 2.27214C97.4621 2.13724 97.434 2.00382 97.3796 1.88037C97.3253 1.75692 97.2458 1.64614 97.1463 1.55507C96.8987 1.38259 96.6007 1.29745 96.2993 1.31307H95.3749V3.94133H96.0136V1.684L95.7776 1.91212H96.3211C96.6325 1.91212 96.7873 2.03312 96.7873 2.27511C96.7873 2.51711 96.6325 2.63613 96.3211 2.63613H95.8173V3.2312L96.2993 3.23715ZM96.8428 2.89399H96.1366L96.7317 3.94133H97.416L96.8428 2.89399Z" fill="white"/>
</svg>
