<svg width="24" height="24" viewBox="0 0 24 24" fill="none" xmlns="http://www.w3.org/2000/svg">
<rect width="24" height="24" rx="4" fill="#DEDEDE"/>
<path d="M7.81257 15.7188C7.81257 15.7188 10.1563 15.25 10.6251 13.8438C10.6251 13.8438 6.87507 12.4375 7.81257 7.28125C7.81257 7.28125 9.68757 9.625 12.5001 10.0938V9.15642C12.5001 8.61792 12.6856 8.09586 13.0253 7.678C13.3649 7.26015 13.8381 6.97198 14.3653 6.86196C14.8924 6.75193 15.4413 6.82675 15.9198 7.07384C16.3983 7.32092 16.7771 7.72521 16.9925 8.21873L19.0626 8.21875L17.1876 10.0938C17.1876 13.375 14.8438 16.6563 10.6251 16.6563C8.75007 16.6563 7.81257 15.7188 7.81257 15.7188Z" stroke="black" stroke-width="0.6" stroke-linecap="round" stroke-linejoin="round"/>
</svg>
