<svg width="67" height="97" viewBox="0 0 67 97" fill="none" xmlns="http://www.w3.org/2000/svg">
<path d="M66.662 10.9296H53L61 0L66.662 10.9296Z" fill="#E5B48A"/>
<path d="M0 97V0H61V97L30.5 73.7747L0 97Z" fill="#E5B48A"/>
<g clip-path="url(#clip0_410_1600)">
<path d="M30.5005 48.0622C30.0438 48.0622 29.6738 47.6922 29.6738 47.2355V29.7703C29.6738 29.3136 30.0438 28.9436 30.5005 28.9436C30.9573 28.9436 31.3273 29.3136 31.3273 29.7703V47.2297C31.3273 47.6922 30.9573 48.0622 30.5005 48.0622Z" fill="black"/>
<path d="M24.3248 45.5011C24.1109 45.5011 23.9027 45.4202 23.7409 45.2583C23.4171 44.9346 23.4171 44.4085 23.7409 44.0847L36.0896 31.736C36.4134 31.4122 36.9395 31.4122 37.2632 31.736C37.587 32.0597 37.587 32.5858 37.2632 32.9096L24.9087 45.2583C24.7468 45.4202 24.5387 45.5011 24.3248 45.5011Z" fill="black"/>
<path d="M39.2295 39.3268H21.7701C21.3134 39.3268 20.9434 38.9568 20.9434 38.5001C20.9434 38.0433 21.3134 37.6733 21.7701 37.6733H39.2295C39.6862 37.6733 40.0562 38.0433 40.0562 38.5001C40.0562 38.9568 39.692 39.3268 39.2295 39.3268Z" fill="black"/>
<path d="M36.6744 45.5011C36.4605 45.5011 36.2523 45.4202 36.0905 45.2583L23.7417 32.9095C23.418 32.5858 23.418 32.0597 23.7417 31.7359C24.0655 31.4122 24.5916 31.4122 24.9153 31.7359L37.2641 44.0847C37.5878 44.4084 37.5878 44.9345 37.2641 45.2583C37.0964 45.4202 36.8883 45.5011 36.6744 45.5011ZM30.5 27.6486C28.3898 27.6486 26.6728 25.9316 26.6728 23.8214C26.6728 21.717 28.3898 20 30.5 20C32.6102 20 34.3272 21.717 34.3272 23.8272C34.3272 25.9373 32.6102 27.6486 30.5 27.6486ZM30.5 21.6592C29.3033 21.6592 28.332 22.6305 28.332 23.8272C28.332 25.0239 29.3033 25.9952 30.5 25.9952C31.6967 25.9952 32.668 25.0239 32.668 23.8272C32.668 22.6305 31.6967 21.6592 30.5 21.6592ZM20.1227 31.9441C19.1456 31.9441 18.1628 31.5741 17.417 30.8283C15.9255 29.3367 15.9255 26.9086 17.417 25.417C18.9086 23.9255 21.3367 23.9255 22.8283 25.417C23.5509 26.1397 23.9498 27.0994 23.9498 28.1227C23.9498 29.1459 23.5509 30.1056 22.8283 30.8283C22.0825 31.5741 21.1055 31.9441 20.1227 31.9441ZM20.1227 25.9547C19.5677 25.9547 19.0127 26.1686 18.5906 26.5906C17.7466 27.4347 17.7466 28.8106 18.5906 29.6547C19.4347 30.4988 20.8106 30.4988 21.6605 29.6547C22.0709 29.2442 22.2964 28.7008 22.2964 28.1227C22.2964 27.5445 22.0709 27.0011 21.6605 26.5906C21.2327 26.1686 20.6777 25.9547 20.1227 25.9547ZM15.8272 42.3272C13.717 42.3272 12 40.6102 12 38.5C12 36.3898 13.717 34.6728 15.8272 34.6728C17.9373 34.6728 19.6544 36.3898 19.6544 38.5C19.6544 40.6102 17.9316 42.3272 15.8272 42.3272ZM15.8272 36.332C14.6305 36.332 13.6592 37.3033 13.6592 38.5C13.6592 39.6967 14.6305 40.668 15.8272 40.668C17.0239 40.668 17.9952 39.6967 17.9952 38.5C17.9952 37.3033 17.0181 36.332 15.8272 36.332ZM20.1227 52.6987C19.1456 52.6987 18.1628 52.3288 17.417 51.583C15.9255 50.0914 15.9255 47.6633 17.417 46.1717C18.9086 44.6802 21.3367 44.6802 22.8283 46.1717C23.5509 46.8944 23.9498 47.8541 23.9498 48.8773C23.9498 49.9006 23.5509 50.8603 22.8283 51.583C22.0825 52.3288 21.1055 52.6987 20.1227 52.6987ZM18.5906 47.3453C17.7466 48.1894 17.7466 49.5653 18.5906 50.4152C19.4347 51.2592 20.8106 51.2592 21.6605 50.4152C22.0709 50.0047 22.2964 49.4613 22.2964 48.8831C22.2964 48.305 22.0652 47.75 21.6547 47.3453C20.8106 46.4955 19.4347 46.4955 18.5906 47.3453ZM30.5 57C28.3898 57 26.6728 55.283 26.6728 53.1728C26.6728 51.0627 28.3898 49.3456 30.5 49.3456C32.6102 49.3456 34.3272 51.0627 34.3272 53.1728C34.3272 55.283 32.6102 57 30.5 57ZM30.5 51.0048C29.3033 51.0048 28.332 51.9761 28.332 53.1728C28.332 54.3695 29.3033 55.3408 30.5 55.3408C31.6967 55.3408 32.668 54.3695 32.668 53.1728C32.668 51.9761 31.6967 51.0048 30.5 51.0048Z" fill="black"/>
<path d="M40.877 52.6988C39.9 52.6988 38.9172 52.3288 38.1714 51.583C36.6798 50.0915 36.6798 47.6633 38.1714 46.1718C39.663 44.6802 42.0911 44.6802 43.5827 46.1718C44.3053 46.8944 44.7042 47.8541 44.7042 48.8774C44.7042 49.9007 44.3053 50.8604 43.5827 51.583C42.8369 52.3288 41.8541 52.6988 40.877 52.6988ZM39.345 50.4094C40.1891 51.2535 41.565 51.2535 42.4148 50.4094C42.8253 49.999 43.0508 49.4555 43.0508 48.8774C43.0508 48.2993 42.8195 47.7501 42.4091 47.3454C41.565 46.5013 40.1891 46.5013 39.3392 47.3454C38.4952 48.1894 38.4952 49.5654 39.345 50.4094Z" fill="black"/>
<path d="M45.1729 42.3272C43.0627 42.3272 41.3457 40.6102 41.3457 38.5C41.3457 36.3899 43.0627 34.6729 45.1729 34.6729C47.283 34.6729 49.0001 36.3899 49.0001 38.5C49.0001 40.6102 47.283 42.3272 45.1729 42.3272ZM45.1729 36.3321C43.9762 36.3321 43.0049 37.3033 43.0049 38.5C43.0049 39.6968 43.9762 40.668 45.1729 40.668C46.3696 40.668 47.3409 39.6968 47.3409 38.5C47.3409 37.3033 46.3696 36.3321 45.1729 36.3321Z" fill="black"/>
<path d="M40.877 31.944C39.9 31.944 38.9172 31.574 38.1714 30.8283C36.6798 29.3367 36.6798 26.9086 38.1714 25.417C39.663 23.9254 42.0911 23.9254 43.5827 25.417C44.3053 26.1397 44.7042 27.0994 44.7042 28.1226C44.7042 29.1459 44.3053 30.1056 43.5827 30.8283C42.8369 31.574 41.8541 31.944 40.877 31.944ZM40.877 25.9547C40.322 25.9547 39.767 26.1686 39.345 26.5906C38.5009 27.4347 38.5009 28.8106 39.345 29.6547C40.1891 30.4987 41.565 30.4987 42.4148 29.6547C42.8253 29.2442 43.0508 28.7008 43.0508 28.1226C43.0508 27.5445 42.8253 27.0011 42.4148 26.5906C41.987 26.1686 41.432 25.9547 40.877 25.9547Z" fill="black"/>
</g>
<defs>
<clipPath id="clip0_410_1600">
<rect width="37" height="37" fill="white" transform="translate(12 20)"/>
</clipPath>
</defs>
</svg>
