<svg width="67" height="97" viewBox="0 0 67 97" fill="none" xmlns="http://www.w3.org/2000/svg">
<path d="M66.662 10.9296H53L61 0L66.662 10.9296Z" fill="#E5B48A"/>
<path d="M0 97V0H61V97L30.5 73.7747L0 97Z" fill="#E5B48A"/>
<g clip-path="url(#clip0_410_1565)">
<path d="M37.727 54.9765H17.1457C15.816 54.9765 14.7754 53.9359 14.7754 52.6062V27.1109C14.7754 25.7812 15.816 24.7406 17.1457 24.7406H22.7535V25.839H17.1457C16.452 25.839 15.8738 26.4172 15.8738 27.1109V52.664C15.8738 53.3578 16.452 53.9359 17.1457 53.9359H37.727C38.4207 53.9359 38.9988 53.3578 38.9988 52.664V27.1109C38.9988 26.4172 38.4207 25.839 37.727 25.839H31.541V24.7406H37.727C39.0566 24.7406 40.0973 25.7812 40.0973 27.1109V52.664C40.0973 53.9359 39.0566 54.9765 37.727 54.9765Z" fill="black"/>
<path d="M35.1832 52.9531H19.6895C18.2441 52.9531 17.0879 51.7969 17.0879 50.3515V29.3656C17.0879 27.9203 18.2441 26.764 19.6895 26.764H35.1832C36.6285 26.764 37.7848 27.9203 37.7848 29.3656V50.3515C37.7848 51.7969 36.6285 52.9531 35.1832 52.9531ZM19.6895 27.9203C18.8801 27.9203 18.2441 28.5562 18.2441 29.3656V50.3515C18.2441 51.1609 18.8801 51.7969 19.6895 51.7969H35.1832C35.9926 51.7969 36.6285 51.1609 36.6285 50.3515V29.3656C36.6285 28.5562 35.9926 27.9203 35.1832 27.9203H19.6895Z" fill="black"/>
<path d="M32.6387 27.9203H22.2324V24.2203C22.2324 23.0641 23.1574 22.1391 24.3137 22.1391H24.834C25.123 20.925 26.1637 20 27.4355 20C28.7074 20 29.748 20.925 30.0371 22.0812H30.5574C31.7137 22.0812 32.6387 23.0062 32.6387 24.1625V27.9203ZM23.3309 26.7641H31.5402V24.2203C31.5402 23.7 31.0777 23.2375 30.5574 23.2375H28.9965V22.6594C28.9965 21.7922 28.3027 21.0984 27.4355 21.0984C26.5684 21.0984 25.8746 21.7922 25.8746 22.6594V23.2375H24.3137C23.7934 23.2375 23.3309 23.7 23.3309 24.2203V26.7641Z" fill="black"/>
<path d="M22.5805 33.875H20.4992C19.9789 33.875 19.5742 33.4703 19.5742 32.95V30.5797C19.5742 30.0593 19.9789 29.6547 20.4992 29.6547H22.5805C23.1008 29.6547 23.5055 30.0593 23.5055 30.5797V32.95C23.5055 33.4703 23.1008 33.875 22.5805 33.875ZM20.7305 32.7765H22.407V30.8109H20.7305V32.7765ZM34.7211 32.3719H25.7023C25.4133 32.3719 25.1242 32.1406 25.1242 31.7937C25.1242 31.4468 25.3555 31.2156 25.7023 31.2156H34.7211C35.0102 31.2156 35.2992 31.4468 35.2992 31.7937C35.2992 32.1406 35.0102 32.3719 34.7211 32.3719ZM22.5805 38.9625H20.4992C19.9789 38.9625 19.5742 38.5578 19.5742 38.0375V35.6672C19.5742 35.1469 19.9789 34.7422 20.4992 34.7422H22.5805C23.1008 34.7422 23.5055 35.1469 23.5055 35.6672V38.0375C23.5055 38.5578 23.1008 38.9625 22.5805 38.9625ZM20.7305 37.8062H22.407V35.8406H20.7305V37.8062ZM34.7211 37.4015H25.7023C25.4133 37.4015 25.1242 37.1703 25.1242 36.8234C25.1242 36.5344 25.3555 36.2453 25.7023 36.2453H34.7211C35.0102 36.2453 35.2992 36.4765 35.2992 36.8234C35.2992 37.1703 35.0102 37.4015 34.7211 37.4015ZM22.5805 43.9922H20.4992C19.9789 43.9922 19.5742 43.5875 19.5742 43.0672V40.6968C19.5742 40.1765 19.9789 39.7719 20.4992 39.7719H22.5805C23.1008 39.7719 23.5055 40.1765 23.5055 40.6968V43.125C23.5055 43.5875 23.1008 43.9922 22.5805 43.9922ZM20.7305 42.8937H22.407V40.9281H20.7305V42.8937ZM34.7211 42.489H25.7023C25.4133 42.489 25.1242 42.2578 25.1242 41.9109C25.1242 41.564 25.3555 41.3328 25.7023 41.3328H34.7211C35.0102 41.3328 35.2992 41.564 35.2992 41.9109C35.2992 42.2578 35.0102 42.489 34.7211 42.489ZM22.5805 49.0797H20.4992C19.9789 49.0797 19.5742 48.675 19.5742 48.1547V45.7843C19.5742 45.264 19.9789 44.8594 20.4992 44.8594H22.5805C23.1008 44.8594 23.5055 45.264 23.5055 45.7843V48.1547C23.5055 48.675 23.1008 49.0797 22.5805 49.0797ZM20.7305 47.9234H22.407V45.9578H20.7305V47.9234ZM34.7211 47.5187H25.7023C25.4133 47.5187 25.1242 47.2875 25.1242 46.9406C25.1242 46.6515 25.3555 46.3625 25.7023 46.3625H34.7211C35.0102 46.3625 35.2992 46.5937 35.2992 46.9406C35.2992 47.2875 35.0102 47.5187 34.7211 47.5187Z" fill="black"/>
<path d="M45.2555 52.1894C46.4566 48.855 44.7273 45.1782 41.3929 43.9771C38.0585 42.776 34.3818 44.5054 33.1807 47.8398C31.9795 51.1741 33.7089 54.8509 37.0433 56.052C40.3777 57.2531 44.0544 55.5237 45.2555 52.1894Z" fill="#E5B48A"/>
<path d="M39.2297 57C35.3562 57 32.2344 53.8781 32.2344 50.0047C32.2344 46.1312 35.3562 43.0093 39.2297 43.0093C43.1031 43.0093 46.225 46.1312 46.225 50.0047C46.225 53.8781 43.1031 57 39.2297 57ZM39.2297 44.1656C35.9922 44.1656 33.3906 46.7672 33.3906 50.0047C33.3906 53.2422 35.9922 55.8437 39.2297 55.8437C42.4672 55.8437 45.0688 53.2422 45.0688 50.0047C45.0688 46.7672 42.4672 44.1656 39.2297 44.1656Z" fill="black"/>
<path d="M37.207 52.8375L34.8945 50.4672L35.7039 49.6578L37.3227 51.3922L42.8148 47.4609L43.5086 48.3859L37.207 52.8375Z" fill="black"/>
</g>
<defs>
<clipPath id="clip0_410_1565">
<rect width="37" height="37" fill="white" transform="translate(12 20)"/>
</clipPath>
</defs>
</svg>
