<svg width="67" height="97" viewBox="0 0 67 97" fill="none" xmlns="http://www.w3.org/2000/svg">
<path d="M66.662 10.9296H53L61 0L66.662 10.9296Z" fill="#E5B48A"/>
<path d="M0 97V0H61V97L30.5 73.7747L0 97Z" fill="#E5B48A"/>
<g clip-path="url(#clip0_410_1546)">
<path d="M39.8095 52.7638C40.4927 52.7638 41.0466 52.2125 41.0466 51.5324C41.0466 50.8523 40.4927 50.301 39.8095 50.301C39.1262 50.301 38.5723 50.8523 38.5723 51.5324C38.5723 52.2125 39.1262 52.7638 39.8095 52.7638Z" fill="white"/>
<path d="M43.2091 48.4951H36.4082C35.2109 48.4951 34.2402 49.4657 34.2402 50.6631V54.2901C34.2402 55.4874 35.2109 56.4581 36.4082 56.4581H43.2091C44.4065 56.4581 45.3771 55.4874 45.3771 54.2901V50.6631C45.3771 49.4657 44.4065 48.4951 43.2091 48.4951Z" fill="#E5B48A"/>
<path d="M43.209 48.4951H41.6914C42.2664 48.4951 42.8178 48.7235 43.2244 49.1301C43.631 49.5367 43.8594 50.0881 43.8594 50.6631V54.2901C43.8594 54.8651 43.631 55.4165 43.2244 55.8231C42.8178 56.2297 42.2664 56.4581 41.6914 56.4581H43.209C43.784 56.4581 44.3354 56.2297 44.742 55.8231C45.1485 55.4165 45.377 54.8651 45.377 54.2901V50.6631C45.377 50.0881 45.1485 49.5367 44.742 49.1301C44.3354 48.7235 43.784 48.4951 43.209 48.4951Z" fill="#E5B48A"/>
<path d="M29.8265 45.5451C28.1979 45.5415 26.6209 44.9734 25.3641 43.9376C24.1072 42.9018 23.2483 41.4624 22.9335 39.8645C22.6188 38.2665 22.8677 36.6089 23.6378 35.1739C24.4079 33.7388 25.6517 32.6151 27.1573 31.9941C28.6629 31.373 30.3372 31.2931 31.8951 31.7679C33.453 32.2427 34.7982 33.2428 35.7015 34.5979C36.6048 35.9531 37.0105 37.5795 36.8494 39.2001C36.6883 40.8208 35.9704 42.3355 34.8179 43.4863C34.1628 44.1416 33.3845 44.6609 32.5279 45.0142C31.6712 45.3676 30.7532 45.548 29.8265 45.5451Z" fill="#E5B48A"/>
<path d="M34.8185 33.5549C34.163 32.9002 33.3846 32.3814 32.5281 32.0285C31.6715 31.6755 30.7536 31.4953 29.8271 31.4982C29.5252 31.4981 29.2235 31.5169 28.9238 31.5546C30.6214 31.7674 32.1829 32.5928 33.3149 33.8756C34.4469 35.1585 35.0715 36.8105 35.0715 38.5213C35.0715 40.2322 34.4469 41.8842 33.3149 43.167C32.1829 44.4499 30.6214 45.2752 28.9238 45.4881C29.2234 45.526 29.5251 45.5451 29.8271 45.5452C30.7538 45.5479 31.6718 45.3674 32.5284 45.0141C33.385 44.6607 34.1633 44.1415 34.8185 43.4863C35.4737 42.8358 35.9937 42.0621 36.3485 41.2097C36.7033 40.3573 36.886 39.4432 36.886 38.5199C36.886 37.5966 36.7033 36.6825 36.3485 35.8301C35.9937 34.9777 35.4737 34.204 34.8185 33.5534V33.5549Z" fill="#E5B48A"/>
<path d="M43.8562 48.0268V46.3047C43.8568 45.4216 43.5324 44.5692 42.945 43.9098C44.0178 41.3695 44.5711 38.6401 44.5724 35.8826V27.7324C44.5725 27.6012 44.5249 27.4744 44.4385 27.3756C44.3521 27.2769 44.2328 27.2129 44.1027 27.1955C41.3782 26.8304 38.7382 25.9928 36.3016 24.7204C34.0396 23.5402 31.9843 22.0004 30.2161 20.1612C30.1664 20.1095 30.1069 20.0682 30.0411 20.0397C29.9752 20.0112 29.9044 19.996 29.8327 19.995C29.761 19.9941 29.6898 20.0074 29.6232 20.0342C29.5567 20.061 29.4961 20.1007 29.445 20.1511C27.9192 21.6581 26.2097 22.967 24.3568 24.0469C21.634 25.6287 18.6435 26.6964 15.5346 27.197C15.4077 27.2176 15.2922 27.2827 15.2089 27.3807C15.1256 27.4787 15.08 27.6031 15.0801 27.7317V35.8854C15.0801 40.2344 16.469 44.4981 19.0973 48.2132C21.6382 51.8085 25.2666 54.8118 29.5903 56.8974C29.6636 56.9331 29.744 56.9516 29.8255 56.9516C29.907 56.9516 29.9875 56.9331 30.0607 56.8974C31.3378 56.2822 32.5695 55.5768 33.7463 54.7865C33.8638 55.407 34.1941 55.967 34.6802 56.3701C35.1663 56.7733 35.7778 56.9942 36.4093 56.995H43.2102C43.9287 56.9942 44.6175 56.7084 45.1256 56.2004C45.6336 55.6923 45.9194 55.0035 45.9202 54.285V50.658C45.9191 50.052 45.7154 49.4637 45.3414 48.9869C44.9674 48.5101 44.4446 48.1721 43.8562 48.0268ZM33.6979 53.5016C32.4699 54.3708 31.1752 55.1417 29.8259 55.8069C25.7711 53.8059 22.3717 50.9651 19.9819 47.5874C17.4844 44.0529 16.1641 40.0068 16.1641 35.8854V28.1884C19.2413 27.6405 22.1984 26.5567 24.901 24.9863C26.676 23.952 28.3251 22.7153 29.815 21.3008C31.577 23.0549 33.5944 24.5322 35.7986 25.6823C38.2054 26.9393 40.8031 27.7907 43.487 28.2022V35.8854C43.4863 38.3893 43.005 40.8698 42.0691 43.1922C41.665 42.9542 41.2182 42.7976 40.7539 42.7312C41.6383 40.557 42.0944 38.2326 42.0973 35.8854V29.7949C42.0972 29.6713 42.0548 29.5515 41.9773 29.4553C41.8998 29.3591 41.7917 29.2923 41.6709 29.2659C39.4025 28.7708 37.2102 27.9756 35.1519 26.9014C33.3553 25.9639 31.6744 24.8199 30.1431 23.4926C30.0459 23.4083 29.9219 23.3614 29.7932 23.36C29.6646 23.3587 29.5396 23.4031 29.4407 23.4854C28.2394 24.4871 26.9563 25.3863 25.6048 26.1737C23.2236 27.5582 20.6516 28.5848 17.9714 29.2204C17.8528 29.2485 17.7471 29.3158 17.6715 29.4114C17.5958 29.507 17.5546 29.6253 17.5545 29.7472V35.8854C17.5545 39.722 18.788 43.495 21.1215 46.7976C23.1941 49.7301 26.115 52.2623 29.5693 54.1217C29.6481 54.1644 29.7363 54.1867 29.8259 54.1867C29.9155 54.1867 30.0037 54.1644 30.0824 54.1217C31.3481 53.4411 32.5564 52.659 33.6957 51.7832L33.6979 53.5016ZM42.7723 46.3047V47.9451H36.8465V46.3047C36.8474 45.6342 37.1142 44.9914 37.5884 44.5173C38.0625 44.0432 38.7053 43.7764 39.3758 43.7754H40.243C40.9138 43.7754 41.5571 44.0419 42.0315 44.5162C42.5058 44.9906 42.7723 45.6339 42.7723 46.3047ZM33.7116 50.3805C32.5016 51.3813 31.2007 52.2668 29.8259 53.0254C26.631 51.2592 23.9312 48.8933 22.0067 46.1703C19.8041 43.0528 18.6384 39.4966 18.6384 35.8854V30.1765C21.273 29.5099 23.8013 28.4778 26.1497 27.1102C27.4219 26.3696 28.6359 25.5333 29.7811 24.6084C31.2824 25.8644 32.915 26.9547 34.6503 27.8604C36.6643 28.9116 38.8019 29.7067 41.0133 30.2271V35.884C41.0094 38.226 40.5269 40.5426 39.5955 42.6914H39.3729C38.4149 42.6926 37.4966 43.0736 36.8192 43.751C36.1418 44.4284 35.7608 45.3468 35.7596 46.3047V48.0239C35.217 48.1587 34.7291 48.4576 34.3626 48.8799C33.9961 49.3021 33.7687 49.8272 33.7116 50.3834V50.3805ZM44.8347 54.2828C44.8342 54.7139 44.6627 55.1271 44.3579 55.4319C44.0531 55.7367 43.6398 55.9082 43.2087 55.9088H36.4078C35.9767 55.9084 35.5634 55.737 35.2585 55.4322C34.9537 55.1273 34.7822 54.714 34.7819 54.2828V50.658C34.7824 50.2269 34.9539 49.8137 35.2587 49.5089C35.5635 49.2041 35.9768 49.0326 36.4078 49.032H43.2087C43.6398 49.0326 44.0531 49.2041 44.3579 49.5089C44.6627 49.8137 44.8342 50.2269 44.8347 50.658V54.2828ZM39.8079 50.2938C39.5282 50.2909 39.2559 50.3836 39.036 50.5565C38.816 50.7294 38.6617 50.9722 38.5985 51.2447C38.5353 51.5172 38.567 51.8031 38.6884 52.0552C38.8097 52.3072 39.0135 52.5103 39.2659 52.6308V54.0292C39.2659 54.1729 39.323 54.3108 39.4247 54.4124C39.5263 54.5141 39.6642 54.5712 39.8079 54.5712C39.9517 54.5712 40.0895 54.5141 40.1912 54.4124C40.2928 54.3108 40.3499 54.1729 40.3499 54.0292V52.633C40.6024 52.5125 40.8061 52.3094 40.9275 52.0573C41.0488 51.8053 41.0805 51.5194 41.0173 51.2469C40.9541 50.9743 40.7998 50.7316 40.5799 50.5586C40.36 50.3857 40.0877 50.2931 39.8079 50.2959V50.2938ZM35.1967 33.1661C33.9595 31.9376 32.3349 31.1758 30.5994 31.0104C28.8638 30.8449 27.1245 31.2859 25.6775 32.2585C24.2305 33.2311 23.1653 34.675 22.6631 36.3445C22.1609 38.0141 22.2528 39.8061 22.9231 41.4155C23.5934 43.025 24.8007 44.3524 26.3395 45.1719C27.8784 45.9913 29.6537 46.2522 31.3632 45.9101C33.0728 45.568 34.611 44.6441 35.716 43.2955C36.821 41.947 37.4245 40.2572 37.4239 38.5138C37.422 37.5198 37.2244 36.5359 36.8422 35.6184C36.4601 34.7008 35.9009 33.8675 35.1967 33.1661ZM34.435 43.099C33.2094 44.3154 31.5526 44.998 29.8259 44.998C28.0991 44.998 26.4424 44.3154 25.2168 43.099C24.6122 42.4988 24.1324 41.7849 23.8049 40.9985C23.4775 40.212 23.3089 39.3685 23.3089 38.5166C23.3089 37.6647 23.4775 36.8213 23.8049 36.0348C24.1324 35.2483 24.6122 34.5345 25.2168 33.9343C26.4424 32.7179 28.0991 32.0353 29.8259 32.0353C31.5526 32.0353 33.2094 32.7179 34.435 33.9343C35.0396 34.5345 35.5194 35.2483 35.8468 36.0348C36.1743 36.8213 36.3429 37.6647 36.3429 38.5166C36.3429 39.3685 36.1743 40.212 35.8468 40.9985C35.5194 41.7849 35.0396 42.4988 34.435 43.099ZM32.9969 34.7162C32.9969 34.5724 32.9398 34.4346 32.8382 34.3329C32.7365 34.2313 32.5986 34.1742 32.4549 34.1742H27.1969C27.0531 34.1742 26.9153 34.2313 26.8136 34.3329C26.712 34.4346 26.6549 34.5724 26.6549 34.7162C26.6549 34.8599 26.712 34.9978 26.8136 35.0994C26.9153 35.2011 27.0531 35.2582 27.1969 35.2582H29.0353C29.3846 35.2579 29.7254 35.3663 30.0103 35.5685C30.2951 35.7706 30.51 36.0564 30.6251 36.3862H27.1969C27.0531 36.3862 26.9153 36.4434 26.8136 36.545C26.712 36.6466 26.6549 36.7845 26.6549 36.9282C26.6549 37.072 26.712 37.2098 26.8136 37.3115C26.9153 37.4131 27.0531 37.4702 27.1969 37.4702H30.6244C30.5093 37.8001 30.2944 38.0859 30.0095 38.288C29.7246 38.4901 29.3839 38.5986 29.0346 38.5983H27.1918H27.16H27.1376C27.1282 38.5983 27.1195 38.5983 27.1101 38.6026L27.0848 38.6063L27.0624 38.612L27.0335 38.62L27.0133 38.6272L26.9844 38.638L26.9613 38.6489L26.9367 38.6612C26.9292 38.6652 26.9219 38.6698 26.915 38.6749C26.9071 38.6791 26.8993 38.6836 26.8919 38.6886L26.8731 38.7024L26.8493 38.7212L26.8341 38.7349C26.8254 38.7421 26.8175 38.7501 26.8095 38.758H26.8059L26.7951 38.7703L26.7741 38.7949C26.769 38.8014 26.7647 38.8079 26.7596 38.8137C26.7537 38.8216 26.7481 38.8298 26.743 38.8382C26.738 38.8448 26.7337 38.8518 26.73 38.8592C26.725 38.8671 26.7204 38.8753 26.7163 38.8838C26.712 38.8912 26.7081 38.899 26.7047 38.9069L26.6939 38.9314L26.6852 38.9553L26.6765 38.982L26.67 39.0059C26.67 39.0153 26.6657 39.0239 26.6643 39.0333L26.6599 39.0594C26.6599 39.068 26.6599 39.0767 26.6599 39.0854C26.6599 39.094 26.6599 39.1049 26.6599 39.115C26.6599 39.1251 26.6599 39.1273 26.6599 39.1338V39.1504C26.6599 39.1605 26.6599 39.1706 26.6599 39.1808C26.6599 39.1909 26.6599 39.1967 26.6599 39.2046C26.6599 39.2126 26.6599 39.2212 26.6643 39.2299C26.6686 39.2386 26.6643 39.2487 26.6686 39.2574C26.6699 39.264 26.6715 39.2705 26.6737 39.2769C26.6737 39.2877 26.6787 39.2986 26.6816 39.3087L26.6881 39.326C26.6917 39.3369 26.6953 39.3477 26.6997 39.3578C26.704 39.3679 26.7069 39.3715 26.7098 39.378L26.7228 39.4048C26.7228 39.412 26.7315 39.4192 26.7358 39.4265L26.7503 39.4503L26.764 39.4684L26.7828 39.493L26.7965 39.5081L26.8196 39.5327L30.7942 43.3628C30.8986 43.4575 31.0358 43.5078 31.1767 43.503C31.3175 43.4983 31.451 43.4388 31.5488 43.3373C31.6466 43.2358 31.7009 43.1001 31.7004 42.9592C31.6998 42.8182 31.6444 42.6831 31.5458 42.5823L28.541 39.6845H29.0353C29.6728 39.6846 30.2908 39.4645 30.7847 39.0614C31.2787 38.6583 31.6182 38.097 31.746 37.4724H32.4549C32.5986 37.4724 32.7365 37.4153 32.8382 37.3137C32.9398 37.212 32.9969 37.0742 32.9969 36.9304C32.9969 36.7867 32.9398 36.6488 32.8382 36.5472C32.7365 36.4455 32.5986 36.3884 32.4549 36.3884H31.746C31.663 35.978 31.487 35.5921 31.2314 35.2604H32.4549C32.5261 35.2604 32.5966 35.2465 32.6624 35.2193C32.7282 35.1921 32.788 35.1522 32.8384 35.1018C32.8887 35.0515 32.9286 34.9917 32.9558 34.9259C32.983 34.8601 32.997 34.7896 32.9969 34.7184V34.7162Z" fill="black"/>
</g>
<defs>
<clipPath id="clip0_410_1546">
<rect width="37" height="37" fill="white" transform="translate(12 20)"/>
</clipPath>
</defs>
</svg>
