<svg width="67" height="97" viewBox="0 0 67 97" fill="none" xmlns="http://www.w3.org/2000/svg">
<path d="M66.662 10.9296H53L61 0L66.662 10.9296Z" fill="#E5B48A"/>
<path d="M0 97V0H61V97L30.5 73.7747L0 97Z" fill="#E5B48A"/>
<path d="M21.25 39.6562C17.4247 39.6562 14.3125 42.7682 14.3125 46.5938C14.3125 50.4193 17.4247 53.5312 21.25 53.5312C25.0753 53.5312 28.1875 50.4193 28.1875 46.5938C28.1875 42.7682 25.0753 39.6562 21.25 39.6562ZM21.25 52.375C18.0621 52.375 15.4688 49.7813 15.4688 46.5938C15.4688 43.4062 18.0621 40.8125 21.25 40.8125C24.4379 40.8125 27.0312 43.4062 27.0312 46.5938C27.0312 49.7813 24.4379 52.375 21.25 52.375Z" fill="black"/>
<path d="M20.0938 44.8594H23.5625C23.8818 44.8594 24.1406 44.6008 24.1406 44.2812C24.1406 43.9617 23.8818 43.7031 23.5625 43.7031H21.8281V43.125C21.8281 42.8054 21.5693 42.5469 21.25 42.5469C20.9307 42.5469 20.6719 42.8054 20.6719 43.125V43.7031H20.0938C19.1374 43.7031 18.3594 44.4811 18.3594 45.4375C18.3594 46.3939 19.1374 47.1719 20.0938 47.1719H22.4062C22.7249 47.1719 22.9844 47.431 22.9844 47.75C22.9844 48.069 22.7249 48.3281 22.4062 48.3281H18.9375C18.6182 48.3281 18.3594 48.5867 18.3594 48.9062C18.3594 49.2258 18.6182 49.4844 18.9375 49.4844H20.6719V50.0625C20.6719 50.3821 20.9307 50.6406 21.25 50.6406C21.5693 50.6406 21.8281 50.3821 21.8281 50.0625V49.4844H22.4062C23.3626 49.4844 24.1406 48.7064 24.1406 47.75C24.1406 46.7936 23.3626 46.0156 22.4062 46.0156H20.0938C19.7751 46.0156 19.5156 45.7565 19.5156 45.4375C19.5156 45.1185 19.7751 44.8594 20.0938 44.8594Z" fill="black"/>
<path d="M47.8438 51.3253V35.0313C47.8438 34.0749 47.0657 33.2969 46.1094 33.2969H43.2188C42.2624 33.2969 41.4844 34.0749 41.4844 35.0313V51.2188H40.3281V39.0781C40.3281 38.1218 39.5501 37.3438 38.5938 37.3438H35.7031C34.7468 37.3438 33.9688 38.1218 33.9688 39.0781V51.2188H32.8125V41.9688C32.8125 41.3314 32.2939 40.8125 31.6562 40.8125H28.4593C28.1934 40.4815 27.9032 40.1724 27.595 39.8809L37.6687 29.8073L38.7253 30.8636C39.0527 31.1966 39.5445 31.2977 39.9786 31.1187C40.4156 30.9397 40.6982 30.5191 40.6982 30.0478V24.6595C40.6982 24.0221 40.1796 23.5032 39.5419 23.5032H34.1596C33.6902 23.5032 33.2704 23.7838 33.0906 24.2185C32.9108 24.6527 33.0087 25.1473 33.3404 25.4787L34.4001 26.5384L23.3463 37.5924C22.6715 37.4353 21.9719 37.3438 21.25 37.3438C16.1496 37.3438 12 41.4934 12 46.5938C12 51.6941 16.1496 55.8438 21.25 55.8438C22.8701 55.8438 24.3925 55.4223 25.7182 54.6875H47.2656C48.222 54.6875 49 53.9095 49 52.9531C49 52.2004 48.5152 51.5647 47.8438 51.3253ZM42.6406 35.0313C42.6406 34.7123 42.9001 34.4531 43.2188 34.4531H46.1094C46.4281 34.4531 46.6875 34.7123 46.6875 35.0313V51.2188H42.6406V35.0313ZM35.125 39.0781C35.125 38.7592 35.3844 38.5 35.7031 38.5H38.5938C38.9124 38.5 39.1719 38.7592 39.1719 39.0781V51.2188H35.125V39.0781ZM31.6562 41.9688V51.2188H29.2484C30.0394 49.8563 30.5 48.2794 30.5 46.5938C30.5 44.9081 30.0394 43.3313 29.2484 41.9688H31.6562ZM35.6264 26.9471C35.8522 26.7213 35.8522 26.3554 35.6264 26.1297L34.1596 24.6595H39.5419L39.5459 30.0495L38.0775 28.5811C37.8517 28.3552 37.4858 28.3552 37.26 28.5811L26.7024 39.1385C26.0573 38.6653 25.351 38.274 24.5945 37.9792L35.6264 26.9471ZM21.25 54.6875C16.787 54.6875 13.1562 51.0567 13.1562 46.5938C13.1562 42.1308 16.787 38.5 21.25 38.5C25.713 38.5 29.3438 42.1308 29.3438 46.5938C29.3438 51.0567 25.713 54.6875 21.25 54.6875ZM47.2656 53.5313H27.3478C27.7499 53.1774 28.1235 52.7929 28.4593 52.375H47.2656C47.5843 52.375 47.8438 52.6342 47.8438 52.9531C47.8438 53.2721 47.5843 53.5313 47.2656 53.5313Z" fill="black"/>
</svg>
