<svg width="67" height="97" viewBox="0 0 67 97" fill="none" xmlns="http://www.w3.org/2000/svg">
<path d="M66.662 10.9296H53L61 0L66.662 10.9296Z" fill="#E5B48A"/>
<path d="M0 97V0H61V97L30.5 73.7747L0 97Z" fill="#E5B48A"/>
<path d="M29.9219 25.2031V24.625C29.9219 24.4717 29.9828 24.3246 30.0912 24.2162C30.1996 24.1078 30.3467 24.0469 30.5 24.0469C30.6533 24.0469 30.8004 24.1078 30.9088 24.2162C31.0172 24.3246 31.0781 24.4717 31.0781 24.625V25.2031C31.0781 25.3565 31.0172 25.5035 30.9088 25.6119C30.8004 25.7203 30.6533 25.7812 30.5 25.7812C30.3467 25.7812 30.1996 25.7203 30.0912 25.6119C29.9828 25.5035 29.9219 25.3565 29.9219 25.2031ZM29.6328 26.9375H31.3672C31.5971 26.9377 31.8175 27.0292 31.9801 27.1918C32.1427 27.3543 32.2341 27.5748 32.2344 27.8047V28.6719H28.7656V27.8047C28.7659 27.5748 28.8573 27.3543 29.0199 27.1918C29.1825 27.0292 29.4029 26.9377 29.6328 26.9375ZM34.5469 28.6719H33.3906V27.8047C33.3902 27.3938 33.2648 26.9928 33.0312 26.6547C32.7976 26.3167 32.4668 26.0577 32.0826 25.912C32.1828 25.6891 32.2346 25.4475 32.2344 25.2031V24.625C32.2344 24.165 32.0516 23.7239 31.7264 23.3986C31.4011 23.0734 30.96 22.8906 30.5 22.8906C30.04 22.8906 29.5989 23.0734 29.2736 23.3986C28.9484 23.7239 28.7656 24.165 28.7656 24.625V25.2031C28.7654 25.4475 28.8172 25.6891 28.9174 25.912C28.5332 26.0577 28.2024 26.3167 27.9688 26.6547C27.7352 26.9928 27.6098 27.3938 27.6094 27.8047V28.6719H26.4531V22.3125H34.5469V28.6719ZM42.0625 27.5156V26.9375C42.0625 26.7842 42.1234 26.6371 42.2318 26.5287C42.3402 26.4203 42.4873 26.3594 42.6406 26.3594C42.794 26.3594 42.941 26.4203 43.0494 26.5287C43.1578 26.6371 43.2188 26.7842 43.2188 26.9375V27.5156C43.2188 27.669 43.1578 27.816 43.0494 27.9244C42.941 28.0328 42.794 28.0938 42.6406 28.0938C42.4873 28.0938 42.3402 28.0328 42.2318 27.9244C42.1234 27.816 42.0625 27.669 42.0625 27.5156ZM41.7734 29.25H43.5078C43.7377 29.2502 43.9582 29.3417 44.1207 29.5043C44.2833 29.6668 44.3748 29.8873 44.375 30.1172V30.9844H40.9062V30.1172C40.9065 29.8873 40.9979 29.6668 41.1605 29.5043C41.3231 29.3417 41.5435 29.2502 41.7734 29.25ZM46.6875 30.9844H45.5312V30.1172C45.5308 29.7063 45.4054 29.3053 45.1719 28.9672C44.9382 28.6292 44.6074 28.3702 44.2232 28.2245C44.3235 28.0016 44.3752 27.76 44.375 27.5156V26.9375C44.375 26.4775 44.1923 26.0364 43.867 25.7111C43.5418 25.3859 43.1006 25.2031 42.6406 25.2031C42.1806 25.2031 41.7395 25.3859 41.4142 25.7111C41.089 26.0364 40.9062 26.4775 40.9062 26.9375V27.5156C40.906 27.76 40.9578 28.0016 41.058 28.2245C40.6738 28.3702 40.343 28.6292 40.1094 28.9672C39.8758 29.3053 39.7505 29.7063 39.75 30.1172V30.9844H38.5938V24.625H46.6875V30.9844ZM17.7812 27.5156V26.9375C17.7812 26.7842 17.8422 26.6371 17.9506 26.5287C18.059 26.4203 18.206 26.3594 18.3594 26.3594C18.5127 26.3594 18.6598 26.4203 18.7682 26.5287C18.8766 26.6371 18.9375 26.7842 18.9375 26.9375V27.5156C18.9375 27.669 18.8766 27.816 18.7682 27.9244C18.6598 28.0328 18.5127 28.0938 18.3594 28.0938C18.206 28.0938 18.059 28.0328 17.9506 27.9244C17.8422 27.816 17.7812 27.669 17.7812 27.5156ZM17.4922 29.25H19.2266C19.4565 29.2502 19.6769 29.3417 19.8395 29.5043C20.0021 29.6668 20.0935 29.8873 20.0938 30.1172V30.9844H16.625V30.1172C16.6252 29.8873 16.7167 29.6668 16.8793 29.5043C17.0418 29.3417 17.2623 29.2502 17.4922 29.25ZM22.4062 30.9844H21.25V30.1172C21.2495 29.7063 21.1242 29.3053 20.8906 28.9672C20.657 28.6292 20.3262 28.3702 19.942 28.2245C20.0422 28.0016 20.094 27.76 20.0938 27.5156V26.9375C20.0938 26.4775 19.911 26.0364 19.5858 25.7111C19.2605 25.3859 18.8194 25.2031 18.3594 25.2031C17.8994 25.2031 17.4582 25.3859 17.133 25.7111C16.8077 26.0364 16.625 26.4775 16.625 26.9375V27.5156C16.6248 27.76 16.6765 28.0016 16.7768 28.2245C16.3926 28.3702 16.0617 28.6292 15.8282 28.9672C15.5946 29.3053 15.4692 29.7063 15.4688 30.1172V30.9844H14.3125V24.625H22.4062V30.9844Z" fill="black"/>
<path d="M25.2815 45.049C25.1165 45.1115 24.9744 45.2225 24.8739 45.3675C24.7734 45.5125 24.7193 45.6846 24.7188 45.861V47.1719H36.2812V45.861C36.2807 45.6846 36.2266 45.5125 36.1261 45.3675C36.0256 45.2225 35.8835 45.1115 35.7185 45.049L32.3087 43.7699L30.8207 44.7619C30.7257 44.8252 30.6141 44.859 30.5 44.859C30.3859 44.859 30.2743 44.8252 30.1793 44.7619L28.6913 43.7699L25.2815 45.049ZM31.5912 42.8587L31.3296 41.5507C31.0688 41.6684 30.7859 41.7293 30.4997 41.7293C30.2135 41.7293 29.9307 41.6684 29.6698 41.5507L29.4082 42.8587L30.4994 43.5864L31.5912 42.8587ZM30.5 34.0195V32.1406H28.043C27.6215 32.1411 27.2174 32.3088 26.9193 32.6068C26.6213 32.9049 26.4536 33.309 26.4531 33.7305V35.6094H28.9102C29.3317 35.6089 29.7358 35.4412 30.0338 35.1432C30.3319 34.8451 30.4995 34.441 30.5 34.0195ZM28.1875 36.7656V38.8379C28.1879 38.9876 28.2269 39.1346 28.3006 39.2649C28.3743 39.3951 28.4804 39.5042 28.6085 39.5815L30.0538 40.4487C30.1885 40.5297 30.3428 40.5726 30.5 40.5726C30.6572 40.5726 30.8115 40.5297 30.9462 40.4487L32.3915 39.5815C32.5196 39.5042 32.6257 39.3951 32.6994 39.2649C32.7731 39.1346 32.8121 38.9876 32.8125 38.8379V35.6094H31.1481C30.8945 35.9668 30.5589 36.2582 30.1696 36.4594C29.7802 36.6605 29.3484 36.7656 28.9102 36.7656H28.1875ZM33.3906 33.7305C33.3901 33.309 33.2225 32.9049 32.9244 32.6068C32.6264 32.3088 32.2223 32.1411 31.8008 32.1406H31.6562V34.4531H33.3906V33.7305Z" fill="black"/>
<path d="M42.6406 35.0312H34.5469C34.5469 35.1846 34.486 35.3316 34.3775 35.44C34.2691 35.5485 34.1221 35.6094 33.9688 35.6094V38.8379C33.9677 39.1871 33.8768 39.5302 33.7048 39.8341C33.5327 40.138 33.2853 40.3925 32.9864 40.573L32.3856 40.9335L32.7383 42.6968L36.1246 43.9666C36.5095 44.1123 36.8411 44.3715 37.0755 44.7097C37.3099 45.048 37.4362 45.4494 37.4375 45.861V47.1719H40.3281V48.3281H20.6719V47.1719H23.5625V45.861C23.5638 45.4494 23.69 45.0479 23.9244 44.7096C24.1589 44.3713 24.4905 44.1121 24.8754 43.9664L28.2617 42.6965L28.6144 40.9333L28.0136 40.5728C27.7147 40.3923 27.4673 40.1378 27.2953 39.834C27.1232 39.5301 27.0323 39.1871 27.0312 38.8379V36.7656H25.875C25.7217 36.7656 25.5746 36.7047 25.4662 36.5963C25.3578 36.4879 25.2969 36.3408 25.2969 36.1875V35.0312H18.3594V49.4844H42.6406V35.0312ZM19.5156 36.7656H23.5625C23.6623 36.7656 23.7605 36.7915 23.8473 36.8407C23.9342 36.8899 24.0069 36.9607 24.0582 37.0463L25.7926 39.9369L24.8011 40.5318L23.2352 37.9219H19.5156V36.7656ZM19.5156 39.0781H22.9844V40.2344H19.5156V39.0781ZM41.4844 41.3906C41.4844 41.544 41.4235 41.691 41.315 41.7994C41.2066 41.9078 41.0596 41.9688 40.9062 41.9688H36.2812C36.1279 41.9688 35.9809 41.9078 35.8725 41.7994C35.764 41.691 35.7031 41.544 35.7031 41.3906V36.7656C35.7031 36.6123 35.764 36.4652 35.8725 36.3568C35.9809 36.2484 36.1279 36.1875 36.2812 36.1875H40.9062C41.0596 36.1875 41.2066 36.2484 41.315 36.3568C41.4235 36.4652 41.4844 36.6123 41.4844 36.7656V41.3906Z" fill="black"/>
<path d="M24.9773 51.8579L26.0115 52.375H34.9885L36.0227 51.8579C36.103 51.8178 36.1915 51.7969 36.2812 51.7969H45.5312V36.9102C45.5312 36.8718 45.516 36.8351 45.4889 36.808C45.4618 36.7809 45.4251 36.7656 45.3867 36.7656H43.7969V50.0625C43.7969 50.2158 43.736 50.3629 43.6275 50.4713C43.5191 50.5797 43.3721 50.6406 43.2188 50.6406H17.7812C17.6279 50.6406 17.4809 50.5797 17.3725 50.4713C17.264 50.3629 17.2031 50.2158 17.2031 50.0625V36.7656H15.6133C15.5749 36.7656 15.5382 36.7809 15.5111 36.808C15.484 36.8351 15.4688 36.8718 15.4688 36.9102V51.7969H24.7188C24.8085 51.7969 24.897 51.8178 24.9773 51.8579Z" fill="black"/>
<path d="M40.3281 37.3438H36.8594V40.8125H40.3281V37.3438Z" fill="black"/>
<path d="M36.4178 52.9531L35.3836 53.4702C35.3033 53.5104 35.2148 53.5313 35.125 53.5312H25.875C25.7852 53.5313 25.6967 53.5104 25.6164 53.4702L24.5822 52.9531H14.3125V53.8203C14.3127 54.0502 14.4042 54.2707 14.5668 54.4332C14.7293 54.5958 14.9498 54.6873 15.1797 54.6875H45.8203C46.0502 54.6873 46.2707 54.5958 46.4332 54.4332C46.5958 54.2707 46.6873 54.0502 46.6875 53.8203V52.9531H36.4178Z" fill="black"/>
</svg>
