<svg width="756" height="199" viewBox="0 0 756 199" fill="none" xmlns="http://www.w3.org/2000/svg">
<line x1="5" y1="190" x2="4.99998" y2="86.5672" stroke="url(#paint0_linear_410_1906)" stroke-opacity="0.4" stroke-width="10"/>
<line x1="393.309" y1="190" x2="393.309" y2="86.5672" stroke="url(#paint1_linear_410_1906)" stroke-opacity="0.4" stroke-width="10"/>
<line x1="20.8086" y1="190" x2="20.8085" y2="87.3881" stroke="url(#paint2_linear_410_1906)" stroke-opacity="0.4" stroke-width="10"/>
<line x1="410.105" y1="190" x2="410.105" y2="87.3881" stroke="url(#paint3_linear_410_1906)" stroke-opacity="0.4" stroke-width="10"/>
<line x1="37.6055" y1="190" x2="37.6054" y2="88.209" stroke="url(#paint4_linear_410_1906)" stroke-opacity="0.4" stroke-width="10"/>
<line x1="425.916" y1="190" x2="425.916" y2="88.209" stroke="url(#paint5_linear_410_1906)" stroke-opacity="0.4" stroke-width="10"/>
<line x1="53.416" y1="190" x2="53.4159" y2="89.8507" stroke="url(#paint6_linear_410_1906)" stroke-opacity="0.4" stroke-width="10"/>
<line x1="441.725" y1="190" x2="441.725" y2="89.8507" stroke="url(#paint7_linear_410_1906)" stroke-opacity="0.4" stroke-width="10"/>
<line x1="69.2246" y1="190" x2="69.2245" y2="90.6716" stroke="url(#paint8_linear_410_1906)" stroke-opacity="0.4" stroke-width="10"/>
<line x1="458.521" y1="190" x2="458.521" y2="90.6716" stroke="url(#paint9_linear_410_1906)" stroke-opacity="0.4" stroke-width="10"/>
<line x1="86.0215" y1="190" x2="86.0214" y2="89.8507" stroke="url(#paint10_linear_410_1906)" stroke-opacity="0.4" stroke-width="10"/>
<line x1="474.33" y1="190" x2="474.33" y2="89.8507" stroke="url(#paint11_linear_410_1906)" stroke-opacity="0.4" stroke-width="10"/>
<line x1="101.83" y1="190" x2="101.83" y2="89.0299" stroke="url(#paint12_linear_410_1906)" stroke-opacity="0.4" stroke-width="10"/>
<line x1="490.139" y1="190" x2="490.139" y2="89.0299" stroke="url(#paint13_linear_410_1906)" stroke-opacity="0.4" stroke-width="10"/>
<line x1="117.639" y1="190" x2="117.639" y2="87.3881" stroke="url(#paint14_linear_410_1906)" stroke-opacity="0.4" stroke-width="10"/>
<line x1="506.936" y1="190" x2="506.935" y2="87.3881" stroke="url(#paint15_linear_410_1906)" stroke-opacity="0.4" stroke-width="10"/>
<line x1="134.436" y1="190" x2="134.435" y2="86.5672" stroke="url(#paint16_linear_410_1906)" stroke-opacity="0.4" stroke-width="10"/>
<line x1="522.746" y1="190" x2="522.746" y2="86.5672" stroke="url(#paint17_linear_410_1906)" stroke-opacity="0.4" stroke-width="10"/>
<line x1="150.246" y1="190" x2="150.246" y2="85.7463" stroke="url(#paint18_linear_410_1906)" stroke-opacity="0.4" stroke-width="10"/>
<line x1="538.555" y1="190" x2="538.555" y2="85.7463" stroke="url(#paint19_linear_410_1906)" stroke-opacity="0.4" stroke-width="10"/>
<line x1="166.055" y1="190" x2="166.055" y2="84.1045" stroke="url(#paint20_linear_410_1906)" stroke-opacity="0.4" stroke-width="10"/>
<line x1="555.352" y1="190" x2="555.352" y2="84.1045" stroke="url(#paint21_linear_410_1906)" stroke-opacity="0.4" stroke-width="10"/>
<line x1="182.852" y1="190" x2="182.851" y2="83.2836" stroke="url(#paint22_linear_410_1906)" stroke-opacity="0.4" stroke-width="10"/>
<line x1="572.148" y1="190" x2="572.148" y2="83.2836" stroke="url(#paint23_linear_410_1906)" stroke-opacity="0.4" stroke-width="10"/>
<line x1="199.648" y1="190" x2="199.648" y2="82.4627" stroke="url(#paint24_linear_410_1906)" stroke-opacity="0.4" stroke-width="10"/>
<line x1="588.945" y1="190" x2="588.945" y2="82.4627" stroke="url(#paint25_linear_410_1906)" stroke-opacity="0.4" stroke-width="10"/>
<line x1="216.445" y1="190" x2="216.445" y2="81.6418" stroke="url(#paint26_linear_410_1906)" stroke-opacity="0.4" stroke-width="10"/>
<line x1="604.754" y1="190" x2="604.754" y2="81.6418" stroke="url(#paint27_linear_410_1906)" stroke-opacity="0.4" stroke-width="10"/>
<line x1="232.254" y1="190" x2="232.254" y2="80" stroke="url(#paint28_linear_410_1906)" stroke-opacity="0.4" stroke-width="10"/>
<line x1="620.564" y1="190" x2="620.564" y2="80" stroke="url(#paint29_linear_410_1906)" stroke-opacity="0.4" stroke-width="10"/>
<line x1="248.064" y1="190" x2="248.064" y2="80.8209" stroke="url(#paint30_linear_410_1906)" stroke-opacity="0.4" stroke-width="10"/>
<line x1="637.361" y1="190" x2="637.361" y2="80.8209" stroke="url(#paint31_linear_410_1906)" stroke-opacity="0.4" stroke-width="10"/>
<line x1="264.861" y1="190" x2="264.861" y2="82.4627" stroke="url(#paint32_linear_410_1906)" stroke-opacity="0.4" stroke-width="10"/>
<line x1="653.17" y1="190" x2="653.17" y2="82.4627" stroke="url(#paint33_linear_410_1906)" stroke-opacity="0.4" stroke-width="10"/>
<line x1="280.67" y1="190" x2="280.67" y2="83.2836" stroke="url(#paint34_linear_410_1906)" stroke-opacity="0.4" stroke-width="10"/>
<line x1="668.979" y1="190" x2="668.978" y2="83.2836" stroke="url(#paint35_linear_410_1906)" stroke-opacity="0.4" stroke-width="10"/>
<line x1="296.479" y1="190" x2="296.478" y2="84.1045" stroke="url(#paint36_linear_410_1906)" stroke-opacity="0.4" stroke-width="10"/>
<line x1="685.775" y1="190" x2="685.775" y2="84.1045" stroke="url(#paint37_linear_410_1906)" stroke-opacity="0.4" stroke-width="10"/>
<line x1="313.275" y1="190" x2="313.275" y2="83.2836" stroke="url(#paint38_linear_410_1906)" stroke-opacity="0.4" stroke-width="10"/>
<line x1="701.584" y1="190" x2="701.584" y2="83.2836" stroke="url(#paint39_linear_410_1906)" stroke-opacity="0.4" stroke-width="10"/>
<line x1="329.084" y1="190" x2="329.084" y2="84.1045" stroke="url(#paint40_linear_410_1906)" stroke-opacity="0.4" stroke-width="10"/>
<line x1="717.395" y1="190" x2="717.394" y2="84.1045" stroke="url(#paint41_linear_410_1906)" stroke-opacity="0.4" stroke-width="10"/>
<line x1="344.895" y1="190" x2="344.894" y2="84.9254" stroke="url(#paint42_linear_410_1906)" stroke-opacity="0.4" stroke-width="10"/>
<line x1="734.191" y1="190" x2="734.191" y2="84.9254" stroke="url(#paint43_linear_410_1906)" stroke-opacity="0.4" stroke-width="10"/>
<line x1="361.691" y1="190" x2="361.691" y2="85.7463" stroke="url(#paint44_linear_410_1906)" stroke-opacity="0.4" stroke-width="10"/>
<line x1="750" y1="190" x2="750" y2="85.7463" stroke="url(#paint45_linear_410_1906)" stroke-opacity="0.4" stroke-width="10"/>
<line x1="377.5" y1="190" x2="377.5" y2="54" stroke="url(#paint46_linear_410_1906)" stroke-width="10"/>
<ellipse cx="377.559" cy="50" rx="13.8329" ry="14" fill="#E5B48A"/>
<line x1="1" y1="189.5" x2="755" y2="189.5" stroke="#8B8B8B" stroke-opacity="0.4"/>
<line x1="1" y1="129.5" x2="755" y2="129.5" stroke="#8B8B8B" stroke-opacity="0.4" stroke-dasharray="4 4"/>
<line x1="1" y1="69.5" x2="755" y2="69.5" stroke="#8B8B8B" stroke-opacity="0.4" stroke-dasharray="4 4"/>
<line x1="1" y1="9.5" x2="755" y2="9.5" stroke="#8B8B8B" stroke-opacity="0.4" stroke-dasharray="4 4"/>
<path d="M748.128 198.36C747.112 198.36 746.192 198.116 745.368 197.628C744.552 197.14 743.9 196.488 743.412 195.672C742.924 194.848 742.68 193.928 742.68 192.912V185.808C742.68 184.792 742.924 183.876 743.412 183.06C743.9 182.236 744.552 181.58 745.368 181.092C746.192 180.604 747.112 180.36 748.128 180.36C749.144 180.36 750.064 180.604 750.888 181.092C751.712 181.58 752.364 182.236 752.844 183.06C753.332 183.876 753.576 184.792 753.576 185.808V192.912C753.576 193.928 753.332 194.848 752.844 195.672C752.364 196.488 751.712 197.14 750.888 197.628C750.064 198.116 749.144 198.36 748.128 198.36ZM748.128 197.004C748.872 197.004 749.548 196.824 750.156 196.464C750.772 196.096 751.264 195.604 751.632 194.988C752 194.372 752.184 193.692 752.184 192.948V185.76C752.184 185.024 752 184.348 751.632 183.732C751.264 183.116 750.772 182.628 750.156 182.268C749.548 181.9 748.872 181.716 748.128 181.716C747.384 181.716 746.704 181.9 746.088 182.268C745.48 182.628 744.992 183.116 744.624 183.732C744.256 184.348 744.072 185.024 744.072 185.76V192.948C744.072 193.692 744.256 194.372 744.624 194.988C744.992 195.604 745.48 196.096 746.088 196.464C746.704 196.824 747.384 197.004 748.128 197.004Z" fill="white"/>
<path d="M750.432 138V134.496H742.2V133.14L748.068 120.72H749.616L743.748 133.14H750.432V127.92H751.824V133.14H753.804V134.496H751.824V138H750.432Z" fill="white"/>
<path d="M748.488 78.36C747.416 78.36 746.44 78.1 745.56 77.58C744.68 77.052 743.98 76.348 743.46 75.468C742.94 74.58 742.68 73.592 742.68 72.504V66.264C742.68 65.16 742.94 64.164 743.46 63.276C743.98 62.38 744.68 61.672 745.56 61.152C746.448 60.624 747.444 60.36 748.548 60.36C749.572 60.36 750.512 60.604 751.368 61.092C752.232 61.572 752.92 62.22 753.432 63.036L752.328 63.84C751.936 63.2 751.408 62.688 750.744 62.304C750.08 61.912 749.348 61.716 748.548 61.716C747.692 61.716 746.928 61.924 746.256 62.34C745.584 62.756 745.052 63.304 744.66 63.984C744.268 64.656 744.072 65.388 744.072 66.18V70.248L743.664 69.768C744.168 68.904 744.848 68.204 745.704 67.668C746.568 67.124 747.524 66.852 748.572 66.852C749.628 66.852 750.588 67.112 751.452 67.632C752.324 68.144 753.012 68.836 753.516 69.708C754.028 70.572 754.284 71.532 754.284 72.588C754.284 73.652 754.02 74.62 753.492 75.492C752.972 76.364 752.272 77.06 751.392 77.58C750.512 78.1 749.544 78.36 748.488 78.36ZM748.488 77.004C749.304 77.004 750.044 76.808 750.708 76.416C751.38 76.016 751.912 75.484 752.304 74.82C752.696 74.148 752.892 73.404 752.892 72.588C752.892 71.772 752.696 71.032 752.304 70.368C751.912 69.696 751.38 69.164 750.708 68.772C750.044 68.38 749.304 68.184 748.488 68.184C747.672 68.184 746.928 68.38 746.256 68.772C745.592 69.164 745.06 69.696 744.66 70.368C744.268 71.032 744.072 71.772 744.072 72.588C744.072 73.404 744.268 74.148 744.66 74.82C745.06 75.484 745.592 76.016 746.256 76.416C746.928 76.808 747.672 77.004 748.488 77.004Z" fill="white"/>
<path d="M747.828 18.36C746.764 18.36 745.828 18.152 745.02 17.736C744.212 17.312 743.58 16.72 743.124 15.96C742.668 15.192 742.44 14.284 742.44 13.236C742.44 12.124 742.712 11.148 743.256 10.308C743.8 9.46 744.64 8.828 745.776 8.412L745.764 9.048C744.804 8.768 744.076 8.244 743.58 7.476C743.084 6.708 742.836 5.86 742.836 4.932C742.836 3.98 743.048 3.164 743.472 2.484C743.904 1.796 744.496 1.272 745.248 0.912C746 0.544 746.86 0.36 747.828 0.36C748.796 0.36 749.652 0.544 750.396 0.912C751.148 1.272 751.736 1.796 752.16 2.484C752.592 3.164 752.808 3.98 752.808 4.932C752.808 5.86 752.572 6.704 752.1 7.464C751.628 8.224 750.9 8.744 749.916 9.024L749.832 8.424C750.976 8.824 751.828 9.448 752.388 10.296C752.948 11.144 753.228 12.124 753.228 13.236C753.228 14.284 752.996 15.192 752.532 15.96C752.076 16.72 751.44 17.312 750.624 17.736C749.816 18.152 748.884 18.36 747.828 18.36ZM747.828 17.004C748.996 17.004 749.94 16.68 750.66 16.032C751.388 15.384 751.752 14.452 751.752 13.236C751.752 12.004 751.392 11.068 750.672 10.428C749.96 9.78 749.012 9.456 747.828 9.456C746.636 9.456 745.68 9.78 744.96 10.428C744.248 11.068 743.892 12.004 743.892 13.236C743.892 14.452 744.256 15.384 744.984 16.032C745.712 16.68 746.66 17.004 747.828 17.004ZM747.828 8.1C748.868 8.1 749.712 7.836 750.36 7.308C751.008 6.772 751.332 5.98 751.332 4.932C751.332 3.884 751.008 3.096 750.36 2.568C749.712 2.032 748.868 1.764 747.828 1.764C746.78 1.764 745.932 2.032 745.284 2.568C744.636 3.096 744.312 3.884 744.312 4.932C744.312 5.98 744.636 6.772 745.284 7.308C745.932 7.836 746.78 8.1 747.828 8.1Z" fill="white"/>
<defs>
<linearGradient id="paint0_linear_410_1906" x1="10" y1="86.5672" x2="10" y2="190" gradientUnits="userSpaceOnUse">
<stop offset="0.317708" stop-color="#8B8B8B"/>
<stop offset="1" stop-color="#161716" stop-opacity="0"/>
</linearGradient>
<linearGradient id="paint1_linear_410_1906" x1="398.309" y1="86.5672" x2="398.309" y2="190" gradientUnits="userSpaceOnUse">
<stop offset="0.317708" stop-color="#8B8B8B"/>
<stop offset="1" stop-color="#161716" stop-opacity="0"/>
</linearGradient>
<linearGradient id="paint2_linear_410_1906" x1="25.8085" y1="87.3881" x2="25.8085" y2="190" gradientUnits="userSpaceOnUse">
<stop offset="0.317708" stop-color="#8B8B8B"/>
<stop offset="1" stop-color="#161716" stop-opacity="0"/>
</linearGradient>
<linearGradient id="paint3_linear_410_1906" x1="415.105" y1="87.3881" x2="415.105" y2="190" gradientUnits="userSpaceOnUse">
<stop offset="0.317708" stop-color="#8B8B8B"/>
<stop offset="1" stop-color="#161716" stop-opacity="0"/>
</linearGradient>
<linearGradient id="paint4_linear_410_1906" x1="42.6054" y1="88.209" x2="42.6054" y2="190" gradientUnits="userSpaceOnUse">
<stop offset="0.317708" stop-color="#8B8B8B"/>
<stop offset="1" stop-color="#161716" stop-opacity="0"/>
</linearGradient>
<linearGradient id="paint5_linear_410_1906" x1="430.916" y1="88.209" x2="430.916" y2="190" gradientUnits="userSpaceOnUse">
<stop offset="0.317708" stop-color="#8B8B8B"/>
<stop offset="1" stop-color="#161716" stop-opacity="0"/>
</linearGradient>
<linearGradient id="paint6_linear_410_1906" x1="58.416" y1="89.8507" x2="58.416" y2="190" gradientUnits="userSpaceOnUse">
<stop offset="0.317708" stop-color="#8B8B8B"/>
<stop offset="1" stop-color="#161716" stop-opacity="0"/>
</linearGradient>
<linearGradient id="paint7_linear_410_1906" x1="446.725" y1="89.8507" x2="446.725" y2="190" gradientUnits="userSpaceOnUse">
<stop offset="0.317708" stop-color="#8B8B8B"/>
<stop offset="1" stop-color="#161716" stop-opacity="0"/>
</linearGradient>
<linearGradient id="paint8_linear_410_1906" x1="74.2246" y1="90.6716" x2="74.2246" y2="190" gradientUnits="userSpaceOnUse">
<stop offset="0.317708" stop-color="#8B8B8B"/>
<stop offset="1" stop-color="#161716" stop-opacity="0"/>
</linearGradient>
<linearGradient id="paint9_linear_410_1906" x1="463.521" y1="90.6716" x2="463.521" y2="190" gradientUnits="userSpaceOnUse">
<stop offset="0.317708" stop-color="#8B8B8B"/>
<stop offset="1" stop-color="#161716" stop-opacity="0"/>
</linearGradient>
<linearGradient id="paint10_linear_410_1906" x1="91.0214" y1="89.8507" x2="91.0214" y2="190" gradientUnits="userSpaceOnUse">
<stop offset="0.317708" stop-color="#8B8B8B"/>
<stop offset="1" stop-color="#161716" stop-opacity="0"/>
</linearGradient>
<linearGradient id="paint11_linear_410_1906" x1="479.33" y1="89.8507" x2="479.33" y2="190" gradientUnits="userSpaceOnUse">
<stop offset="0.317708" stop-color="#8B8B8B"/>
<stop offset="1" stop-color="#161716" stop-opacity="0"/>
</linearGradient>
<linearGradient id="paint12_linear_410_1906" x1="106.83" y1="89.0299" x2="106.83" y2="190" gradientUnits="userSpaceOnUse">
<stop offset="0.317708" stop-color="#8B8B8B"/>
<stop offset="1" stop-color="#161716" stop-opacity="0"/>
</linearGradient>
<linearGradient id="paint13_linear_410_1906" x1="495.139" y1="89.0299" x2="495.139" y2="190" gradientUnits="userSpaceOnUse">
<stop offset="0.317708" stop-color="#8B8B8B"/>
<stop offset="1" stop-color="#161716" stop-opacity="0"/>
</linearGradient>
<linearGradient id="paint14_linear_410_1906" x1="122.639" y1="87.3881" x2="122.639" y2="190" gradientUnits="userSpaceOnUse">
<stop offset="0.317708" stop-color="#8B8B8B"/>
<stop offset="1" stop-color="#161716" stop-opacity="0"/>
</linearGradient>
<linearGradient id="paint15_linear_410_1906" x1="511.935" y1="87.3881" x2="511.935" y2="190" gradientUnits="userSpaceOnUse">
<stop offset="0.317708" stop-color="#8B8B8B"/>
<stop offset="1" stop-color="#161716" stop-opacity="0"/>
</linearGradient>
<linearGradient id="paint16_linear_410_1906" x1="139.435" y1="86.5672" x2="139.435" y2="190" gradientUnits="userSpaceOnUse">
<stop offset="0.317708" stop-color="#8B8B8B"/>
<stop offset="1" stop-color="#161716" stop-opacity="0"/>
</linearGradient>
<linearGradient id="paint17_linear_410_1906" x1="527.746" y1="86.5672" x2="527.746" y2="190" gradientUnits="userSpaceOnUse">
<stop offset="0.317708" stop-color="#8B8B8B"/>
<stop offset="1" stop-color="#161716" stop-opacity="0"/>
</linearGradient>
<linearGradient id="paint18_linear_410_1906" x1="155.246" y1="85.7463" x2="155.246" y2="190" gradientUnits="userSpaceOnUse">
<stop offset="0.317708" stop-color="#8B8B8B"/>
<stop offset="1" stop-color="#161716" stop-opacity="0"/>
</linearGradient>
<linearGradient id="paint19_linear_410_1906" x1="543.555" y1="85.7463" x2="543.555" y2="190" gradientUnits="userSpaceOnUse">
<stop offset="0.317708" stop-color="#8B8B8B"/>
<stop offset="1" stop-color="#161716" stop-opacity="0"/>
</linearGradient>
<linearGradient id="paint20_linear_410_1906" x1="171.055" y1="84.1045" x2="171.055" y2="190" gradientUnits="userSpaceOnUse">
<stop offset="0.317708" stop-color="#8B8B8B"/>
<stop offset="1" stop-color="#161716" stop-opacity="0"/>
</linearGradient>
<linearGradient id="paint21_linear_410_1906" x1="560.352" y1="84.1045" x2="560.352" y2="190" gradientUnits="userSpaceOnUse">
<stop offset="0.317708" stop-color="#8B8B8B"/>
<stop offset="1" stop-color="#161716" stop-opacity="0"/>
</linearGradient>
<linearGradient id="paint22_linear_410_1906" x1="187.852" y1="83.2836" x2="187.852" y2="190" gradientUnits="userSpaceOnUse">
<stop offset="0.317708" stop-color="#8B8B8B"/>
<stop offset="1" stop-color="#161716" stop-opacity="0"/>
</linearGradient>
<linearGradient id="paint23_linear_410_1906" x1="577.148" y1="83.2836" x2="577.148" y2="190" gradientUnits="userSpaceOnUse">
<stop offset="0.317708" stop-color="#8B8B8B"/>
<stop offset="1" stop-color="#161716" stop-opacity="0"/>
</linearGradient>
<linearGradient id="paint24_linear_410_1906" x1="204.648" y1="82.4627" x2="204.648" y2="190" gradientUnits="userSpaceOnUse">
<stop offset="0.317708" stop-color="#8B8B8B"/>
<stop offset="1" stop-color="#161716" stop-opacity="0"/>
</linearGradient>
<linearGradient id="paint25_linear_410_1906" x1="593.945" y1="82.4627" x2="593.945" y2="190" gradientUnits="userSpaceOnUse">
<stop offset="0.317708" stop-color="#8B8B8B"/>
<stop offset="1" stop-color="#161716" stop-opacity="0"/>
</linearGradient>
<linearGradient id="paint26_linear_410_1906" x1="221.445" y1="81.6418" x2="221.445" y2="190" gradientUnits="userSpaceOnUse">
<stop offset="0.317708" stop-color="#8B8B8B"/>
<stop offset="1" stop-color="#161716" stop-opacity="0"/>
</linearGradient>
<linearGradient id="paint27_linear_410_1906" x1="609.754" y1="81.6418" x2="609.754" y2="190" gradientUnits="userSpaceOnUse">
<stop offset="0.317708" stop-color="#8B8B8B"/>
<stop offset="1" stop-color="#161716" stop-opacity="0"/>
</linearGradient>
<linearGradient id="paint28_linear_410_1906" x1="237.254" y1="80" x2="237.254" y2="190" gradientUnits="userSpaceOnUse">
<stop offset="0.317708" stop-color="#8B8B8B"/>
<stop offset="1" stop-color="#161716" stop-opacity="0"/>
</linearGradient>
<linearGradient id="paint29_linear_410_1906" x1="625.564" y1="80" x2="625.564" y2="190" gradientUnits="userSpaceOnUse">
<stop offset="0.317708" stop-color="#8B8B8B"/>
<stop offset="1" stop-color="#161716" stop-opacity="0"/>
</linearGradient>
<linearGradient id="paint30_linear_410_1906" x1="253.064" y1="80.8209" x2="253.064" y2="190" gradientUnits="userSpaceOnUse">
<stop offset="0.317708" stop-color="#8B8B8B"/>
<stop offset="1" stop-color="#161716" stop-opacity="0"/>
</linearGradient>
<linearGradient id="paint31_linear_410_1906" x1="642.361" y1="80.8209" x2="642.361" y2="190" gradientUnits="userSpaceOnUse">
<stop offset="0.317708" stop-color="#8B8B8B"/>
<stop offset="1" stop-color="#161716" stop-opacity="0"/>
</linearGradient>
<linearGradient id="paint32_linear_410_1906" x1="269.861" y1="82.4627" x2="269.861" y2="190" gradientUnits="userSpaceOnUse">
<stop offset="0.317708" stop-color="#8B8B8B"/>
<stop offset="1" stop-color="#161716" stop-opacity="0"/>
</linearGradient>
<linearGradient id="paint33_linear_410_1906" x1="658.17" y1="82.4627" x2="658.17" y2="190" gradientUnits="userSpaceOnUse">
<stop offset="0.317708" stop-color="#8B8B8B"/>
<stop offset="1" stop-color="#161716" stop-opacity="0"/>
</linearGradient>
<linearGradient id="paint34_linear_410_1906" x1="285.67" y1="83.2836" x2="285.67" y2="190" gradientUnits="userSpaceOnUse">
<stop offset="0.317708" stop-color="#8B8B8B"/>
<stop offset="1" stop-color="#161716" stop-opacity="0"/>
</linearGradient>
<linearGradient id="paint35_linear_410_1906" x1="673.978" y1="83.2836" x2="673.978" y2="190" gradientUnits="userSpaceOnUse">
<stop offset="0.317708" stop-color="#8B8B8B"/>
<stop offset="1" stop-color="#161716" stop-opacity="0"/>
</linearGradient>
<linearGradient id="paint36_linear_410_1906" x1="301.478" y1="84.1045" x2="301.478" y2="190" gradientUnits="userSpaceOnUse">
<stop offset="0.317708" stop-color="#8B8B8B"/>
<stop offset="1" stop-color="#161716" stop-opacity="0"/>
</linearGradient>
<linearGradient id="paint37_linear_410_1906" x1="690.775" y1="84.1045" x2="690.775" y2="190" gradientUnits="userSpaceOnUse">
<stop offset="0.317708" stop-color="#8B8B8B"/>
<stop offset="1" stop-color="#161716" stop-opacity="0"/>
</linearGradient>
<linearGradient id="paint38_linear_410_1906" x1="318.275" y1="83.2836" x2="318.275" y2="190" gradientUnits="userSpaceOnUse">
<stop offset="0.317708" stop-color="#8B8B8B"/>
<stop offset="1" stop-color="#161716" stop-opacity="0"/>
</linearGradient>
<linearGradient id="paint39_linear_410_1906" x1="706.584" y1="83.2836" x2="706.584" y2="190" gradientUnits="userSpaceOnUse">
<stop offset="0.317708" stop-color="#8B8B8B"/>
<stop offset="1" stop-color="#161716" stop-opacity="0"/>
</linearGradient>
<linearGradient id="paint40_linear_410_1906" x1="334.084" y1="84.1045" x2="334.084" y2="190" gradientUnits="userSpaceOnUse">
<stop offset="0.317708" stop-color="#8B8B8B"/>
<stop offset="1" stop-color="#161716" stop-opacity="0"/>
</linearGradient>
<linearGradient id="paint41_linear_410_1906" x1="722.394" y1="84.1045" x2="722.394" y2="190" gradientUnits="userSpaceOnUse">
<stop offset="0.317708" stop-color="#8B8B8B"/>
<stop offset="1" stop-color="#161716" stop-opacity="0"/>
</linearGradient>
<linearGradient id="paint42_linear_410_1906" x1="349.894" y1="84.9254" x2="349.894" y2="190" gradientUnits="userSpaceOnUse">
<stop offset="0.317708" stop-color="#8B8B8B"/>
<stop offset="1" stop-color="#161716" stop-opacity="0"/>
</linearGradient>
<linearGradient id="paint43_linear_410_1906" x1="739.191" y1="84.9254" x2="739.191" y2="190" gradientUnits="userSpaceOnUse">
<stop offset="0.317708" stop-color="#8B8B8B"/>
<stop offset="1" stop-color="#161716" stop-opacity="0"/>
</linearGradient>
<linearGradient id="paint44_linear_410_1906" x1="366.691" y1="85.7463" x2="366.691" y2="190" gradientUnits="userSpaceOnUse">
<stop offset="0.317708" stop-color="#8B8B8B"/>
<stop offset="1" stop-color="#161716" stop-opacity="0"/>
</linearGradient>
<linearGradient id="paint45_linear_410_1906" x1="755" y1="85.7463" x2="755" y2="190" gradientUnits="userSpaceOnUse">
<stop offset="0.317708" stop-color="#8B8B8B"/>
<stop offset="1" stop-color="#161716" stop-opacity="0"/>
</linearGradient>
<linearGradient id="paint46_linear_410_1906" x1="382.5" y1="111.872" x2="382.5" y2="190" gradientUnits="userSpaceOnUse">
<stop stop-color="#D3AA5B"/>
<stop offset="1" stop-color="#161716" stop-opacity="0"/>
</linearGradient>
</defs>
</svg>
