<svg width="52" height="25" viewBox="0 0 52 25" fill="none" xmlns="http://www.w3.org/2000/svg">
<path d="M40.3667 0.00198364L36.9492 3.45167H51.9994V0.00198364H40.3667Z" fill="white"/>
<path d="M3.63562 21.5503V0.0020752L0 3.67406V25H14.3284V21.5503H3.63562Z" fill="white"/>
<path d="M33.0906 4.20097C32.3964 2.93294 31.3774 1.87655 30.1401 1.14235C28.7943 0.362039 27.2629 -0.032256 25.7113 0.00206376H16.9434V3.45175H25.0996C26.7009 3.45175 27.9794 3.87507 28.935 4.72171C29.8906 5.56836 30.3705 6.82185 30.3746 8.4822C30.3746 10.0492 29.8886 11.2732 28.9167 12.1542C27.9447 13.0351 26.6574 13.4749 25.0547 13.4735H20.5688L16.9434 17.1147V25H20.581V16.9253H25.6786C27.2373 16.9628 28.7772 16.5753 30.136 15.8035C31.3878 15.0871 32.4172 14.033 33.1089 12.7593C33.8012 11.4386 34.163 9.96711 34.163 8.47294C34.163 6.97878 33.8012 5.50726 33.1089 4.18656L33.0906 4.20097Z" fill="white"/>
<path d="M40.3668 21.5501L36.9473 24.9998H51.9995V21.5501H40.3668Z" fill="white"/>
<path d="M40.3647 10.7771L36.9473 14.2268H51.9995V10.7771H40.3647Z" fill="white"/>
</svg>
