<svg width="150" height="43" viewBox="0 0 150 43" fill="none" xmlns="http://www.w3.org/2000/svg">
<g clip-path="url(#clip0_492_9405)">
<path d="M59.9037 4.01953L54.8555 9.02425H77.0874V4.01953H59.9037Z" fill="white"/>
<path d="M5.64392 35.2811V4.01953L0.273438 9.34675V40.2859H21.4391V35.2811H5.64392Z" fill="white"/>
<path d="M49.1532 10.1113C48.1278 8.27164 46.6224 6.73906 44.7948 5.6739C42.8068 4.54184 40.5446 3.96981 38.2526 4.0196H25.3008V9.02432H37.349C39.7144 9.02432 41.603 9.63846 43.0146 10.8667C44.4263 12.095 45.1351 13.9136 45.1411 16.3224C45.1411 18.5958 44.4233 20.3715 42.9875 21.6496C41.5518 22.9277 39.6502 23.5657 37.2827 23.5637H30.6562L25.3008 28.8461V40.2859H30.6743V28.5714H38.2044C40.5069 28.6259 42.7815 28.0636 44.7887 26.944C46.6378 25.9046 48.1585 24.3754 49.1803 22.5275C50.2029 20.6115 50.7374 18.4766 50.7374 16.3089C50.7374 14.1412 50.2029 12.0064 49.1803 10.0904L49.1532 10.1113Z" fill="white"/>
<path d="M59.9028 35.2812L54.8516 40.286H77.0865V35.2812H59.9028Z" fill="white"/>
<path d="M59.8998 19.6523L54.8516 24.6571H77.0865V19.6523H59.8998Z" fill="white"/>
<path d="M101.452 13.1903H95.9004V3.84375H97.5058V12.0645L97.2287 11.6793H101.446L101.452 13.1903ZM104.801 13.3426C104.381 13.3614 103.963 13.2805 103.581 13.1067C103.302 12.9667 103.071 12.7473 102.918 12.4766C102.768 12.1968 102.666 11.894 102.617 11.5808C102.571 11.2303 102.548 10.8772 102.548 10.5237V6.49243H104.156V10.673C104.137 10.8351 104.154 10.9993 104.207 11.1541C104.259 11.3089 104.344 11.4505 104.458 11.5688C104.663 11.7162 104.912 11.7937 105.165 11.7898C105.435 11.7893 105.702 11.7376 105.952 11.6375C106.218 11.537 106.467 11.3937 106.687 11.2135C106.902 11.0489 107.084 10.8464 107.226 10.6162L107.352 11.4673H106.988V6.49243H108.593V13.1903H107.388L107.057 11.954H107.512C107.282 12.2298 107.017 12.4748 106.723 12.6826C106.438 12.8883 106.126 13.0541 105.795 13.1753C105.475 13.2861 105.139 13.3426 104.801 13.3426ZM114.292 13.1903L112.65 10.6371H113.147L111.503 13.1903H109.62L112.181 9.49944L112.196 10.1713L109.638 6.49243H111.521L113.168 9.03361H112.65L114.283 6.49243H116.165L113.605 10.1713L113.62 9.49944L116.181 13.1903H114.292ZM119.262 13.3426C118.847 13.3592 118.434 13.2784 118.057 13.1067C117.777 12.9667 117.545 12.7474 117.391 12.4766C117.241 12.1968 117.139 11.894 117.09 11.5808C117.044 11.2303 117.021 10.8772 117.021 10.5237V6.49243H118.626V10.673C118.607 10.8351 118.624 10.9993 118.676 11.1541C118.728 11.3089 118.814 11.4505 118.928 11.5688C119.132 11.7161 119.379 11.7937 119.632 11.7898C119.903 11.7892 120.171 11.7375 120.421 11.6375C120.688 11.537 120.936 11.3937 121.156 11.2135C121.371 11.0481 121.553 10.8458 121.696 10.6162L121.819 11.4673H121.476V6.49243H123.081V13.1903H121.876L121.545 11.954H121.988C121.758 12.2298 121.492 12.4748 121.199 12.6826C120.914 12.8883 120.601 13.0541 120.271 13.1753C119.951 13.2861 119.615 13.3426 119.277 13.3426H119.262ZM125.918 6.49243L126.319 8.31993V13.1903H124.714V6.49243H125.918ZM126.03 9.07243L125.696 8.92312V7.72868L125.822 7.56444C125.945 7.37091 126.094 7.19507 126.265 7.04187C126.475 6.84497 126.712 6.67903 126.97 6.54916C127.23 6.41561 127.519 6.34502 127.813 6.34313C127.943 6.34253 128.073 6.35151 128.202 6.37C128.308 6.37829 128.411 6.411 128.503 6.46555V7.90784H128.057C127.582 7.88088 127.109 7.9842 126.69 8.20646C126.368 8.40288 126.132 8.71197 126.03 9.07243ZM131.626 12.4617L128.94 6.48944H130.599L133.036 11.9122L131.626 12.4617ZM129.964 15.7971L134.159 6.49243H135.819L131.626 15.7971H129.964ZM97.1865 22.3427H99.057C99.5508 22.3694 100.036 22.2069 100.412 21.8888C100.586 21.7283 100.722 21.5319 100.81 21.3137C100.899 21.0954 100.938 20.8606 100.924 20.6257C100.942 20.3859 100.907 20.1451 100.821 19.9203C100.735 19.6954 100.601 19.4918 100.427 19.3237C100.046 19.0148 99.5612 18.8583 99.0691 18.8848H97.1865L97.5058 18.5265V26.7203H95.9004V17.3738H99.2618C99.8722 17.3584 100.476 17.5058 101.009 17.8008C101.499 18.0675 101.903 18.4673 102.171 18.9535C102.453 19.4659 102.595 20.0422 102.584 20.6257C102.594 21.2099 102.452 21.7868 102.171 22.3009C101.898 22.7801 101.496 23.1742 101.009 23.4386C100.472 23.7225 99.8702 23.8644 99.2618 23.8507H97.1865V22.3427ZM104.87 20.0225L105.274 21.847V26.7203H103.668V20.0225H104.87ZM104.982 22.6025L104.65 22.4502V21.2558L104.774 21.0915C104.897 20.8983 105.046 20.7225 105.217 20.569C105.428 20.3718 105.666 20.205 105.924 20.0733C106.186 19.942 106.475 19.8725 106.768 19.8702C106.898 19.8696 107.028 19.8786 107.156 19.8971C107.263 19.9042 107.367 19.937 107.458 19.9926V21.4319H107.015C106.539 21.4049 106.065 21.5082 105.644 21.7306C105.322 21.9292 105.085 22.2401 104.982 22.6025ZM111.214 26.8756C110.577 26.8894 109.948 26.738 109.388 26.4367C108.87 26.1526 108.443 25.7293 108.156 25.2153C107.873 24.6455 107.726 24.0187 107.726 23.3834C107.726 22.7481 107.873 22.1213 108.156 21.5514C108.44 21.0321 108.867 20.6041 109.388 20.3181C109.953 20.0297 110.58 19.8793 111.215 19.8793C111.851 19.8793 112.477 20.0297 113.042 20.3181C113.557 20.6034 113.976 21.0322 114.247 21.5514C114.538 22.119 114.689 22.7467 114.689 23.3834C114.689 24.0201 114.538 24.6478 114.247 25.2153C113.972 25.7288 113.554 26.1528 113.042 26.4367C112.481 26.7378 111.851 26.889 111.214 26.8756ZM111.214 25.3408C111.463 25.3507 111.712 25.3079 111.944 25.2152C112.175 25.1225 112.384 24.9821 112.557 24.8033C112.908 24.4113 113.091 23.8995 113.069 23.3759C113.093 22.8566 112.909 22.3491 112.557 21.9635C112.386 21.7812 112.178 21.6377 111.946 21.5429C111.714 21.448 111.464 21.4041 111.214 21.414C110.965 21.4042 110.717 21.4467 110.486 21.5388C110.255 21.631 110.046 21.7706 109.873 21.9485C109.519 22.3384 109.335 22.8517 109.361 23.3759C109.337 23.8997 109.521 24.4121 109.873 24.8033C110.046 24.9811 110.255 25.1205 110.486 25.2122C110.717 25.3038 110.965 25.3456 111.214 25.3348V25.3408ZM119.443 26.8756C118.889 26.8991 118.341 26.7555 117.872 26.4639C117.402 26.1722 117.033 25.7463 116.813 25.2422C116.566 24.6556 116.44 24.0264 116.44 23.3908C116.44 22.7553 116.566 22.1261 116.813 21.5394C117.042 21.0431 117.406 20.62 117.864 20.3181C118.335 20.0205 118.884 19.8678 119.443 19.8792C120.02 19.8603 120.59 20.0087 121.084 20.3062C121.56 20.6049 121.94 21.033 122.177 21.5394C122.432 22.1173 122.563 22.741 122.563 23.3714C122.563 24.0019 122.432 24.6256 122.177 25.2034C121.937 25.7048 121.558 26.1283 121.084 26.4247C120.592 26.7285 120.022 26.885 119.443 26.8756ZM115.912 29.3332V20.0225H117.117L117.521 21.4917H117.382V25.075H117.521V29.3302L115.912 29.3332ZM119.181 25.4512C119.42 25.4584 119.657 25.4115 119.875 25.3143C120.093 25.217 120.286 25.0719 120.44 24.8899C120.775 24.4653 120.947 23.9358 120.924 23.3968C120.949 22.852 120.777 22.3162 120.44 21.8858C120.289 21.7002 120.096 21.5516 119.878 21.4517C119.66 21.3517 119.421 21.3031 119.181 21.3095C118.94 21.3053 118.702 21.355 118.484 21.4548C118.266 21.5546 118.074 21.7019 117.921 21.8858C117.583 22.309 117.411 22.8394 117.437 23.3789C117.411 23.9238 117.583 24.4596 117.921 24.8899C118.077 25.0686 118.271 25.2108 118.488 25.3064C118.706 25.4019 118.942 25.4483 119.181 25.4423V25.4512ZM126.506 26.8577C125.897 26.8706 125.295 26.7233 124.762 26.4307C124.265 26.1383 123.858 25.7157 123.587 25.2094C123.299 24.6443 123.157 24.0176 123.171 23.3849C123.155 22.7472 123.298 22.1154 123.587 21.5454C123.855 21.0338 124.262 20.6067 124.762 20.3122C125.292 20.0117 125.895 19.86 126.506 19.8732C127.123 19.8581 127.732 20.0142 128.265 20.3241C128.769 20.6148 129.177 21.0442 129.44 21.5603C129.726 22.1206 129.869 22.7421 129.855 23.3699C129.86 23.4525 129.86 23.5352 129.855 23.6178C129.855 23.6917 129.85 23.7655 129.84 23.8387H124.587V22.5607H128.644L128.313 23.2923C128.338 22.7419 128.182 22.1984 127.87 21.7425C127.715 21.5403 127.51 21.3797 127.276 21.2754C127.042 21.1711 126.786 21.1264 126.53 21.1453C126.289 21.1341 126.049 21.1735 125.824 21.261C125.6 21.3485 125.397 21.4821 125.229 21.6529C124.903 22.0145 124.733 22.4884 124.756 22.9728V23.6984C124.731 24.1947 124.901 24.6813 125.229 25.0571C125.404 25.2257 125.612 25.3565 125.841 25.4413C126.069 25.5261 126.313 25.563 126.557 25.5498C126.973 25.5757 127.385 25.4655 127.732 25.2362C128.022 25.0214 128.271 24.7564 128.467 24.4539L129.617 25.1407C129.342 25.6763 128.919 26.1235 128.397 26.4307C127.817 26.7378 127.163 26.8852 126.506 26.8577ZM132.265 20.0225L132.665 21.847V26.7203H131.06V20.0225H132.265ZM132.376 22.6025L132.042 22.4502V21.2558L132.168 21.0915C132.29 20.8969 132.439 20.7208 132.611 20.569C132.821 20.3712 133.058 20.2043 133.316 20.0733C133.579 19.942 133.868 19.8725 134.162 19.8702C134.291 19.8696 134.42 19.8786 134.548 19.8971C134.654 19.9054 134.758 19.9381 134.849 19.9926V21.4319H134.406C133.931 21.4049 133.456 21.5082 133.036 21.7306C132.717 21.9308 132.484 22.2416 132.382 22.6025H132.376ZM138.72 26.8428C138.159 26.8724 137.608 26.6851 137.184 26.3202C136.816 25.9649 136.629 25.4065 136.629 24.648V20.0225L136.931 18.4727H138.253V24.5106C138.244 24.619 138.258 24.728 138.294 24.8308C138.329 24.9336 138.386 25.0279 138.461 25.1078C138.608 25.2389 138.802 25.3075 139 25.299C139.135 25.2998 139.27 25.2909 139.403 25.2721C139.51 25.2566 139.616 25.2337 139.72 25.2034V26.6965C139.575 26.7452 139.427 26.7821 139.277 26.8069C139.095 26.8356 138.91 26.8476 138.726 26.8428H138.72ZM135.593 21.4678V20.0135H139.702V21.4678H135.593ZM143.241 25.9798L140.554 20.0076H142.214L144.65 25.4274L143.241 25.9798ZM141.566 29.3272L145.783 20.0225H147.446L143.253 29.3272H141.566ZM97.0781 36.3087V34.8008H100.912V36.3087H97.0781ZM97.0359 32.4119L97.4938 31.8356V39.1635L96.9877 38.7394H101.735V40.2474H95.9004V30.9039H101.726V32.3969L97.0359 32.4119ZM107.277 40.2474L105.629 37.6973H106.129L104.482 40.2474H102.599L105.159 36.5566L105.174 37.2285L102.614 33.5526H104.518L106.162 36.0908H105.65L107.286 33.5526H109.168L106.608 37.2285V36.5566L109.168 40.2474H107.277ZM113.699 40.3997C113.138 40.4123 112.586 40.264 112.108 39.9727C111.655 39.6796 111.295 39.2655 111.069 38.7783C110.823 38.1911 110.696 37.5614 110.696 36.9254C110.696 36.2894 110.823 35.6597 111.069 35.0725C111.299 34.5758 111.664 34.1527 112.123 33.8512C112.593 33.5533 113.141 33.4006 113.699 33.4122C114.269 33.3942 114.833 33.5435 115.318 33.8415C115.804 34.1395 116.189 34.5729 116.427 35.0874C116.682 35.6653 116.813 36.2889 116.813 36.9194C116.813 37.5499 116.682 38.1735 116.427 38.7514C116.186 39.2523 115.807 39.6756 115.334 39.9727C114.845 40.2648 114.282 40.4129 113.711 40.3997H113.699ZM110.171 42.8543V33.5526H111.376L111.78 35.0187H111.641V38.6021H111.78V42.8543H110.171ZM113.437 38.9724C113.676 38.9795 113.913 38.9326 114.131 38.8354C114.349 38.7381 114.542 38.593 114.696 38.411C115.011 37.972 115.18 37.4464 115.18 36.9075C115.18 36.3685 115.011 35.843 114.696 35.404C114.545 35.2178 114.353 35.0689 114.134 34.9689C113.916 34.8689 113.677 34.8205 113.437 34.8276C113.196 34.8228 112.958 34.8721 112.74 34.972C112.522 35.0718 112.33 35.2195 112.177 35.404C111.839 35.8272 111.667 36.3576 111.693 36.897C111.668 37.4418 111.84 37.9776 112.177 38.408C112.333 38.5905 112.528 38.7359 112.748 38.8336C112.968 38.9313 113.208 38.9787 113.449 38.9724H113.437ZM120.934 40.3997C120.297 40.4128 119.668 40.2615 119.108 39.9608C118.59 39.6759 118.164 39.2528 117.876 38.7394C117.593 38.1696 117.446 37.5428 117.446 36.9075C117.446 36.2722 117.593 35.6454 117.876 35.0755C118.16 34.5554 118.587 34.1264 119.108 33.8392C119.673 33.5509 120.3 33.4004 120.935 33.4004C121.571 33.4004 122.197 33.5509 122.762 33.8392C123.276 34.1267 123.695 34.5563 123.967 35.0755C124.256 35.6436 124.406 36.2711 124.406 36.9075C124.406 37.5438 124.256 38.1713 123.967 38.7394C123.691 39.252 123.273 39.6757 122.762 39.9608C122.205 40.2599 121.579 40.4111 120.946 40.3997H120.934ZM120.934 38.8619C121.183 38.8716 121.431 38.829 121.663 38.7369C121.894 38.6448 122.104 38.5052 122.277 38.3274C122.629 37.9358 122.812 37.4237 122.789 36.9C122.802 36.6427 122.763 36.3855 122.675 36.1432C122.587 35.9008 122.452 35.678 122.277 35.4876C122.106 35.3053 121.898 35.1618 121.666 35.067C121.434 34.9721 121.184 34.9282 120.934 34.9381C120.685 34.9286 120.437 34.9713 120.206 35.0635C119.975 35.1556 119.766 35.295 119.593 35.4726C119.239 35.8625 119.054 36.3758 119.081 36.9C119.058 37.4237 119.241 37.9358 119.593 38.3274C119.767 38.5065 119.978 38.6469 120.211 38.739C120.444 38.8312 120.695 38.8731 120.946 38.8619H120.934Z" fill="white"/>
<path d="M147.319 0.612432C147.802 0.816382 148.241 1.11037 148.611 1.4784C148.983 1.84776 149.28 2.28344 149.488 2.76243C149.701 3.26097 149.809 3.79762 149.804 4.3391C149.811 4.86768 149.708 5.39201 149.503 5.87993C149.299 6.35798 149.005 6.79284 148.635 7.16097C148.267 7.53363 147.828 7.83089 147.343 8.0359C146.844 8.24475 146.308 8.35235 145.766 8.35235C145.225 8.35235 144.689 8.24475 144.19 8.0359C143.217 7.61876 142.444 6.8468 142.03 5.87993C141.825 5.39201 141.722 4.86768 141.729 4.3391C141.725 3.79741 141.834 3.26075 142.048 2.76243C142.463 1.79621 143.237 1.02597 144.211 0.612432C144.706 0.403562 145.238 0.295898 145.775 0.295898C146.313 0.295898 146.845 0.403562 147.34 0.612432H147.319ZM147.253 6.94C147.698 6.68045 148.067 6.3098 148.322 5.865C148.59 5.40084 148.727 4.87385 148.72 4.3391C148.729 3.79949 148.591 3.26741 148.322 2.79827C148.067 2.35347 147.698 1.98282 147.253 1.72326C146.798 1.46504 146.282 1.32921 145.757 1.32921C145.233 1.32921 144.717 1.46504 144.262 1.72326C143.815 1.98367 143.444 2.35393 143.184 2.79827C142.91 3.2658 142.77 3.79861 142.78 4.3391C142.771 4.87473 142.911 5.40246 143.184 5.865C143.444 6.30933 143.815 6.6796 144.262 6.94C144.717 7.19822 145.233 7.33406 145.757 7.33406C146.282 7.33406 146.798 7.19822 147.253 6.94ZM145.699 5.16924C146.158 5.19466 146.612 5.06288 146.985 4.79597C147.136 4.65915 147.257 4.49264 147.339 4.30704C147.422 4.12144 147.464 3.92082 147.464 3.71799C147.464 3.51515 147.422 3.31454 147.339 3.12894C147.257 2.94334 147.136 2.77682 146.985 2.64C146.61 2.37865 146.157 2.25031 145.699 2.2757H144.298V6.22931H145.265V2.8341L144.934 3.1775H145.756C146.229 3.1775 146.467 3.35965 146.467 3.72097C146.467 4.08229 146.229 4.26743 145.756 4.26743H144.991V5.16326L145.699 5.16924ZM146.524 4.65264H145.455L146.358 6.22931H147.4L146.524 4.65264Z" fill="white"/>
</g>
<defs>
<clipPath id="clip0_492_9405">
<rect width="150" height="43" fill="white"/>
</clipPath>
</defs>
</svg>
