<svg width="168" height="49" viewBox="0 0 168 49" fill="none" xmlns="http://www.w3.org/2000/svg">
<g clip-path="url(#clip0_1184_11916)">
<path d="M67.0915 4.58008L61.4375 10.2831H86.3373V4.58008H67.0915Z" fill="white"/>
<path d="M6.32158 40.2038V4.58008L0.306641 10.6506V45.9068H24.0122V40.2038H6.32158Z" fill="white"/>
<path d="M55.0526 11.5217C53.9041 9.42542 52.2182 7.67899 50.1711 6.46521C47.9446 5.17519 45.411 4.52333 42.8439 4.58007H28.3379V10.2831H41.8319C44.4812 10.2831 46.5964 10.983 48.1774 12.3826C49.7585 13.7823 50.5523 15.8546 50.5591 18.5995C50.5591 21.1902 49.7551 23.2137 48.147 24.6701C46.539 26.1265 44.4092 26.8535 41.7577 26.8513H34.336L28.3379 32.8708V45.9068H34.3562V32.5577H42.7899C45.3687 32.6198 47.9163 31.9791 50.1644 30.7032C52.2354 29.5189 53.9385 27.7762 55.083 25.6705C56.2282 23.4871 56.8269 21.0544 56.8269 18.5842C56.8269 16.114 56.2282 13.6813 55.083 11.4979L55.0526 11.5217Z" fill="white"/>
<path d="M67.091 40.2041L61.4336 45.9072H86.3367V40.2041H67.091Z" fill="white"/>
<path d="M67.0876 22.3936L61.4336 28.0966H86.3367V22.3936H67.0876Z" fill="white"/>
<path d="M113.626 15.0301H107.408V4.37939H109.206V13.7472L108.896 13.3083H113.619L113.626 15.0301ZM117.377 15.2036C116.907 15.225 116.438 15.1329 116.011 14.9348C115.698 14.7753 115.439 14.5253 115.268 14.2168C115.1 13.8979 114.986 13.5529 114.931 13.196C114.879 12.7966 114.853 12.3942 114.853 11.9914V7.39766H116.655V12.1615C116.634 12.3462 116.653 12.5334 116.711 12.7098C116.769 12.8862 116.865 13.0475 116.992 13.1824C117.223 13.3503 117.501 13.4386 117.785 13.4342C118.087 13.4336 118.386 13.3747 118.666 13.2606C118.964 13.1461 119.242 12.9828 119.489 12.7774C119.73 12.5899 119.934 12.3592 120.093 12.0969L120.234 13.0667H119.826V7.39766H121.624V15.0301H120.275L119.904 13.6213H120.413C120.155 13.9356 119.858 14.2147 119.529 14.4516C119.21 14.6859 118.86 14.8749 118.49 15.0131C118.132 15.1392 117.756 15.2036 117.377 15.2036ZM128.007 15.0301L126.168 12.1207H126.725L124.883 15.0301H122.774L125.642 10.8243L125.659 11.5899L122.795 7.39766H124.903L126.748 10.2934H126.168L127.997 7.39766H130.105L127.238 11.5899L127.254 10.8243L130.122 15.0301H128.007ZM133.573 15.2036C133.108 15.2226 132.646 15.1305 132.224 14.9348C131.91 14.7753 131.651 14.5254 131.478 14.2168C131.31 13.898 131.196 13.5529 131.141 13.196C131.089 12.7966 131.063 12.3942 131.063 11.9914V7.39766H132.861V12.1615C132.84 12.3462 132.859 12.5334 132.917 12.7098C132.976 12.8862 133.072 13.0475 133.199 13.1824C133.428 13.3503 133.705 13.4386 133.988 13.4342C134.291 13.4335 134.591 13.3747 134.872 13.2606C135.171 13.1461 135.449 12.9828 135.695 12.7774C135.935 12.589 136.14 12.3584 136.299 12.0969L136.437 13.0667H136.053V7.39766H137.851V15.0301H136.501L136.13 13.6213H136.626C136.368 13.9356 136.071 14.2147 135.742 14.4516C135.423 14.6859 135.073 14.8749 134.703 15.0131C134.345 15.1392 133.969 15.2036 133.59 15.2036H133.573ZM141.028 7.39766L141.477 9.48016V15.0301H139.679V7.39766H141.028ZM141.153 10.3377L140.779 10.1675V8.80641L140.92 8.61926C141.058 8.39872 141.225 8.19834 141.416 8.02377C141.651 7.79939 141.917 7.6103 142.206 7.46231C142.498 7.31012 142.822 7.22968 143.15 7.22752C143.296 7.22684 143.441 7.23707 143.586 7.25814C143.705 7.2676 143.82 7.30487 143.923 7.36703V9.01057H143.424C142.892 8.97985 142.362 9.09759 141.892 9.35085C141.532 9.57468 141.268 9.9269 141.153 10.3377ZM147.421 14.1998L144.412 7.39425H146.271L149 13.5737L147.421 14.1998ZM145.559 18.0007L150.258 7.39766H152.117L147.421 18.0007H145.559ZM108.849 25.4596H110.944C111.497 25.49 112.04 25.3048 112.462 24.9424C112.656 24.7594 112.808 24.5357 112.907 24.287C113.006 24.0383 113.05 23.7706 113.035 23.503C113.055 23.2297 113.016 22.9554 112.919 22.6991C112.823 22.4429 112.673 22.2109 112.479 22.0194C112.051 21.6674 111.508 21.489 110.957 21.5192H108.849L109.206 21.1108V30.4481H107.408V19.7974H111.173C111.857 19.7798 112.532 19.9478 113.13 20.284C113.679 20.5878 114.131 21.0435 114.432 21.5974C114.747 22.1814 114.907 22.8381 114.894 23.503C114.905 24.1688 114.745 24.8261 114.432 25.412C114.126 25.9581 113.675 26.4071 113.13 26.7084C112.528 27.0319 111.854 27.1936 111.173 27.178H108.849V25.4596ZM117.454 22.8156L117.907 24.8947V30.4481H116.108V22.8156H117.454ZM117.579 25.7556L117.208 25.5821V24.221L117.347 24.0338C117.484 23.8136 117.651 23.6133 117.842 23.4384C118.079 23.2137 118.346 23.0236 118.635 22.8735C118.928 22.7239 119.251 22.6447 119.58 22.6421C119.725 22.6414 119.871 22.6517 120.015 22.6727C120.134 22.6809 120.25 22.7183 120.352 22.7816V24.4218H119.856C119.323 24.3909 118.792 24.5087 118.321 24.762C117.96 24.9884 117.695 25.3427 117.579 25.7556ZM124.559 30.625C123.846 30.6407 123.141 30.4682 122.515 30.1248C121.934 29.8011 121.456 29.3187 121.135 28.7331C120.818 28.0837 120.653 27.3694 120.653 26.6455C120.653 25.9215 120.818 25.2073 121.135 24.5579C121.452 23.9661 121.931 23.4784 122.515 23.1525C123.148 22.8239 123.849 22.6525 124.561 22.6525C125.272 22.6525 125.974 22.8239 126.607 23.1525C127.183 23.4776 127.652 23.9663 127.956 24.5579C128.282 25.2047 128.452 25.9199 128.452 26.6455C128.452 27.371 128.282 28.0863 127.956 28.7331C127.648 29.3181 127.18 29.8013 126.607 30.1248C125.979 30.4679 125.273 30.6403 124.559 30.625ZM124.559 28.876C124.839 28.8873 125.117 28.8385 125.377 28.7329C125.636 28.6273 125.87 28.4673 126.064 28.2635C126.457 27.8168 126.662 27.2336 126.637 26.637C126.664 26.0452 126.457 25.4669 126.064 25.0274C125.872 24.8197 125.639 24.6562 125.379 24.5482C125.12 24.4401 124.84 24.39 124.559 24.4013C124.28 24.3901 124.002 24.4386 123.744 24.5436C123.485 24.6486 123.251 24.8077 123.058 25.0104C122.661 25.4547 122.455 26.0396 122.484 26.637C122.457 27.2339 122.663 27.8177 123.058 28.2635C123.251 28.4662 123.485 28.625 123.744 28.7294C124.003 28.8339 124.281 28.8815 124.559 28.8692V28.876ZM133.775 30.625C133.155 30.6518 132.542 30.4882 132.016 30.1558C131.49 29.8235 131.077 29.3381 130.83 28.7637C130.554 28.0952 130.412 27.3782 130.412 26.654C130.412 25.9298 130.554 25.2127 130.83 24.5443C131.086 23.9786 131.494 23.4965 132.008 23.1525C132.535 22.8134 133.15 22.6394 133.775 22.6523C134.422 22.6309 135.061 22.8 135.614 23.1389C136.147 23.4793 136.572 23.9671 136.839 24.5443C137.123 25.2027 137.27 25.9134 137.27 26.6319C137.27 27.3503 137.123 28.061 136.839 28.7195C136.569 29.2909 136.144 29.7735 135.614 30.1112C135.063 30.4573 134.425 30.6357 133.775 30.625ZM129.822 33.4255V22.8156H131.171L131.623 24.4898H131.468V28.5731H131.623V33.4221L129.822 33.4255ZM133.482 29.0019C133.75 29.01 134.016 28.9566 134.26 28.8458C134.504 28.735 134.72 28.5696 134.892 28.3622C135.268 27.8783 135.461 27.275 135.435 26.6608C135.463 26.0399 135.271 25.4294 134.892 24.939C134.723 24.7275 134.508 24.5582 134.263 24.4443C134.019 24.3304 133.751 24.2749 133.482 24.2822C133.213 24.2774 132.947 24.334 132.702 24.4478C132.458 24.5615 132.243 24.7294 132.072 24.939C131.693 25.4212 131.5 26.0257 131.529 26.6404C131.5 27.2613 131.693 27.8719 132.072 28.3622C132.246 28.5658 132.463 28.728 132.707 28.8368C132.951 28.9457 133.215 28.9986 133.482 28.9917V29.0019ZM141.686 30.6046C141.004 30.6193 140.33 30.4514 139.733 30.118C139.176 29.7848 138.721 29.3033 138.417 28.7263C138.095 28.0823 137.935 27.3683 137.952 26.6472C137.934 25.9205 138.094 25.2006 138.417 24.5511C138.718 23.9681 139.173 23.4814 139.733 23.1457C140.327 22.8034 141.002 22.6305 141.686 22.6455C142.378 22.6283 143.06 22.8062 143.656 23.1593C144.221 23.4906 144.678 23.9799 144.972 24.5681C145.293 25.2065 145.453 25.9147 145.438 26.6302C145.443 26.7242 145.443 26.8185 145.438 26.9126C145.438 26.9968 145.432 27.0809 145.421 27.1644H139.537V25.708H144.081L143.71 26.5417C143.738 25.9145 143.564 25.2951 143.214 24.7756C143.04 24.5452 142.812 24.3622 142.549 24.2434C142.287 24.1246 142 24.0736 141.713 24.0951C141.444 24.0823 141.174 24.1273 140.923 24.227C140.672 24.3267 140.445 24.4789 140.256 24.6736C139.891 25.0856 139.701 25.6256 139.726 26.1776V27.0045C139.699 27.57 139.889 28.1245 140.256 28.5527C140.452 28.7448 140.685 28.8939 140.941 28.9905C141.198 29.0871 141.471 29.1292 141.744 29.1142C142.209 29.1437 142.671 29.0182 143.059 28.7569C143.385 28.5121 143.663 28.2101 143.882 27.8654L145.171 28.648C144.862 29.2583 144.389 29.768 143.805 30.118C143.154 30.4679 142.423 30.6359 141.686 30.6046ZM148.136 22.8156L148.585 24.8947V30.4481H146.787V22.8156H148.136ZM148.261 25.7556L147.887 25.5821V24.221L148.028 24.0338C148.164 23.812 148.331 23.6114 148.524 23.4384C148.759 23.213 149.025 23.0228 149.314 22.8735C149.608 22.7239 149.932 22.6447 150.262 22.6421C150.406 22.6414 150.551 22.6516 150.693 22.6727C150.813 22.6822 150.928 22.7195 151.031 22.7816V24.4218H150.535C150.002 24.3909 149.471 24.5087 149 24.762C148.642 24.9902 148.381 25.3444 148.268 25.7556H148.261ZM155.366 30.5876C154.737 30.6214 154.121 30.4079 153.645 29.9921C153.234 29.5872 153.025 28.9508 153.025 28.0865V22.8156L153.362 21.0496H154.843V27.93C154.833 28.0535 154.849 28.1777 154.889 28.2948C154.929 28.412 154.992 28.5195 155.076 28.6106C155.241 28.7599 155.458 28.8381 155.68 28.8284C155.831 28.8294 155.982 28.8191 156.132 28.7977C156.251 28.7801 156.37 28.754 156.486 28.7195V30.4208C156.324 30.4764 156.158 30.5185 155.99 30.5468C155.786 30.5794 155.579 30.5931 155.373 30.5876H155.366ZM151.864 24.4626V22.8054H156.466V24.4626H151.864ZM160.429 29.6042L157.42 22.7986H159.279L162.008 28.9747L160.429 29.6042ZM158.554 33.4187L163.277 22.8156H165.139L160.443 33.4187H158.554ZM108.727 41.3744V39.656H113.022V41.3744H108.727ZM108.68 36.9338L109.193 36.277V44.6274L108.626 44.1443H113.943V45.8627H107.408V35.2154H113.933V36.9168L108.68 36.9338ZM120.15 45.8627L118.305 42.9567H118.865L117.019 45.8627H114.911L117.778 41.6568L117.795 42.4224L114.928 38.2336H117.06L118.902 41.126H118.328L120.16 38.2336H122.268L119.401 42.4224V41.6568L122.268 45.8627H120.15ZM127.342 46.0362C126.714 46.0505 126.096 45.8815 125.561 45.5496C125.054 45.2156 124.65 44.7437 124.397 44.1885C124.121 43.5194 123.979 42.8018 123.979 42.0771C123.979 41.3523 124.121 40.6348 124.397 39.9656C124.654 39.3997 125.063 38.9176 125.578 38.5739C126.104 38.2345 126.718 38.0604 127.342 38.0737C127.981 38.0531 128.612 38.2233 129.156 38.5629C129.7 38.9025 130.132 39.3964 130.399 39.9827C130.683 40.6411 130.83 41.3518 130.83 42.0703C130.83 42.7887 130.683 43.4994 130.399 44.1579C130.128 44.7287 129.704 45.211 129.174 45.5496C128.626 45.8824 127.995 46.0512 127.356 46.0362H127.342ZM123.392 48.8333V38.2336H124.741L125.193 39.9044H125.038V43.9877H125.193V48.8333H123.392ZM127.049 44.4097C127.316 44.4178 127.582 44.3644 127.827 44.2536C128.071 44.1427 128.287 43.9774 128.459 43.7699C128.812 43.2697 129.002 42.6708 129.002 42.0566C129.002 41.4425 128.812 40.8436 128.459 40.3433C128.29 40.1312 128.075 39.9615 127.83 39.8475C127.586 39.7336 127.318 39.6785 127.049 39.6866C126.78 39.6811 126.513 39.7373 126.269 39.8511C126.024 39.9649 125.809 40.1332 125.639 40.3433C125.26 40.8256 125.067 41.43 125.095 42.0447C125.067 42.6656 125.26 43.2761 125.639 43.7665C125.813 43.9745 126.031 44.1403 126.278 44.2516C126.524 44.3629 126.792 44.4169 127.062 44.4097H127.049ZM135.445 46.0362C134.732 46.0511 134.028 45.8787 133.401 45.536C132.821 45.2114 132.343 44.7292 132.021 44.1443C131.704 43.4949 131.539 42.7806 131.539 42.0566C131.539 41.3327 131.704 40.6184 132.021 39.969C132.339 39.3764 132.817 38.8876 133.401 38.5603C134.034 38.2317 134.735 38.0602 135.447 38.0602C136.159 38.0602 136.86 38.2317 137.493 38.5603C138.069 38.8879 138.538 39.3774 138.842 39.969C139.166 40.6165 139.335 41.3315 139.335 42.0566C139.335 42.7818 139.166 43.4968 138.842 44.1443C138.533 44.7283 138.065 45.2111 137.493 45.536C136.869 45.8768 136.168 46.0491 135.459 46.0362H135.445ZM135.445 44.2838C135.724 44.2948 136.003 44.2463 136.262 44.1413C136.521 44.0364 136.756 43.8773 136.95 43.6747C137.344 43.2285 137.55 42.645 137.523 42.0481C137.538 41.755 137.494 41.4619 137.396 41.1857C137.297 40.9095 137.146 40.6556 136.95 40.4386C136.759 40.2309 136.525 40.0674 136.266 39.9593C136.006 39.8513 135.726 39.8012 135.445 39.8125C135.167 39.8017 134.889 39.8504 134.63 39.9553C134.372 40.0603 134.138 40.2192 133.944 40.4216C133.547 40.8658 133.341 41.4508 133.371 42.0481C133.344 42.645 133.55 43.2285 133.944 43.6747C134.139 43.8788 134.375 44.0388 134.636 44.1438C134.898 44.2488 135.178 44.2965 135.459 44.2838H135.445Z" fill="white"/>
<path d="M164.998 0.697615C165.538 0.930024 166.03 1.26503 166.445 1.68442C166.861 2.10532 167.194 2.60178 167.427 3.14761C167.666 3.71572 167.786 4.32724 167.781 4.94428C167.788 5.54662 167.673 6.14411 167.444 6.70012C167.215 7.24487 166.885 7.7404 166.472 8.1599C166.059 8.58456 165.567 8.9233 165.025 9.15692C164.466 9.39491 163.865 9.51753 163.259 9.51753C162.652 9.51753 162.052 9.39491 161.493 9.15692C160.404 8.68157 159.538 7.8019 159.074 6.70012C158.844 6.14411 158.729 5.54662 158.737 4.94428C158.733 4.32701 158.854 3.71547 159.094 3.14761C159.558 2.04657 160.426 1.16886 161.516 0.697615C162.071 0.459601 162.667 0.336914 163.269 0.336914C163.871 0.336914 164.467 0.459601 165.021 0.697615H164.998ZM164.924 7.9081C165.422 7.61233 165.835 7.18997 166.121 6.6831C166.421 6.15417 166.575 5.55365 166.567 4.94428C166.576 4.32938 166.423 3.72306 166.121 3.18845C165.835 2.68158 165.422 2.25922 164.924 1.96345C164.414 1.66919 163.836 1.51441 163.249 1.51441C162.661 1.51441 162.084 1.66919 161.574 1.96345C161.073 2.26018 160.657 2.68212 160.366 3.18845C160.06 3.72122 159.903 4.32838 159.914 4.94428C159.904 5.55466 160.061 6.15602 160.366 6.6831C160.657 7.18943 161.073 7.61137 161.574 7.9081C162.084 8.20236 162.661 8.35714 163.249 8.35714C163.836 8.35714 164.414 8.20236 164.924 7.9081ZM163.183 5.89025C163.697 5.91922 164.206 5.76906 164.623 5.46491C164.793 5.30899 164.928 5.11924 165.02 4.90775C165.113 4.69625 165.16 4.46764 165.16 4.2365C165.16 4.00536 165.113 3.77676 165.02 3.56526C164.928 3.35376 164.793 3.16401 164.623 3.0081C164.203 2.71029 163.696 2.56404 163.183 2.59296H161.614V7.09824H162.697V3.22928L162.326 3.6206H163.247C163.777 3.6206 164.043 3.82817 164.043 4.23991C164.043 4.65164 163.777 4.86262 163.247 4.86262H162.39V5.88345L163.183 5.89025ZM164.107 5.30157H162.91L163.922 7.09824H165.089L164.107 5.30157Z" fill="white"/>
</g>
<defs>
<clipPath id="clip0_1184_11916">
<rect width="168" height="49" fill="white"/>
</clipPath>
</defs>
</svg>
