<svg width="67" height="97" viewBox="0 0 67 97" fill="none" xmlns="http://www.w3.org/2000/svg">
<path d="M0 97V0H61V97L30.5 73.7747L0 97Z" fill="#E5B48A"/>
<g clip-path="url(#clip0_403_1538)">
<path d="M25.8741 57.2394L21.5879 52.9532L21.9966 52.5445C22.7621 51.779 22.9835 51.2223 22.9835 50.0626C22.9835 47.7177 21.2815 46.0157 18.9366 46.0157C17.7769 46.0157 17.2202 46.2371 16.4547 47.0026L16.046 47.4113L11.7598 43.1251L35.1241 19.7607L39.4103 24.047L39.0016 24.4557C38.2362 25.2211 38.0147 25.7779 38.0147 26.9376C38.0147 29.2825 39.7167 30.9845 42.0616 30.9845C43.2213 30.9845 43.7781 30.763 44.5435 29.9976L44.9522 29.5889L49.2385 33.8751L25.8741 57.2394ZM23.2066 52.9364L25.8741 55.6045L47.6035 33.8751L44.936 31.2076C44.114 31.8967 43.3225 32.1407 42.0616 32.1407C39.0953 32.1407 36.8585 29.9039 36.8585 26.9376C36.8585 25.6767 37.1025 24.8852 37.7916 24.0637L35.1241 21.3957L13.3947 43.1251L16.0622 45.7926C16.8843 45.1034 17.6757 44.8595 18.9366 44.8595C21.903 44.8595 24.1397 47.0962 24.1397 50.0626C24.1397 51.3235 23.8958 52.1149 23.2066 52.9364Z" fill="black"/>
<path d="M27.4405 28.2627L29.753 30.5752L28.9355 31.3927L26.623 29.0802L27.4405 28.2627ZM38.4249 39.2471L40.7374 41.5596L39.9199 42.377L37.6074 40.0645L38.4249 39.2471ZM30.9093 31.7314L33.2218 34.0439L32.4043 34.8614L30.0918 32.5489L30.9093 31.7314ZM34.9561 35.7783L37.2686 38.0908L36.4512 38.9083L34.1387 36.5958L34.9561 35.7783Z" fill="black"/>
</g>
<path d="M66.662 10.9296H53L61 0L66.662 10.9296Z" fill="#E5B48A"/>
<defs>
<clipPath id="clip0_403_1538">
<rect width="37" height="37" fill="white" transform="translate(12 20)"/>
</clipPath>
</defs>
</svg>
