<svg width="67" height="97" viewBox="0 0 67 97" fill="none" xmlns="http://www.w3.org/2000/svg">
<path d="M66.662 10.9296H53L61 0L66.662 10.9296Z" fill="#E5B48A"/>
<path d="M0 97V0H61V97L30.5 73.7747L0 97Z" fill="#E5B48A"/>
<g clip-path="url(#clip0_403_1522)">
<path d="M32.7764 33.2785H37.3291C37.4728 33.2785 37.6107 33.2214 37.7123 33.1198C37.814 33.0182 37.8711 32.8803 37.8711 32.7366C37.8711 32.5928 37.814 32.4549 37.7123 32.3533C37.6107 32.2517 37.4728 32.1946 37.3291 32.1946H32.7764C32.6326 32.1946 32.4948 32.2517 32.3931 32.3533C32.2915 32.4549 32.2344 32.5928 32.2344 32.7366C32.2344 32.8803 32.2915 33.0182 32.3931 33.1198C32.4948 33.2214 32.6326 33.2785 32.7764 33.2785ZM30.5 23.3604C30.6072 23.3604 30.712 23.3286 30.8011 23.269C30.8902 23.2095 30.9597 23.1248 31.0007 23.0258C31.0418 22.9268 31.0525 22.8178 31.0316 22.7126C31.0107 22.6075 30.959 22.5109 30.8832 22.4351C30.8074 22.3593 30.7109 22.3077 30.6057 22.2868C30.5006 22.2659 30.3916 22.2766 30.2926 22.3176C30.1936 22.3587 30.1089 22.4281 30.0493 22.5173C29.9898 22.6064 29.958 22.7112 29.958 22.8184C29.958 22.9621 30.0151 23.1 30.1168 23.2016C30.2184 23.3033 30.3563 23.3604 30.5 23.3604ZM30.5092 40.9339L27.5659 43.8773L26.646 42.9576C26.544 42.8577 26.4067 42.8021 26.264 42.8029C26.1212 42.8037 25.9845 42.8607 25.8836 42.9616C25.7827 43.0626 25.7256 43.1993 25.7249 43.342C25.7241 43.4847 25.7797 43.622 25.8796 43.724L27.1826 45.0271C27.2329 45.0774 27.2927 45.1173 27.3584 45.1446C27.4242 45.1718 27.4947 45.1858 27.5658 45.1858C27.637 45.1858 27.7075 45.1718 27.7733 45.1446C27.839 45.1173 27.8988 45.0774 27.9491 45.0271L31.2757 41.7004C31.3756 41.5984 31.4311 41.4611 31.4304 41.3183C31.4296 41.1756 31.3726 41.0389 31.2716 40.938C31.1707 40.8371 31.034 40.78 30.8913 40.7793C30.7485 40.7785 30.6113 40.8341 30.5092 40.9339ZM32.7764 35.4465H37.3291C37.4728 35.4465 37.6107 35.3894 37.7123 35.2878C37.814 35.1861 37.8711 35.0483 37.8711 34.9045C37.8711 34.7608 37.814 34.6229 37.7123 34.5213C37.6107 34.4196 37.4728 34.3625 37.3291 34.3625H32.7764C32.6326 34.3625 32.4948 34.4196 32.3931 34.5213C32.2915 34.6229 32.2344 34.7608 32.2344 34.9045C32.2344 35.0483 32.2915 35.1861 32.3931 35.2878C32.4948 35.3894 32.6326 35.4465 32.7764 35.4465ZM32.7764 45.2024H37.3291C37.4728 45.2024 37.6107 45.1453 37.7123 45.0436C37.814 44.942 37.8711 44.8041 37.8711 44.6604C37.8711 44.5166 37.814 44.3788 37.7123 44.2771C37.6107 44.1755 37.4728 44.1184 37.3291 44.1184H32.7764C32.6326 44.1184 32.4948 44.1755 32.3931 44.2771C32.2915 44.3788 32.2344 44.5166 32.2344 44.6604C32.2344 44.8041 32.2915 44.942 32.3931 45.0436C32.4948 45.1453 32.6326 45.2024 32.7764 45.2024ZM23.6709 46.8828H28.6509C28.7947 46.8828 28.9325 46.8257 29.0342 46.7241C29.1358 46.6224 29.1929 46.4846 29.1929 46.3408C29.1929 46.1971 29.1358 46.0592 29.0342 45.9576C28.9325 45.856 28.7947 45.7989 28.6509 45.7989H24.2129V41.3539H28.6509C28.7947 41.3539 28.9325 41.2968 29.0342 41.1951C29.1358 41.0935 29.1929 40.9556 29.1929 40.8119C29.1929 40.6681 29.1358 40.5303 29.0342 40.4286C28.9325 40.327 28.7947 40.2699 28.6509 40.2699H23.6709C23.5272 40.2699 23.3893 40.327 23.2877 40.4286C23.186 40.5303 23.1289 40.6681 23.1289 40.8119V46.3408C23.1289 46.4846 23.186 46.6224 23.2877 46.7241C23.3893 46.8257 23.5272 46.8828 23.6709 46.8828ZM32.7764 43.0344H37.3291C37.4728 43.0344 37.6107 42.9773 37.7123 42.8757C37.814 42.774 37.8711 42.6362 37.8711 42.4924C37.8711 42.3487 37.814 42.2108 37.7123 42.1092C37.6107 42.0075 37.4728 41.9504 37.3291 41.9504H32.7764C32.6326 41.9504 32.4948 42.0075 32.3931 42.1092C32.2915 42.2108 32.2344 42.3487 32.2344 42.4924C32.2344 42.6362 32.2915 42.774 32.3931 42.8757C32.4948 42.9773 32.6326 43.0344 32.7764 43.0344ZM23.6709 37.127H28.6509C28.7947 37.127 28.9325 37.0699 29.0342 36.9682C29.1358 36.8666 29.1929 36.7287 29.1929 36.585C29.1929 36.4412 29.1358 36.3034 29.0342 36.2017C28.9325 36.1001 28.7947 36.043 28.6509 36.043H24.2129V31.598H28.6509C28.7947 31.598 28.9325 31.5409 29.0342 31.4393C29.1358 31.3376 29.1929 31.1998 29.1929 31.056C29.1929 30.9123 29.1358 30.7744 29.0342 30.6728C28.9325 30.5711 28.7947 30.514 28.6509 30.514H23.6709C23.5272 30.514 23.3893 30.5711 23.2877 30.6728C23.186 30.7744 23.1289 30.9123 23.1289 31.056V36.585C23.1289 36.7287 23.186 36.8666 23.2877 36.9682C23.3893 37.0699 23.5272 37.127 23.6709 37.127ZM41.3037 23.1797H35.8622C35.7865 22.8991 35.6205 22.6513 35.3899 22.4744C35.1594 22.2975 34.877 22.2013 34.5864 22.2008H33.456C33.4072 22.1989 33.3603 22.1814 33.3223 22.1507C33.2843 22.1201 33.2571 22.0781 33.2449 22.0308C33.0651 21.443 32.7014 20.9285 32.2072 20.5629C31.7131 20.1973 31.1147 20 30.5 20C29.8853 20 29.2869 20.1973 28.7928 20.5629C28.2986 20.9285 27.9349 21.443 27.7551 22.0308C27.7429 22.0781 27.7158 22.1201 27.6777 22.1507C27.6397 22.1813 27.5929 22.1989 27.5441 22.2008H26.4136C26.123 22.2013 25.8406 22.2975 25.6101 22.4744C25.3795 22.6513 25.2135 22.8991 25.1378 23.1797H19.6963C18.9778 23.1805 18.289 23.4663 17.7809 23.9743C17.2729 24.4824 16.9871 25.1712 16.9863 25.8897V54.2901C16.9871 55.0085 17.2729 55.6974 17.7809 56.2054C18.289 56.7134 18.9778 56.9992 19.6963 57H41.3037C42.0222 56.9992 42.711 56.7134 43.2191 56.2054C43.7271 55.6974 44.0129 55.0085 44.0137 54.2901V25.8897C44.0129 25.1712 43.7271 24.4824 43.2191 23.9743C42.711 23.4663 42.0222 23.1805 41.3037 23.1797ZM26.1749 23.5235C26.175 23.4602 26.2001 23.3995 26.2449 23.3548C26.2896 23.31 26.3503 23.2848 26.4136 23.2848H27.544C27.8253 23.2839 28.0987 23.1922 28.3236 23.0232C28.5485 22.8543 28.7128 22.6172 28.7919 22.3474C28.9039 21.9817 29.1303 21.6617 29.4378 21.4343C29.7453 21.2069 30.1176 21.0842 30.5 21.0842C30.8824 21.0842 31.2547 21.2069 31.5622 21.4343C31.8697 21.6617 32.0961 21.9817 32.2081 22.3474C32.2872 22.6172 32.4515 22.8543 32.6764 23.0232C32.9013 23.1922 33.1747 23.2839 33.456 23.2848H34.5864C34.6497 23.2848 34.7104 23.31 34.7551 23.3548C34.7999 23.3995 34.825 23.4602 34.8251 23.5235V26.6686C34.825 26.7319 34.7999 26.7926 34.7551 26.8373C34.7104 26.8821 34.6497 26.9073 34.5864 26.9073H26.4136C26.3503 26.9073 26.2896 26.8821 26.2449 26.8373C26.2001 26.7926 26.175 26.7319 26.1749 26.6686V23.5235ZM25.1845 27.1543C25.282 27.4009 25.4513 27.6124 25.6704 27.7617C25.8896 27.9109 26.1485 27.9909 26.4136 27.9913H34.5864C34.8515 27.9909 35.1104 27.9109 35.3296 27.7617C35.5487 27.6124 35.718 27.4009 35.8155 27.1543H39.1357C39.3752 27.1546 39.6048 27.2498 39.7742 27.4192C39.9435 27.5885 40.0388 27.8181 40.0391 28.0576V48.6895H36.9678C36.6325 48.6899 36.311 48.8232 36.074 49.0603C35.8369 49.2974 35.7035 49.6188 35.7031 49.9541V53.0254H21.8643C21.6248 53.0251 21.3952 52.9299 21.2258 52.7605C21.0565 52.5912 20.9612 52.3616 20.9609 52.1221V28.0576C20.9612 27.8181 21.0565 27.5885 21.2258 27.4192C21.3952 27.2498 21.6248 27.1546 21.8643 27.1543H25.1845ZM39.2726 49.7735L36.7871 52.259V49.9541C36.7872 49.9062 36.8062 49.8603 36.8401 49.8264C36.874 49.7926 36.9199 49.7735 36.9678 49.7735H39.2726ZM42.9297 54.2901C42.9292 54.7212 42.7577 55.1344 42.4529 55.4393C42.1481 55.7441 41.7348 55.9156 41.3037 55.916H19.6963C19.2652 55.9156 18.8519 55.7441 18.5471 55.4393C18.2423 55.1344 18.0708 54.7212 18.0703 54.2901V25.8897C18.0708 25.4586 18.2423 25.0453 18.5471 24.7405C18.8519 24.4356 19.2652 24.2642 19.6963 24.2637H25.0909V26.0703H21.8643C21.3374 26.0709 20.8322 26.2805 20.4597 26.6531C20.0871 27.0256 19.8775 27.5308 19.877 28.0576V52.1221C19.8775 52.649 20.0871 53.1541 20.4597 53.5267C20.8322 53.8992 21.3374 54.1088 21.8643 54.1094H36.2451C36.2633 54.1094 36.2813 54.1085 36.2992 54.1067C36.3123 54.1054 36.3252 54.103 36.338 54.1009C36.3426 54.1001 36.3472 54.0997 36.3519 54.0987C36.367 54.0957 36.3818 54.0918 36.3965 54.0875C36.3987 54.0869 36.4009 54.0865 36.4031 54.0858C36.418 54.0813 36.4327 54.0759 36.447 54.0701C36.449 54.0694 36.451 54.0688 36.453 54.0679C36.4665 54.0622 36.4798 54.0559 36.4928 54.0491C36.4955 54.0477 36.4983 54.0466 36.5009 54.0452C36.513 54.0387 36.5245 54.0315 36.536 54.0243C36.5395 54.022 36.5431 54.0202 36.5465 54.0178C36.5573 54.0104 36.5679 54.0026 36.5782 53.9944C36.5818 53.9915 36.5856 53.9892 36.589 53.9862C36.6028 53.975 36.6159 53.9631 36.6285 53.9506L40.9642 49.6148C40.9767 49.6023 40.9886 49.5892 40.9998 49.5755C41.0027 49.5719 41.0053 49.5681 41.0081 49.5645C41.0161 49.5541 41.0242 49.5438 41.0315 49.5328C41.0338 49.5294 41.0357 49.5258 41.0378 49.5223C41.0452 49.5109 41.0524 49.4994 41.0588 49.4873C41.0602 49.4846 41.0614 49.4819 41.0627 49.4792C41.0695 49.4662 41.0759 49.453 41.0816 49.4393C41.0824 49.4374 41.083 49.4353 41.0837 49.4334C41.0895 49.419 41.0949 49.4045 41.0995 49.3894C41.1002 49.3873 41.1006 49.3851 41.1012 49.3829C41.1055 49.3682 41.1094 49.3533 41.1124 49.3381C41.1134 49.3336 41.1137 49.329 41.1146 49.3244C41.1168 49.3115 41.119 49.2987 41.1204 49.2856C41.1221 49.2677 41.123 49.2496 41.123 49.2315V28.0576C41.1225 27.5308 40.9129 27.0256 40.5403 26.6531C40.1678 26.2805 39.6626 26.0709 39.1357 26.0703H35.9091V24.2637H41.3037C41.7348 24.2642 42.1481 24.4356 42.4529 24.7405C42.7577 25.0453 42.9292 25.4586 42.9297 25.8897V54.2901ZM26.6461 33.2017C26.5443 33.1008 26.4067 33.0443 26.2633 33.0446C26.12 33.0449 25.9826 33.102 25.8813 33.2034C25.7799 33.3047 25.7228 33.4421 25.7225 33.5854C25.7222 33.7287 25.7787 33.8664 25.8796 33.9682L27.1826 35.2712C27.2329 35.3215 27.2927 35.3615 27.3584 35.3887C27.4242 35.4159 27.4947 35.43 27.5658 35.43C27.637 35.43 27.7075 35.4159 27.7733 35.3887C27.839 35.3615 27.8988 35.3215 27.9491 35.2712L31.2757 31.9445C31.3756 31.8425 31.4311 31.7052 31.4304 31.5625C31.4296 31.4197 31.3726 31.2831 31.2716 31.1821C31.1707 31.0812 31.034 31.0242 30.8913 31.0234C30.7485 31.0226 30.6113 31.0782 30.5092 31.1781L27.5659 34.1215L26.6461 33.2017Z" fill="black"/>
</g>
<defs>
<clipPath id="clip0_403_1522">
<rect width="37" height="37" fill="white" transform="translate(12 20)"/>
</clipPath>
</defs>
</svg>
