<svg width="67" height="97" viewBox="0 0 67 97" fill="none" xmlns="http://www.w3.org/2000/svg">
<path d="M0 97V0H61V97L30.5 73.7747L0 97Z" fill="#E5B48A"/>
<g clip-path="url(#clip0_403_1530)">
<path d="M48.1102 35.0312C47.8954 34.8161 47.6403 34.6454 47.3594 34.5289C47.0786 34.4124 46.7776 34.3524 46.4735 34.3524C46.1695 34.3524 45.8684 34.4124 45.5876 34.5289C45.3068 34.6454 45.0516 34.8161 44.8368 35.0312L43.6806 36.1875L39.9598 39.9083V28.6719C39.9565 28.6469 39.9514 28.6222 39.9448 28.5979C39.9418 28.5737 39.9372 28.5497 39.9309 28.5262C39.9083 28.4278 39.8601 28.3373 39.791 28.2637L31.6972 20.17C31.6241 20.1006 31.534 20.052 31.4359 20.0289C31.4127 20.0227 31.3892 20.018 31.3654 20.015C31.3403 20.0083 31.3148 20.0032 31.2891 20H15.1016C14.3349 20 13.5997 20.3045 13.0576 20.8466C12.5155 21.3887 12.2109 22.124 12.2109 22.8906V54.1094C12.2109 54.876 12.5155 55.6113 13.0576 56.1534C13.5997 56.6955 14.3349 57 15.1016 57H37.0703C37.4499 57 37.8258 56.9252 38.1765 56.78C38.5272 56.6347 38.8459 56.4218 39.1143 56.1534C39.3827 55.8849 39.5956 55.5663 39.7409 55.2156C39.8862 54.8649 39.9609 54.489 39.9609 54.1094V46.4504L46.9516 39.4597L48.1079 38.3034C48.323 38.0888 48.4938 37.8339 48.6104 37.5532C48.7269 37.2726 48.787 36.9717 48.7873 36.6678C48.7875 36.3639 48.7278 36.063 48.6116 35.7821C48.4954 35.5013 48.325 35.2462 48.1102 35.0312ZM31.8672 21.9737L37.9872 28.0938H33.6016C33.1416 28.0938 32.7004 27.911 32.3752 27.5858C32.0499 27.2605 31.8672 26.8194 31.8672 26.3594V21.9737ZM31.3087 28.0938H17.4141C17.2607 28.0938 17.1137 28.0328 17.0053 27.9244C16.8968 27.816 16.8359 27.669 16.8359 27.5156V25.2031C16.8359 25.0498 16.8968 24.9027 17.0053 24.7943C17.1137 24.6859 17.2607 24.625 17.4141 24.625H30.7109V26.3594C30.7146 26.9874 30.9246 27.5968 31.3087 28.0938ZM38.8093 54.1094C38.8093 54.5694 38.6266 55.0105 38.3013 55.3358C37.9761 55.661 37.5349 55.8438 37.0749 55.8438H15.1062C14.6462 55.8438 14.2051 55.661 13.8798 55.3358C13.5545 55.0105 13.3718 54.5694 13.3718 54.1094V22.8906C13.3718 22.4314 13.5539 21.991 13.8782 21.6659C14.2024 21.3407 14.6424 21.1575 15.1016 21.1562H30.7109V23.4688H17.4141C16.9541 23.4688 16.5129 23.6515 16.1877 23.9767C15.8624 24.302 15.6797 24.7431 15.6797 25.2031V27.5156C15.6797 27.9756 15.8624 28.4168 16.1877 28.742C16.5129 29.0673 16.9541 29.25 17.4141 29.25H38.8047V41.0657L32.1667 47.7037C32.1406 47.7351 32.1181 47.7692 32.0996 47.8055C32.088 47.824 32.0684 47.8344 32.0591 47.8541L30.4242 51.1239C30.3776 51.2224 30.3602 51.3321 30.3742 51.4401C30.3881 51.5482 30.4328 51.6499 30.5028 51.7333L29.7836 52.4594C29.7244 52.512 29.6767 52.5762 29.6433 52.648C29.6099 52.7198 29.5916 52.7977 29.5896 52.8768C29.5876 52.956 29.6018 53.0347 29.6315 53.1081C29.6611 53.1815 29.7055 53.2481 29.7619 53.3036C29.8184 53.3592 29.8856 53.4026 29.9595 53.431C30.0333 53.4595 30.1123 53.4726 30.1914 53.4693C30.2705 53.466 30.3481 53.4465 30.4194 53.4121C30.4906 53.3776 30.5541 53.3288 30.6057 53.2688L31.3053 52.5612L31.3492 52.6051C31.4349 52.6909 31.5455 52.7476 31.6652 52.7671C31.785 52.7866 31.9078 52.768 32.0163 52.7138L35.2862 51.0777C35.3059 51.0684 35.3163 51.0488 35.3348 51.0372C35.3711 51.0187 35.4052 50.9962 35.4365 50.9702L38.8047 47.6032L38.8093 54.1094ZM32.739 49.0889L34.0571 50.4071L31.8776 51.4974L31.7215 51.3402V51.3332H31.7146L31.6544 51.2731L32.739 49.0889ZM38.9828 45.8006L35.0376 49.7445L33.39 48.1131L44.0876 37.4154L45.7225 39.0504L38.9828 45.8006ZM47.2997 37.4837L46.5504 38.2329L44.9143 36.5968L45.6636 35.8476C45.771 35.7401 45.8985 35.6549 46.0389 35.5968C46.1792 35.5386 46.3297 35.5087 46.4816 35.5087C46.6335 35.5087 46.784 35.5386 46.9243 35.5968C47.0647 35.6549 47.1922 35.7401 47.2997 35.8476C47.4071 35.955 47.4923 36.0825 47.5504 36.2229C47.6086 36.3632 47.6385 36.5137 47.6385 36.6656C47.6385 36.8175 47.6086 36.968 47.5504 37.1083C47.4923 37.2487 47.4071 37.3762 47.2997 37.4837ZM22.0391 38.5H35.9141C36.0674 38.5 36.2144 38.4391 36.3229 38.3307C36.4313 38.2223 36.4922 38.0752 36.4922 37.9219C36.4922 37.7685 36.4313 37.6215 36.3229 37.5131C36.2144 37.4047 36.0674 37.3438 35.9141 37.3438H22.0391C21.8857 37.3438 21.7387 37.4047 21.6303 37.5131C21.5218 37.6215 21.4609 37.7685 21.4609 37.9219C21.4609 38.0752 21.5218 38.2223 21.6303 38.3307C21.7387 38.4391 21.8857 38.5 22.0391 38.5ZM22.0391 35.0312H35.9141C36.0674 35.0312 36.2144 34.9703 36.3229 34.8619C36.4313 34.7535 36.4922 34.6065 36.4922 34.4531C36.4922 34.2998 36.4313 34.1527 36.3229 34.0443C36.2144 33.9359 36.0674 33.875 35.9141 33.875H22.0391C21.8857 33.875 21.7387 33.9359 21.6303 34.0443C21.5218 34.1527 21.4609 34.2998 21.4609 34.4531C21.4609 34.6065 21.5218 34.7535 21.6303 34.8619C21.7387 34.9703 21.8857 35.0312 22.0391 35.0312ZM27.8203 52.2883C27.375 52.2996 26.938 52.1661 26.575 51.9079C26.0272 51.5522 25.388 51.363 24.7349 51.363C24.0817 51.363 23.4425 51.5522 22.8947 51.9079C22.5317 52.1661 22.0947 52.2996 21.6494 52.2883C21.2058 52.3003 20.7701 52.1685 20.4076 51.9125C19.8658 51.5461 19.2243 51.3555 18.5703 51.3668C18.417 51.3668 18.2699 51.4277 18.1615 51.5361C18.0531 51.6445 17.9922 51.7915 17.9922 51.9449C17.9922 52.0982 18.0531 52.2453 18.1615 52.3537C18.2699 52.4621 18.417 52.523 18.5703 52.523C19.0149 52.512 19.451 52.6455 19.8133 52.9034C20.3551 53.2698 20.9966 53.4604 21.6506 53.4492C22.3051 53.4605 22.9473 53.2704 23.4902 52.9046C23.8579 52.6567 24.2913 52.5242 24.7349 52.5242C25.1784 52.5242 25.6118 52.6567 25.9796 52.9046C26.5224 53.2704 27.1646 53.4605 27.8192 53.4492C27.9725 53.4492 28.1195 53.3882 28.228 53.2798C28.3364 53.1714 28.3973 53.0244 28.3973 52.871C28.3973 52.7177 28.3364 52.5707 28.228 52.4622C28.1195 52.3538 27.9725 52.2929 27.8192 52.2929L27.8203 52.2883ZM22.0391 32.7188H35.9141C36.0674 32.7188 36.2144 32.6578 36.3229 32.5494C36.4313 32.441 36.4922 32.294 36.4922 32.1406C36.4922 31.9873 36.4313 31.8402 36.3229 31.7318C36.2144 31.6234 36.0674 31.5625 35.9141 31.5625H22.0391C21.8857 31.5625 21.7387 31.6234 21.6303 31.7318C21.5218 31.8402 21.4609 31.9873 21.4609 32.1406C21.4609 32.294 21.5218 32.441 21.6303 32.5494C21.7387 32.6578 21.8857 32.7188 22.0391 32.7188ZM22.0391 40.8125H35.9141C36.0674 40.8125 36.2144 40.7516 36.3229 40.6432C36.4313 40.5348 36.4922 40.3877 36.4922 40.2344C36.4922 40.081 36.4313 39.934 36.3229 39.8256C36.2144 39.7172 36.0674 39.6562 35.9141 39.6562H22.0391C21.8857 39.6562 21.7387 39.7172 21.6303 39.8256C21.5218 39.934 21.4609 40.081 21.4609 40.2344C21.4609 40.3877 21.5218 40.5348 21.6303 40.6432C21.7387 40.7516 21.8857 40.8125 22.0391 40.8125ZM17.4141 40.8125C17.7571 40.8125 18.0924 40.7108 18.3776 40.5202C18.6628 40.3296 18.8851 40.0588 19.0164 39.7418C19.1477 39.4249 19.182 39.0762 19.1151 38.7398C19.0482 38.4033 18.883 38.0943 18.6405 37.8517C18.3979 37.6092 18.0889 37.444 17.7524 37.3771C17.416 37.3102 17.0673 37.3445 16.7503 37.4758C16.4334 37.607 16.1626 37.8293 15.972 38.1146C15.7814 38.3998 15.6797 38.7351 15.6797 39.0781C15.6797 39.5381 15.8624 39.9793 16.1877 40.3045C16.5129 40.6298 16.9541 40.8125 17.4141 40.8125ZM17.4141 38.5C17.5284 38.5 17.6402 38.5339 17.7353 38.5974C17.8303 38.661 17.9044 38.7512 17.9482 38.8569C17.9919 38.9625 18.0034 39.0788 17.9811 39.1909C17.9588 39.3031 17.9037 39.4061 17.8229 39.4869C17.742 39.5678 17.639 39.6228 17.5268 39.6451C17.4147 39.6674 17.2985 39.656 17.1928 39.6122C17.0872 39.5685 16.9969 39.4944 16.9334 39.3993C16.8698 39.3042 16.8359 39.1925 16.8359 39.0781C16.8359 38.9248 16.8968 38.7777 17.0053 38.6693C17.1137 38.5609 17.2607 38.5 17.4141 38.5ZM19.1484 44.8594C19.1484 44.5163 19.0467 44.181 18.8561 43.8958C18.6656 43.6106 18.3947 43.3883 18.0778 43.257C17.7609 43.1258 17.4121 43.0914 17.0757 43.1583C16.7393 43.2252 16.4302 43.3904 16.1877 43.633C15.9451 43.8755 15.7799 44.1846 15.713 44.521C15.6461 44.8575 15.6804 45.2062 15.8117 45.5231C15.943 45.84 16.1653 46.1109 16.4505 46.3015C16.7357 46.492 17.071 46.5938 17.4141 46.5938C17.874 46.5938 18.3152 46.411 18.6405 46.0858C18.9657 45.7605 19.1484 45.3194 19.1484 44.8594ZM17.4141 45.4375C17.2997 45.4375 17.1879 45.4036 17.0929 45.3401C16.9978 45.2765 16.9237 45.1863 16.8799 45.0806C16.8362 44.975 16.8247 44.8587 16.847 44.7466C16.8694 44.6344 16.9244 44.5314 17.0053 44.4506C17.0861 44.3697 17.1891 44.3147 17.3013 44.2924C17.4134 44.2701 17.5297 44.2815 17.6353 44.3253C17.7409 44.369 17.8312 44.4431 17.8948 44.5382C17.9583 44.6333 17.9922 44.745 17.9922 44.8594C17.9922 45.0127 17.9313 45.1598 17.8229 45.2682C17.7144 45.3766 17.5674 45.4375 17.4141 45.4375ZM22.0391 44.2812H31.2891C31.4424 44.2812 31.5894 44.2203 31.6979 44.1119C31.8063 44.0035 31.8672 43.8565 31.8672 43.7031C31.8672 43.5498 31.8063 43.4027 31.6979 43.2943C31.5894 43.1859 31.4424 43.125 31.2891 43.125H22.0391C21.8857 43.125 21.7387 43.1859 21.6303 43.2943C21.5218 43.4027 21.4609 43.5498 21.4609 43.7031C21.4609 43.8565 21.5218 44.0035 21.6303 44.1119C21.7387 44.2203 21.8857 44.2812 22.0391 44.2812ZM17.4141 35.0312C17.7571 35.0312 18.0924 34.9295 18.3776 34.739C18.6628 34.5484 18.8851 34.2775 19.0164 33.9606C19.1477 33.6437 19.182 33.295 19.1151 32.9585C19.0482 32.6221 18.883 32.313 18.6405 32.0705C18.3979 31.8279 18.0889 31.6627 17.7524 31.5958C17.416 31.5289 17.0673 31.5633 16.7503 31.6945C16.4334 31.8258 16.1626 32.0481 15.972 32.3333C15.7814 32.6185 15.6797 32.9538 15.6797 33.2969C15.6797 33.7569 15.8624 34.198 16.1877 34.5233C16.5129 34.8485 16.9541 35.0312 17.4141 35.0312ZM17.4141 32.7188C17.5284 32.7188 17.6402 32.7527 17.7353 32.8162C17.8303 32.8797 17.9044 32.97 17.9482 33.0756C17.9919 33.1813 18.0034 33.2975 17.9811 33.4097C17.9588 33.5218 17.9037 33.6248 17.8229 33.7057C17.742 33.7865 17.639 33.8416 17.5268 33.8639C17.4147 33.8862 17.2985 33.8748 17.1928 33.831C17.0872 33.7872 16.9969 33.7131 16.9334 33.6181C16.8698 33.523 16.8359 33.4112 16.8359 33.2969C16.8359 33.1435 16.8968 32.9965 17.0053 32.8881C17.1137 32.7797 17.2607 32.7188 17.4141 32.7188ZM22.0391 46.5938H31.2891C31.4424 46.5938 31.5894 46.5328 31.6979 46.4244C31.8063 46.316 31.8672 46.169 31.8672 46.0156C31.8672 45.8623 31.8063 45.7152 31.6979 45.6068C31.5894 45.4984 31.4424 45.4375 31.2891 45.4375H22.0391C21.8857 45.4375 21.7387 45.4984 21.6303 45.6068C21.5218 45.7152 21.4609 45.8623 21.4609 46.0156C21.4609 46.169 21.5218 46.316 21.6303 46.4244C21.7387 46.5328 21.8857 46.5938 22.0391 46.5938Z" fill="black"/>
</g>
<path d="M66.662 10.9296H53L61 0L66.662 10.9296Z" fill="#E5B48A"/>
<defs>
<clipPath id="clip0_403_1530">
<rect width="37" height="37" fill="white" transform="translate(12 20)"/>
</clipPath>
</defs>
</svg>
